<svg width="233" height="234" viewBox="0 0 233 234" fill="none" xmlns="http://www.w3.org/2000/svg">
<path d="M193.098 93.1107C192.291 91.5027 191.057 90.1506 189.531 89.2041C188.006 88.2575 186.25 87.7536 184.457 87.7482H135.916V29.2482C136.02 27.1098 135.42 24.9965 134.21 23.2344C132.999 21.4722 131.244 20.1593 129.217 19.4982C127.268 18.8541 125.165 18.8469 123.212 19.4775C121.258 20.1081 119.554 21.3441 118.344 23.0082L40.6769 130.258C39.7038 131.671 39.1195 133.316 38.9831 135.028C38.8467 136.74 39.1631 138.458 39.9002 140.008C40.579 141.78 41.7583 143.315 43.2932 144.423C44.8281 145.532 46.6518 146.166 48.5406 146.248H97.0823V204.748C97.0838 206.804 97.7325 208.807 98.9356 210.471C100.139 212.134 101.835 213.373 103.781 214.011C104.756 214.314 105.77 214.478 106.791 214.498C108.322 214.502 109.833 214.142 111.2 213.447C112.567 212.753 113.751 211.743 114.654 210.501L192.321 103.251C193.367 101.796 193.993 100.08 194.13 98.2904C194.267 96.5013 193.91 94.7089 193.098 93.1107V93.1107ZM116.499 174.718V136.498C116.499 133.912 115.476 131.432 113.655 129.604C111.835 127.775 109.365 126.748 106.791 126.748H67.9573L116.499 59.2782V97.4982C116.499 100.084 117.522 102.564 119.342 104.392C121.163 106.221 123.632 107.248 126.207 107.248H165.041L116.499 174.718Z" fill="#38C43D"/>
</svg>
