<svg width="233" height="234" viewBox="0 0 233 234" fill="none" xmlns="http://www.w3.org/2000/svg">
<path d="M184.459 117H116.5V48.75C116.5 42.9 112.617 39 106.792 39C58.2503 39 19.417 78 19.417 126.75C19.417 175.5 58.2503 214.5 106.792 214.5C155.334 214.5 194.167 175.5 194.167 126.75C194.167 120.9 190.284 117 184.459 117ZM116.5 194.025C79.6087 199.875 44.6587 173.55 39.8045 136.5C33.9795 99.45 60.192 64.35 97.0837 59.475V126.75C97.0837 132.6 100.967 136.5 106.792 136.5H173.779C169.896 166.725 146.596 190.125 116.5 194.025ZM145.625 19.5C139.8 19.5 135.917 23.4 135.917 29.25V87.75C135.917 93.6 139.8 97.5 145.625 97.5H203.875C209.7 97.5 213.584 93.6 213.584 87.75C213.584 49.725 183.488 19.5 145.625 19.5ZM155.334 78V39.975C174.75 43.875 189.313 58.5 193.196 78H155.334Z" fill="#38C43D"/>
</svg>
