<svg width="235" height="233" viewBox="0 0 235 233" fill="none" xmlns="http://www.w3.org/2000/svg">
<path d="M137.081 150.478H107.706V140.77C107.65 138.588 108.337 136.45 109.656 134.703C110.975 132.956 112.85 131.7 114.978 131.139C117.105 130.578 119.362 130.744 121.382 131.611C123.403 132.478 125.07 133.994 126.114 135.916C127.455 138.113 129.62 139.695 132.134 140.313C134.648 140.932 137.307 140.538 139.529 139.217C141.667 137.89 143.206 135.798 143.826 133.374C144.446 130.951 144.099 128.384 142.858 126.207C141.597 124.124 140.085 122.2 138.354 120.48C135.642 117.71 132.401 115.503 128.82 113.986C125.24 112.469 121.391 111.674 117.498 111.645C109.707 111.645 102.235 114.713 96.7265 120.175C91.2176 125.637 88.1227 133.045 88.1227 140.77V152.226C81.6468 154.556 76.2028 159.068 72.7423 164.974C69.2818 170.88 68.0249 177.804 69.1915 184.536C70.3581 191.268 73.8739 197.379 79.1243 201.801C84.3746 206.223 91.0256 208.675 97.9144 208.728H137.081C144.872 208.728 152.343 205.66 157.852 200.198C163.361 194.736 166.456 187.328 166.456 179.603C166.456 171.879 163.361 164.471 157.852 159.009C152.343 153.547 144.872 150.478 137.081 150.478V150.478ZM137.081 189.312H97.9144C95.3175 189.312 92.8269 188.289 90.9906 186.468C89.1544 184.647 88.1227 182.178 88.1227 179.603C88.1227 177.028 89.1544 174.559 90.9906 172.738C92.8269 170.918 95.3175 169.895 97.9144 169.895H137.081C139.678 169.895 142.169 170.918 144.005 172.738C145.841 174.559 146.873 177.028 146.873 179.603C146.873 182.178 145.841 184.647 144.005 186.468C142.169 188.289 139.678 189.312 137.081 189.312ZM180.36 65.2391C174.377 51.6086 164.052 40.2991 150.966 33.0436C137.881 25.7881 122.756 22.9868 107.911 25.069C93.0663 27.1512 79.3193 34.0021 68.7769 44.5717C58.2345 55.1414 51.4783 68.8468 49.5436 83.5878C41.3403 85.5689 34.0022 90.1251 28.6232 96.5775C23.2441 103.03 20.112 111.033 19.6936 119.394C19.2753 127.755 21.5931 136.026 26.3017 142.975C31.0103 149.923 37.8575 155.177 45.8227 157.954C46.8382 158.264 47.8935 158.427 48.9561 158.439C51.553 158.851 54.2086 158.223 56.3387 156.694C58.4688 155.165 59.8989 152.859 60.3144 150.284C60.7299 147.709 60.0968 145.076 58.5543 142.964C57.0118 140.852 54.6863 139.434 52.0894 139.022C48.3971 137.701 45.1905 135.31 42.8858 132.159C40.581 129.008 39.2845 125.244 39.1644 121.353C39.1644 116.204 41.2276 111.265 44.9002 107.624C48.5728 103.982 53.5539 101.937 58.7477 101.937C61.3446 101.937 63.8352 100.914 65.6715 99.0931C67.5078 97.2724 68.5394 94.8031 68.5394 92.2282C68.5644 80.746 72.6939 69.6443 80.1941 60.8954C87.6944 52.1466 98.0798 46.3171 109.505 44.4426C120.931 42.5681 132.657 44.7701 142.599 50.6572C152.542 56.5444 160.058 65.7356 163.812 76.5978C164.372 78.2661 165.378 79.7524 166.723 80.898C168.068 82.0436 169.702 82.8055 171.45 83.1024C177.338 84.1591 182.76 86.9734 186.991 91.1689C191.222 95.3644 194.059 100.741 195.124 106.579C196.189 112.417 195.43 118.439 192.949 123.837C190.468 129.236 186.383 133.755 181.241 136.79C178.982 138.077 177.331 140.201 176.652 142.696C175.972 145.19 176.32 147.85 177.619 150.09C178.917 152.33 181.06 153.967 183.576 154.641C186.091 155.314 188.774 154.969 191.033 153.682C198.457 149.409 204.618 143.276 208.897 135.898C213.177 128.52 215.424 120.156 215.414 111.645C215.385 101.2 211.958 91.0432 205.643 82.6831C199.327 74.3229 190.461 68.2054 180.36 65.2391V65.2391Z" fill="#38C43D"/>
</svg>
