<svg width="234" height="234" viewBox="0 0 234 234" fill="none" xmlns="http://www.w3.org/2000/svg">
<path d="M165.75 59.0866C158.988 59.0911 152.437 61.4382 147.21 65.7287C141.984 70.0191 138.405 75.9878 137.084 82.6193C135.762 89.2507 136.779 96.1353 139.961 102.102C143.143 108.068 148.294 112.747 154.538 115.344C153.053 118.902 150.548 121.941 147.337 124.075C144.127 126.21 140.355 127.345 136.5 127.337H97.5001C90.6267 127.365 83.889 129.252 78.0001 132.797V76.8316C84.5054 74.5316 89.9882 70.0059 93.4795 64.0544C96.9707 58.1029 98.2456 51.1087 97.0788 44.3082C95.912 37.5076 92.3787 31.3384 87.1032 26.891C81.8278 22.4436 75.15 20.0044 68.2501 20.0044C61.3501 20.0044 54.6723 22.4436 49.3969 26.891C44.1215 31.3384 40.5881 37.5076 39.4213 44.3082C38.2545 51.1087 39.5294 58.1029 43.0207 64.0544C46.5119 70.0059 51.9947 74.5316 58.5001 76.8316V158.342C52.0747 160.652 46.6602 165.138 43.195 171.022C39.7298 176.905 38.4322 183.816 39.527 190.556C40.6219 197.296 44.0403 203.44 49.1898 207.924C54.3392 212.409 60.8952 214.95 67.7217 215.108C74.5481 215.266 81.2147 213.031 86.5661 208.79C91.9175 204.549 95.6166 198.569 97.0221 191.887C98.4277 185.205 97.4513 178.242 94.262 172.204C91.0727 166.166 85.8716 161.435 79.5601 158.829C81.0379 155.286 83.5286 152.258 86.72 150.125C89.9113 147.992 93.6613 146.848 97.5001 146.837H136.5C145.42 146.835 154.069 143.776 161.006 138.169C167.944 132.562 172.749 124.747 174.623 116.027C181.141 113.812 186.67 109.368 190.235 103.479C193.8 97.5892 195.174 90.6307 194.114 83.8282C193.054 77.0256 189.628 70.815 184.44 66.2893C179.252 61.7637 172.634 59.2131 165.75 59.0866V59.0866ZM68.2501 39.5866C70.1784 39.5866 72.0635 40.1584 73.6669 41.2297C75.2702 42.3011 76.5199 43.8238 77.2579 45.6054C77.9958 47.387 78.1889 49.3474 77.8127 51.2387C77.4365 53.13 76.5079 54.8673 75.1443 56.2309C73.7808 57.5944 72.0435 58.523 70.1522 58.8992C68.2609 59.2754 66.3005 59.0823 64.5189 58.3444C62.7373 57.6064 61.2146 56.3567 60.1432 54.7534C59.0719 53.15 58.5001 51.2649 58.5001 49.3366C58.5001 46.7507 59.5273 44.2707 61.3558 42.4423C63.1842 40.6138 65.6642 39.5866 68.2501 39.5866ZM68.2501 195.587C66.3217 195.587 64.4366 195.015 62.8332 193.943C61.2299 192.872 59.9802 191.349 59.2422 189.568C58.5043 187.786 58.3112 185.826 58.6874 183.934C59.0636 182.043 59.9922 180.306 61.3558 178.942C62.7193 177.579 64.4566 176.65 66.3479 176.274C68.2392 175.898 70.1996 176.091 71.9812 176.829C73.7628 177.567 75.2855 178.816 76.3569 180.42C77.4282 182.023 78.0001 183.908 78.0001 185.837C78.0001 188.422 76.9728 190.902 75.1443 192.731C73.3159 194.559 70.8359 195.587 68.2501 195.587ZM165.75 98.0866C163.822 98.0866 161.937 97.5147 160.333 96.4434C158.73 95.372 157.48 93.8493 156.742 92.0677C156.004 90.2861 155.811 88.3257 156.187 86.4344C156.564 84.5431 157.492 82.8058 158.856 81.4423C160.219 80.0787 161.957 79.1501 163.848 78.7739C165.739 78.3977 167.7 78.5908 169.481 79.3287C171.263 80.0667 172.786 81.3164 173.857 82.9198C174.928 84.5231 175.5 86.4082 175.5 88.3366C175.5 90.9224 174.473 93.4024 172.644 95.2309C170.816 97.0593 168.336 98.0866 165.75 98.0866Z" fill="#38C43D"/>
</svg>
