<svg width="235" height="234" viewBox="0 0 235 234" fill="none" xmlns="http://www.w3.org/2000/svg">
<path d="M117.5 61.9125C111.905 59.0562 105.552 58.0186 99.3338 58.9455C93.1159 59.8725 87.3464 62.7174 82.8372 67.08C77.3362 72.5644 74.2464 79.9987 74.2464 87.75C74.2464 95.5013 77.3362 102.936 82.8372 108.42L110.548 136.5C111.458 137.414 112.541 138.139 113.734 138.634C114.927 139.129 116.207 139.384 117.5 139.384C118.792 139.384 120.072 139.129 121.265 138.634C122.459 138.139 123.541 137.414 124.452 136.5L152.162 108.908C157.663 103.423 160.753 95.9888 160.753 88.2375C160.753 80.4862 157.663 73.0519 152.162 67.5675C147.709 63.1253 141.967 60.1893 135.747 59.1745C129.526 58.1597 123.143 59.1175 117.5 61.9125V61.9125ZM138.258 94.6725L117.5 115.342L96.7413 94.6725C95.8236 93.7661 95.0951 92.6878 94.598 91.4996C94.1009 90.3115 93.845 89.0371 93.845 87.75C93.845 86.4629 94.1009 85.1885 94.598 84.0004C95.0951 82.8122 95.8236 81.7339 96.7413 80.8275C98.5759 79.0116 101.058 77.9923 103.644 77.9923C106.231 77.9923 108.713 79.0116 110.548 80.8275C111.458 81.7414 112.541 82.4667 113.734 82.9617C114.927 83.4567 116.207 83.7115 117.5 83.7115C118.792 83.7115 120.072 83.4567 121.265 82.9617C122.459 82.4667 123.541 81.7414 124.452 80.8275C126.286 79.0116 128.768 77.9923 131.355 77.9923C133.942 77.9923 136.423 79.0116 138.258 80.8275C139.176 81.7339 139.904 82.8122 140.401 84.0004C140.898 85.1885 141.154 86.4629 141.154 87.75C141.154 89.0371 140.898 90.3115 140.401 91.4996C139.904 92.6878 139.176 93.7661 138.258 94.6725V94.6725ZM186.041 19.5H48.958C41.1673 19.5 33.6956 22.5817 28.1867 28.0671C22.6779 33.5526 19.583 40.9924 19.583 48.75V146.25C19.583 154.008 22.6779 161.447 28.1867 166.933C33.6956 172.418 41.1673 175.5 48.958 175.5H162.443L198.673 211.672C199.588 212.576 200.673 213.291 201.866 213.776C203.059 214.261 204.336 214.507 205.625 214.5C206.909 214.533 208.183 214.266 209.346 213.72C211.134 212.989 212.664 211.746 213.745 210.15C214.825 208.554 215.407 206.675 215.416 204.75V48.75C215.416 40.9924 212.321 33.5526 206.813 28.0671C201.304 22.5817 193.832 19.5 186.041 19.5ZM195.833 181.253L173.41 158.828C172.495 157.924 171.41 157.209 170.217 156.724C169.024 156.239 167.747 155.993 166.458 156H48.958C46.3611 156 43.8706 154.973 42.0343 153.144C40.198 151.316 39.1663 148.836 39.1663 146.25V48.75C39.1663 46.1641 40.198 43.6842 42.0343 41.8557C43.8706 40.0272 46.3611 39 48.958 39H186.041C188.638 39 191.129 40.0272 192.965 41.8557C194.801 43.6842 195.833 46.1641 195.833 48.75V181.253Z" fill="#A0B1BF"/>
</svg>
