<svg width="234" height="234" viewBox="0 0 234 234" fill="none" xmlns="http://www.w3.org/2000/svg">
<path d="M180.373 53.6235H141.373C138.787 53.6235 136.307 54.6507 134.479 56.4792C132.65 58.3076 131.623 60.7876 131.623 63.3734C131.623 65.9593 132.65 68.4393 134.479 70.2677C136.307 72.0962 138.787 73.1234 141.373 73.1234H180.373C182.959 73.1234 185.439 74.1507 187.267 75.9792C189.096 77.8076 190.123 80.2876 190.123 82.8734V177.643L174.815 163.506C173.017 161.822 170.649 160.882 168.185 160.873H82.873C80.2871 160.873 77.8072 159.846 75.9787 158.018C74.1502 156.189 73.123 153.709 73.123 151.123V141.373C73.123 138.788 72.0957 136.308 70.2673 134.479C68.4388 132.651 65.9588 131.623 63.373 131.623C60.7871 131.623 58.3072 132.651 56.4787 134.479C54.6502 136.308 53.623 138.788 53.623 141.373V151.123C53.623 158.881 56.7047 166.321 62.1901 171.806C67.6755 177.292 75.1154 180.373 82.873 180.373H164.383L193.633 206.991C195.431 208.674 197.8 209.615 200.263 209.623C201.6 209.609 202.923 209.344 204.163 208.843C205.907 208.082 207.39 206.827 208.43 205.234C209.469 203.64 210.02 201.776 210.013 199.873V82.8734C210.013 78.9992 209.244 75.1636 207.75 71.5891C206.255 68.0147 204.066 64.7727 201.308 62.0515C198.551 59.3302 195.28 57.1838 191.686 55.737C188.092 54.2902 184.247 53.5718 180.373 53.6235V53.6235ZM88.528 121.873H112.123C114.709 121.873 117.189 120.846 119.017 119.018C120.846 117.189 121.873 114.709 121.873 112.123V88.5284C121.88 87.2453 121.634 85.9733 121.149 84.7854C120.664 83.5974 119.949 82.517 119.045 81.6059L64.6405 27.201C62.8137 25.385 60.3425 24.3657 57.7667 24.3657C55.1909 24.3657 52.7197 25.385 50.893 27.201L27.2005 50.8934C25.3845 52.7202 24.3652 55.1914 24.3652 57.7672C24.3652 60.343 25.3845 62.8142 27.2005 64.641L81.6055 119.046C82.5165 119.95 83.597 120.665 84.7849 121.15C85.9728 121.635 87.2448 121.881 88.528 121.873V121.873ZM57.718 47.871L102.373 92.5259V102.276H92.623L47.8705 57.7185L57.718 47.871Z" fill="#A0B1BF"/>
</svg>
