<svg width="235" height="235" viewBox="0 0 235 235" fill="none" xmlns="http://www.w3.org/2000/svg">
<path d="M130.131 69.8149C129.214 70.7251 128.485 71.8081 127.988 73.0013C127.491 74.1945 127.235 75.4743 127.235 76.767C127.235 78.0596 127.491 79.3394 127.988 80.5326C128.485 81.7258 129.214 82.8088 130.131 83.719L148.931 102.519C149.842 103.437 150.925 104.165 152.118 104.662C153.311 105.159 154.591 105.415 155.883 105.415C157.176 105.415 158.456 105.159 159.649 104.662C160.842 104.165 161.925 103.437 162.835 102.519L202.785 62.569C203.856 61.699 204.731 60.6126 205.352 59.3809C205.974 58.1492 206.328 56.8 206.392 55.4219C206.455 54.0438 206.227 52.6677 205.722 51.3839C205.217 50.1002 204.446 48.9377 203.46 47.9726C202.474 47.0075 201.295 46.2617 200.001 45.784C198.707 45.3063 197.326 45.1074 195.95 45.2005C194.573 45.2936 193.232 45.6765 192.014 46.3242C190.796 46.9718 189.728 47.8696 188.881 48.9586L155.883 81.7607L144.035 69.8149C143.125 68.8971 142.042 68.1687 140.849 67.6716C139.656 67.1745 138.376 66.9185 137.083 66.9185C135.791 66.9185 134.511 67.1745 133.318 67.6716C132.125 68.1687 131.042 68.8971 130.131 69.8149V69.8149ZM194.952 104.184C192.37 104.408 189.981 105.647 188.311 107.629C186.641 109.612 185.825 112.175 186.042 114.759C186.091 115.672 186.091 116.587 186.042 117.5C186.042 135.679 178.82 153.113 165.966 165.967C153.112 178.821 135.678 186.042 117.5 186.042H62.7646L69.0313 179.873C70.855 178.039 71.8786 175.557 71.8786 172.97C71.8786 170.383 70.855 167.902 69.0313 166.067C60.2742 157.357 54.0332 146.443 50.9682 134.478C47.9032 122.514 48.1281 109.943 51.6191 98.096C55.1101 86.2487 61.7375 75.5648 70.8005 67.1739C79.8636 58.783 91.0256 52.9969 103.106 50.4274C112.156 48.6179 121.474 48.6179 130.523 50.4274C131.809 50.6846 133.133 50.6859 134.419 50.4315C135.706 50.177 136.929 49.6716 138.02 48.9442C139.111 48.2168 140.049 47.2816 140.778 46.1921C141.508 45.1025 142.016 43.8799 142.273 42.594C142.53 41.3082 142.532 39.9843 142.277 38.6979C142.023 37.4115 141.517 36.1878 140.79 35.0967C140.062 34.0056 139.127 33.0685 138.038 32.3388C136.948 31.6091 135.725 31.1012 134.44 30.844C122.774 28.4966 110.757 28.4966 99.0917 30.844C79.3242 35.1589 61.6285 46.1085 48.9457 61.8729C36.2629 77.6374 29.3567 97.2674 29.375 117.5C29.4573 137.536 36.3647 156.946 48.9584 172.529L32.2146 188.882C30.856 190.258 29.9356 192.007 29.5696 193.906C29.2037 195.806 29.4085 197.771 30.1584 199.554C30.8929 201.343 32.1404 202.873 33.7435 203.954C35.3466 205.034 37.2336 205.616 39.1667 205.625H117.5C140.872 205.625 163.287 196.341 179.814 179.814C196.34 163.287 205.625 140.872 205.625 117.5C205.625 116.032 205.625 114.661 205.625 113.192C205.527 111.896 205.171 110.632 204.579 109.474C203.987 108.317 203.171 107.289 202.177 106.45C201.184 105.612 200.033 104.979 198.793 104.59C197.552 104.201 196.247 104.063 194.952 104.184Z" fill="#38C43D"/>
</svg>
