<svg width="235" height="234" viewBox="0 0 235 234" fill="none" xmlns="http://www.w3.org/2000/svg">
<path d="M186.903 48.3067C186.831 48.2305 186.809 48.1293 186.735 48.0549C186.66 47.9805 186.557 47.9579 186.479 47.8859C168.164 29.7076 143.359 19.5 117.5 19.5C91.64 19.5 66.835 29.7076 48.52 47.8859C48.4429 47.9579 48.3401 47.9799 48.2648 48.0549C48.1895 48.1299 48.1685 48.2304 48.0969 48.3067C34.4498 61.9608 25.1706 79.3343 21.4304 98.2347C17.6902 117.135 19.6566 136.715 27.0814 154.504C34.5062 172.292 47.0566 187.492 63.1488 198.185C79.241 208.878 98.1536 214.585 117.5 214.585C136.846 214.585 155.758 208.878 171.851 198.185C187.943 187.492 200.493 172.292 207.918 154.504C215.343 136.715 217.309 117.135 213.569 98.2347C209.829 79.3343 200.55 61.9608 186.903 48.3067V48.3067ZM117.499 195C105.771 194.996 94.1947 192.365 83.6266 187.302C73.0584 182.239 63.7696 174.873 56.4482 165.75H95.7644C98.4873 168.815 101.833 171.269 105.58 172.95C109.327 174.631 113.39 175.5 117.499 175.5C121.609 175.5 125.672 174.631 129.419 172.95C133.165 171.269 136.511 168.815 139.234 165.75H178.551C171.229 174.873 161.94 182.239 151.372 187.302C140.804 192.365 129.227 194.996 117.499 195V195ZM107.708 146.25C107.708 144.322 108.282 142.437 109.358 140.833C110.434 139.23 111.963 137.98 113.752 137.242C115.541 136.504 117.51 136.311 119.409 136.687C121.309 137.064 123.054 137.992 124.423 139.356C125.792 140.719 126.725 142.457 127.103 144.348C127.481 146.239 127.287 148.2 126.546 149.981C125.804 151.763 124.549 153.285 122.939 154.357C121.329 155.428 119.436 156 117.499 156C114.903 155.997 112.414 154.969 110.578 153.141C108.743 151.314 107.71 148.835 107.708 146.25V146.25ZM190.058 146.27L189.957 146.25H146.874C146.856 140.221 144.963 134.345 141.457 129.43C137.95 124.514 133.002 120.8 127.291 118.797V87.75C127.291 85.1641 126.259 82.6842 124.423 80.8557C122.587 79.0272 120.096 78 117.499 78C114.902 78 112.412 79.0272 110.575 80.8557C108.739 82.6842 107.708 85.1641 107.708 87.75V118.797C101.996 120.8 97.048 124.514 93.5416 129.43C90.0353 134.345 88.1429 140.221 88.1242 146.25H45.0419L44.9408 146.27C42.394 140.013 40.6811 133.45 39.846 126.75H48.9576C51.5545 126.75 54.045 125.723 55.8813 123.894C57.7176 122.066 58.7492 119.586 58.7492 117C58.7492 114.414 57.7176 111.934 55.8813 110.106C54.045 108.277 51.5545 107.25 48.9576 107.25H39.846C41.5957 93.3911 47.0732 80.2603 55.6995 69.2456L62.1103 75.6292C63.0195 76.5345 64.0988 77.2526 65.2866 77.7425C66.4745 78.2324 67.7476 78.4846 69.0334 78.4846C70.3191 78.4846 71.5922 78.2324 72.7801 77.7425C73.9679 77.2525 75.0472 76.5344 75.9564 75.6291C76.8655 74.7239 77.5867 73.6491 78.0787 72.4663C78.5707 71.2835 78.824 70.0158 78.824 68.7356C78.824 67.4553 78.5707 66.1876 78.0787 65.0048C77.5866 63.822 76.8655 62.7473 75.9563 61.842L69.5461 55.4591C80.6071 46.8723 93.7918 41.4196 107.708 39.6772V48.75C107.708 51.3359 108.739 53.8158 110.575 55.6443C112.412 57.4728 114.902 58.5 117.499 58.5C120.096 58.5 122.587 57.4728 124.423 55.6443C126.259 53.8158 127.291 51.3359 127.291 48.75V39.6772C141.207 41.4196 154.391 46.8723 165.452 55.4591L159.042 61.842C157.206 63.6703 156.174 66.15 156.174 68.7356C156.174 71.3211 157.206 73.8008 159.042 75.6291C160.878 77.4574 163.368 78.4846 165.965 78.4846C168.562 78.4846 171.052 77.4575 172.888 75.6292L179.299 69.2456C187.925 80.2603 193.403 93.3911 195.152 107.25H186.041C183.444 107.25 180.953 108.277 179.117 110.106C177.281 111.934 176.249 114.414 176.249 117C176.249 119.586 177.281 122.066 179.117 123.894C180.953 125.723 183.444 126.75 186.041 126.75H195.152C194.317 133.45 192.604 140.013 190.058 146.27V146.27Z" fill="#38C43D"/>
</svg>
