<svg width="234" height="234" viewBox="0 0 234 234" fill="none" xmlns="http://www.w3.org/2000/svg">
<path d="M78 165.75C76.0716 165.75 74.1866 166.322 72.5832 167.393C70.9798 168.465 69.7301 169.987 68.9922 171.769C68.2542 173.55 68.0611 175.511 68.4373 177.402C68.8135 179.293 69.7421 181.031 71.1057 182.394C72.4693 183.758 74.2066 184.686 76.0979 185.063C77.9892 185.439 79.9496 185.246 81.7312 184.508C83.5127 183.77 85.0355 182.52 86.1068 180.917C87.1782 179.313 87.75 177.428 87.75 175.5C87.75 172.914 86.7228 170.434 84.8943 168.606C83.0658 166.777 80.5859 165.75 78 165.75V165.75ZM78 107.25C76.0716 107.25 74.1866 107.822 72.5832 108.893C70.9798 109.965 69.7301 111.487 68.9922 113.269C68.2542 115.05 68.0611 117.011 68.4373 118.902C68.8135 120.793 69.7421 122.531 71.1057 123.894C72.4693 125.258 74.2066 126.186 76.0979 126.563C77.9892 126.939 79.9496 126.746 81.7312 126.008C83.5127 125.27 85.0355 124.02 86.1068 122.417C87.1782 120.813 87.75 118.928 87.75 117C87.75 114.414 86.7228 111.934 84.8943 110.106C83.0658 108.277 80.5859 107.25 78 107.25V107.25ZM156 19.5H78C67.6566 19.5 57.7368 23.6089 50.4228 30.9228C43.1089 38.2368 39 48.1566 39 58.5V175.5C39 185.843 43.1089 195.763 50.4228 203.077C57.7368 210.391 67.6566 214.5 78 214.5H156C166.343 214.5 176.263 210.391 183.577 203.077C190.891 195.763 195 185.843 195 175.5V58.5C195 48.1566 190.891 38.2368 183.577 30.9228C176.263 23.6089 166.343 19.5 156 19.5ZM175.5 175.5C175.5 180.672 173.446 185.632 169.789 189.289C166.132 192.946 161.172 195 156 195H78C72.8283 195 67.8684 192.946 64.2114 189.289C60.5545 185.632 58.5 180.672 58.5 175.5V150.54C64.3889 154.085 71.1266 155.971 78 156H156C162.873 155.971 169.611 154.085 175.5 150.54V175.5ZM175.5 117C175.5 122.172 173.446 127.132 169.789 130.789C166.132 134.446 161.172 136.5 156 136.5H78C72.8283 136.5 67.8684 134.446 64.2114 130.789C60.5545 127.132 58.5 122.172 58.5 117V92.04C64.3889 95.5846 71.1266 97.4712 78 97.5H156C162.873 97.4712 169.611 95.5846 175.5 92.04V117ZM156 78H78C72.8283 78 67.8684 75.9455 64.2114 72.2886C60.5545 68.6316 58.5 63.6717 58.5 58.5C58.5 53.3283 60.5545 48.3684 64.2114 44.7114C67.8684 41.0545 72.8283 39 78 39H156C161.172 39 166.132 41.0545 169.789 44.7114C173.446 48.3684 175.5 53.3283 175.5 58.5C175.5 63.6717 173.446 68.6316 169.789 72.2886C166.132 75.9455 161.172 78 156 78V78Z" fill="#38C43D"/>
</svg>
