<svg width="234" height="234" viewBox="0 0 234 234" fill="none" xmlns="http://www.w3.org/2000/svg">
<path d="M185.25 19.5H48.75C40.9924 19.5 33.5526 22.5817 28.0671 28.0671C22.5817 33.5526 19.5 40.9924 19.5 48.75V146.25C19.5 154.008 22.5817 161.447 28.0671 166.933C33.5526 172.418 40.9924 175.5 48.75 175.5H78V195H48.75C46.1641 195 43.6842 196.027 41.8557 197.856C40.0272 199.684 39 202.164 39 204.75C39 207.336 40.0272 209.816 41.8557 211.644C43.6842 213.473 46.1641 214.5 48.75 214.5H185.25C187.836 214.5 190.316 213.473 192.144 211.644C193.973 209.816 195 207.336 195 204.75C195 202.164 193.973 199.684 192.144 197.856C190.316 196.027 187.836 195 185.25 195H156V175.5H185.25C193.008 175.5 200.447 172.418 205.933 166.933C211.418 161.447 214.5 154.008 214.5 146.25V48.75C214.5 40.9924 211.418 33.5526 205.933 28.0671C200.447 22.5817 193.008 19.5 185.25 19.5ZM136.5 195H97.5V175.5H136.5V195ZM195 146.25C195 148.836 193.973 151.316 192.144 153.144C190.316 154.973 187.836 156 185.25 156H48.75C46.1641 156 43.6842 154.973 41.8557 153.144C40.0272 151.316 39 148.836 39 146.25V136.5H195V146.25ZM195 117H39V48.75C39 46.1641 40.0272 43.6842 41.8557 41.8557C43.6842 40.0272 46.1641 39 48.75 39H185.25C187.836 39 190.316 40.0272 192.144 41.8557C193.973 43.6842 195 46.1641 195 48.75V117Z" fill="#A0B1BF"/>
</svg>
