<svg width="164" height="51" viewBox="0 0 164 51" fill="none" xmlns="http://www.w3.org/2000/svg">
<path d="M45 37.6066V14.6557H60.175V18.0328H49.2503V24.3279H59.1788V27.6066H49.2503V34.2295H60.175V37.6066H45Z" fill="#101113"/>
<path d="M62.7323 37.6066V21.3443H66.4845L66.8498 23.541C67.3811 22.7541 68.0784 22.1311 68.9417 21.6721C69.8272 21.1913 70.8455 20.9508 71.9967 20.9508C74.5424 20.9508 76.3466 21.9235 77.4092 23.8689C78.0069 22.9727 78.8038 22.2623 79.8 21.7377C80.8183 21.2131 81.9252 20.9508 83.1206 20.9508C85.2679 20.9508 86.9171 21.5847 88.0682 22.8525C89.2193 24.1202 89.7949 25.9781 89.7949 28.4262V37.6066H85.5446V28.8197C85.5446 27.4208 85.2679 26.3497 84.7144 25.6066C84.1831 24.8634 83.353 24.4918 82.224 24.4918C81.0729 24.4918 80.1431 24.9071 79.4347 25.7377C78.7485 26.5683 78.4054 27.7268 78.4054 29.2131V37.6066H74.155V28.8197C74.155 27.4208 73.8783 26.3497 73.3249 25.6066C72.7715 24.8634 71.9192 24.4918 70.7681 24.4918C69.6391 24.4918 68.7204 24.9071 68.012 25.7377C67.3257 26.5683 66.9826 27.7268 66.9826 29.2131V37.6066H62.7323Z" fill="#101113"/>
<path d="M100.099 38C98.4384 38 96.9663 37.6503 95.6823 36.9508C94.3984 36.2514 93.3911 35.2678 92.6606 34C91.9301 32.7322 91.5648 31.2678 91.5648 29.6066C91.5648 27.9235 91.919 26.4262 92.6274 25.1148C93.3579 23.8033 94.3541 22.7869 95.6159 22.0656C96.8998 21.3224 98.4052 20.9508 100.132 20.9508C101.748 20.9508 103.176 21.3005 104.415 22C105.655 22.6995 106.618 23.6612 107.304 24.8852C108.013 26.0874 108.367 27.4317 108.367 28.918C108.367 29.1585 108.356 29.4098 108.334 29.6721C108.334 29.9344 108.323 30.2077 108.3 30.4918H95.7819C95.8705 31.7596 96.3132 32.7541 97.1102 33.4754C97.9292 34.1967 98.9143 34.5574 100.065 34.5574C100.929 34.5574 101.648 34.3716 102.224 34C102.822 33.6066 103.264 33.1038 103.552 32.4918H107.869C107.559 33.5191 107.039 34.459 106.308 35.3115C105.6 36.1421 104.714 36.7978 103.652 37.2787C102.611 37.7596 101.427 38 100.099 38ZM100.132 24.3607C99.0914 24.3607 98.1727 24.6557 97.3758 25.2459C96.5789 25.8142 96.0697 26.6885 95.8483 27.8689H104.05C103.984 26.7978 103.585 25.9454 102.855 25.3115C102.124 24.6776 101.217 24.3607 100.132 24.3607Z" fill="#101113"/>
<path d="M110.208 37.6066V21.3443H114.362L114.392 24.3934C114.989 23.3443 115.797 22.5137 116.816 21.9016C117.856 21.2678 119.074 20.9508 120.468 20.9508V25.377H119.273C118.343 25.377 117.513 25.5191 116.782 25.8033C116.052 26.0874 115.476 26.5792 115.056 27.2787C114.657 27.9781 114.458 28.9508 114.458 30.1967V37.6066H110.208Z" fill="#101113"/>
<path d="M127.686 38C126.269 38 125.107 37.7814 124.2 37.3443C123.292 36.8852 122.617 36.2842 122.174 35.541C121.731 34.7978 121.51 33.9781 121.51 33.082C121.51 31.5738 122.108 30.3497 123.303 29.4098C124.498 28.4699 126.292 28 128.682 28H132.866V27.6066C132.866 26.4918 132.545 25.6721 131.903 25.1475C131.261 24.623 130.464 24.3607 129.512 24.3607C128.649 24.3607 127.896 24.5683 127.254 24.9836C126.613 25.377 126.214 25.9672 126.059 26.7541H121.908C122.019 25.5738 122.418 24.5464 123.104 23.6721C123.812 22.7978 124.72 22.1311 125.827 21.6721C126.933 21.1913 128.173 20.9508 129.546 20.9508C131.892 20.9508 133.741 21.5301 135.091 22.6885C136.441 23.847 137.117 25.4863 137.117 27.6066V37.6066H133.497L133.099 34.9836C132.612 35.8579 131.925 36.5792 131.04 37.1475C130.177 37.7158 129.059 38 127.686 38ZM128.649 34.7213C129.867 34.7213 130.807 34.3279 131.472 33.541C132.158 32.7541 132.59 31.7814 132.767 30.623H129.147C128.018 30.623 127.21 30.8306 126.723 31.2459C126.236 31.6393 125.993 32.1311 125.993 32.7213C125.993 33.3552 126.236 33.847 126.723 34.1967C127.21 34.5464 127.852 34.7213 128.649 34.7213Z" fill="#101113"/>
<path d="M139.807 37.6066V18.2503C139.807 15.9029 141.71 14 144.058 14V14V37.6066H139.807Z" fill="#101113"/>
<path d="M154.238 38C152.688 38 151.304 37.6284 150.087 36.8852C148.869 36.1421 147.906 35.1257 147.198 33.8361C146.49 32.5464 146.135 31.082 146.135 29.4426C146.135 27.8033 146.49 26.3497 147.198 25.082C147.906 23.7923 148.869 22.7869 150.087 22.0656C151.304 21.3224 152.688 20.9508 154.238 20.9508C155.477 20.9508 156.562 21.1803 157.492 21.6393C158.421 22.0984 159.174 22.7432 159.75 23.5738V18.2503C159.75 15.9029 161.653 14 164 14V14V37.6066H160.215L159.75 35.2787C159.218 36 158.51 36.6339 157.625 37.1803C156.761 37.7268 155.632 38 154.238 38ZM155.134 34.3279C156.507 34.3279 157.625 33.8798 158.488 32.9836C159.373 32.0656 159.816 30.8962 159.816 29.4754C159.816 28.0546 159.373 26.8962 158.488 26C157.625 25.082 156.507 24.623 155.134 24.623C153.784 24.623 152.666 25.071 151.78 25.9672C150.895 26.8634 150.452 28.0219 150.452 29.4426C150.452 30.8634 150.895 32.0328 151.78 32.9508C152.666 33.8689 153.784 34.3279 155.134 34.3279Z" fill="#101113"/>
<path d="M26.5558 4.00601L26.4914 3.73609L22.9151 3.05603L3.71762 30.7828L14.8997 47.3382L17.6937 47.8695L34.1719 36.574L26.5558 4.00601ZM31.1358 34.8801L25.9834 35.7899L25.7385 10.4353L31.1358 34.8801ZM11.4112 35.8245L14.872 43.5539L7.82842 33.2537L11.4112 35.8245ZM13.9638 33.9909L23.6209 9.08782L23.4633 35.7973L13.9638 33.9909ZM22.2361 38.1406L16.9902 43.9567L14.2453 36.6211L22.2361 38.1406ZM29.8665 37.4444L19.2313 44.3829L25.3567 38.4763L29.8665 37.4444ZM21.1564 9.56394L11.6277 33.0314L7.19673 30.2993L21.1564 9.56394Z" fill="#3AC63F" stroke="#3AC63F" stroke-width="0.4"/>
</svg>
