<svg width="233" height="234" viewBox="0 0 233 234" fill="none" xmlns="http://www.w3.org/2000/svg">
<path d="M158.149 84.9243C159.052 85.8382 160.125 86.5635 161.308 87.0585C162.491 87.5535 163.76 87.8083 165.042 87.8083C166.324 87.8083 167.593 87.5535 168.776 87.0585C169.959 86.5635 171.032 85.8382 171.935 84.9243L210.768 45.9243C212.596 44.0883 213.623 41.5982 213.623 39.0018C213.623 36.4054 212.596 33.9153 210.768 32.0793C208.94 30.2433 206.461 29.2119 203.875 29.2119C201.29 29.2119 198.811 30.2433 196.982 32.0793L165.042 64.2543L152.518 51.5793C151.613 50.6702 150.538 49.9491 149.356 49.4571C148.173 48.9651 146.905 48.7119 145.625 48.7119C143.04 48.7119 140.561 49.7433 138.732 51.5793C137.827 52.4884 137.109 53.5676 136.619 54.7554C136.129 55.9431 135.877 57.2162 135.877 58.5018C135.877 61.0982 136.904 63.5883 138.732 65.4243L158.149 84.9243ZM203.875 78.0018C201.301 78.0018 198.831 79.029 197.011 80.8575C195.19 82.686 194.167 85.1659 194.167 87.7518V175.502C194.167 178.088 193.144 180.568 191.324 182.396C189.503 184.225 187.033 185.252 184.459 185.252H48.542C45.9672 185.252 43.4978 184.225 41.6772 182.396C39.8565 180.568 38.8337 178.088 38.8337 175.502V81.9993L95.9187 139.427C101.367 144.854 108.729 147.903 116.403 147.909C124.271 147.869 131.805 144.716 137.373 139.134L154.072 122.364C155.9 120.528 156.927 118.038 156.927 115.442C156.927 112.845 155.9 110.355 154.072 108.519C152.243 106.683 149.764 105.652 147.179 105.652C144.593 105.652 142.114 106.683 140.286 108.519L123.296 125.582C121.481 127.368 119.042 128.369 116.5 128.369C113.959 128.369 111.519 127.368 109.704 125.582L52.5224 68.2518H106.792C109.367 68.2518 111.836 67.2246 113.657 65.3961C115.477 63.5676 116.5 61.0877 116.5 58.5018C116.5 55.9159 115.477 53.436 113.657 51.6075C111.836 49.779 109.367 48.7518 106.792 48.7518H48.542C40.8176 48.7518 33.4095 51.8335 27.9475 57.3189C22.4855 62.8044 19.417 70.2442 19.417 78.0018V175.502C19.417 183.259 22.4855 190.699 27.9475 196.185C33.4095 201.67 40.8176 204.752 48.542 204.752H184.459C192.183 204.752 199.591 201.67 205.053 196.185C210.515 190.699 213.584 183.259 213.584 175.502V87.7518C213.584 85.1659 212.561 82.686 210.74 80.8575C208.92 79.029 206.45 78.0018 203.875 78.0018Z" fill="#A0B1BF"/>
</svg>
