<svg width="223" height="223" viewBox="0 0 223 223" fill="none" xmlns="http://www.w3.org/2000/svg">
<path d="M111.5 185.834H46.458C43.9937 185.834 41.6303 184.855 39.8878 183.113C38.1453 181.37 37.1663 179.007 37.1663 176.542V46.459C37.1663 43.9947 38.1453 41.6313 39.8878 39.8888C41.6303 38.1463 43.9937 37.1673 46.458 37.1673H92.9163V65.0423C92.9163 72.4352 95.8532 79.5253 101.081 84.7529C106.308 89.9805 113.398 92.9173 120.791 92.9173H148.666V102.209C148.666 104.673 149.645 107.037 151.388 108.779C153.13 110.522 155.494 111.501 157.958 111.501C160.422 111.501 162.786 110.522 164.528 108.779C166.271 107.037 167.25 104.673 167.25 102.209V83.6257C167.25 83.6257 167.25 83.6256 167.25 83.0681C167.153 82.2146 166.966 81.3736 166.692 80.5594V79.7232C166.245 78.7678 165.65 77.8896 164.927 77.1215V77.1215L109.177 21.3715C108.409 20.6487 107.53 20.0528 106.575 19.6061C106.298 19.5667 106.016 19.5667 105.739 19.6061C104.795 19.0647 103.753 18.7173 102.673 18.584H46.458C39.0651 18.584 31.975 21.5208 26.7474 26.7484C21.5198 31.976 18.583 39.0661 18.583 46.459V176.542C18.583 183.935 21.5198 191.025 26.7474 196.253C31.975 201.481 39.0651 204.417 46.458 204.417H111.5C113.964 204.417 116.327 203.438 118.07 201.696C119.812 199.953 120.791 197.59 120.791 195.126C120.791 192.661 119.812 190.298 118.07 188.555C116.327 186.813 113.964 185.834 111.5 185.834ZM111.5 50.2686L135.565 74.334H120.791C118.327 74.334 115.964 73.355 114.221 71.6125C112.479 69.87 111.5 67.5066 111.5 65.0423V50.2686ZM65.0413 74.334C62.577 74.334 60.2137 75.3129 58.4711 77.0555C56.7286 78.798 55.7497 81.1613 55.7497 83.6257C55.7497 86.09 56.7286 88.4533 58.4711 90.1959C60.2137 91.9384 62.577 92.9173 65.0413 92.9173H74.333C76.7973 92.9173 79.1607 91.9384 80.9032 90.1959C82.6457 88.4533 83.6247 86.09 83.6247 83.6257C83.6247 81.1613 82.6457 78.798 80.9032 77.0555C79.1607 75.3129 76.7973 74.334 74.333 74.334H65.0413ZM201.722 188.529L190.851 177.75C194.325 171.685 195.716 164.648 194.81 157.717C193.904 150.786 190.75 144.344 185.833 139.376V139.376C181.308 134.69 175.477 131.475 169.099 130.15C162.721 128.826 156.092 129.453 150.075 131.95C144.059 134.446 138.934 138.697 135.368 144.149C131.802 149.6 129.96 155.999 130.083 162.512C130.051 168.117 131.485 173.632 134.242 178.512C136.999 183.391 140.985 187.465 145.802 190.329C150.62 193.194 156.102 194.749 161.706 194.84C167.31 194.932 172.841 193.557 177.749 190.851L188.528 201.723C189.391 202.594 190.419 203.285 191.551 203.757C192.684 204.228 193.898 204.471 195.125 204.471C196.351 204.471 197.566 204.228 198.698 203.757C199.83 203.285 200.858 202.594 201.722 201.723C202.593 200.859 203.284 199.831 203.756 198.699C204.227 197.567 204.47 196.352 204.47 195.126C204.47 193.899 204.227 192.685 203.756 191.552C203.284 190.42 202.593 189.392 201.722 188.529V188.529ZM172.267 172.268C169.613 174.764 166.107 176.153 162.464 176.153C158.821 176.153 155.316 174.764 152.662 172.268C150.104 169.665 148.669 166.162 148.666 162.512C148.647 160.679 148.999 158.862 149.702 157.169C150.405 155.476 151.443 153.943 152.755 152.663C155.232 150.199 158.554 148.77 162.046 148.667C163.925 148.552 165.807 148.826 167.575 149.472C169.342 150.118 170.957 151.123 172.318 152.423C173.679 153.723 174.757 155.29 175.484 157.026C176.21 158.762 176.57 160.63 176.541 162.512C176.464 166.202 174.927 169.71 172.267 172.268V172.268ZM120.791 111.501H65.0413C62.577 111.501 60.2137 112.48 58.4711 114.222C56.7286 115.965 55.7497 118.328 55.7497 120.792C55.7497 123.257 56.7286 125.62 58.4711 127.363C60.2137 129.105 62.577 130.084 65.0413 130.084H120.791C123.256 130.084 125.619 129.105 127.362 127.363C129.104 125.62 130.083 123.257 130.083 120.792C130.083 118.328 129.104 115.965 127.362 114.222C125.619 112.48 123.256 111.501 120.791 111.501ZM102.208 167.251C104.672 167.251 107.036 166.272 108.778 164.529C110.521 162.787 111.5 160.423 111.5 157.959C111.5 155.495 110.521 153.131 108.778 151.389C107.036 149.646 104.672 148.667 102.208 148.667H65.0413C62.577 148.667 60.2137 149.646 58.4711 151.389C56.7286 153.131 55.7497 155.495 55.7497 157.959C55.7497 160.423 56.7286 162.787 58.4711 164.529C60.2137 166.272 62.577 167.251 65.0413 167.251H102.208Z" fill="#A0B1BF"/>
</svg>
