<svg width="223" height="224" viewBox="0 0 223 224" fill="none" xmlns="http://www.w3.org/2000/svg">
<path d="M118.098 100.707C117.214 99.8568 116.172 99.1908 115.031 98.7466C112.769 97.813 110.232 97.813 107.97 98.7466C106.829 99.1908 105.787 99.8568 104.904 100.707L86.3202 119.373C84.5706 121.131 83.5876 123.514 83.5876 126C83.5876 128.485 84.5706 130.869 86.3202 132.627C88.0699 134.384 90.4429 135.371 92.9173 135.371C95.3917 135.371 97.7647 134.384 99.5144 132.627L102.209 129.827V154C102.209 156.475 103.188 158.849 104.93 160.6C106.673 162.35 109.036 163.333 111.501 163.333C113.965 163.333 116.328 162.35 118.071 160.6C119.813 158.849 120.792 156.475 120.792 154V129.827L123.487 132.627C124.351 133.501 125.378 134.196 126.511 134.67C127.643 135.143 128.857 135.387 130.084 135.387C131.311 135.387 132.525 135.143 133.657 134.67C134.79 134.196 135.817 133.501 136.681 132.627C137.552 131.759 138.243 130.727 138.715 129.589C139.187 128.452 139.43 127.232 139.43 126C139.43 124.768 139.187 123.548 138.715 122.411C138.243 121.273 137.552 120.241 136.681 119.373L118.098 100.707ZM176.542 51.3332H118.191L115.217 41.9999C113.29 36.5234 109.714 31.7846 104.986 28.4401C100.258 25.0955 94.6117 23.3108 88.829 23.3332H46.459C39.0661 23.3332 31.976 26.2832 26.7484 31.5342C21.5208 36.7852 18.584 43.9072 18.584 51.3332V172.667C18.584 180.093 21.5208 187.215 26.7484 192.466C31.976 197.717 39.0661 200.667 46.459 200.667H176.542C183.935 200.667 191.025 197.717 196.253 192.466C201.481 187.215 204.417 180.093 204.417 172.667V79.3332C204.417 71.9072 201.481 64.7852 196.253 59.5342C191.025 54.2832 183.935 51.3332 176.542 51.3332ZM185.834 172.667C185.834 175.142 184.855 177.516 183.113 179.266C181.37 181.017 179.007 182 176.542 182H46.459C43.9947 182 41.6313 181.017 39.8888 179.266C38.1463 177.516 37.1673 175.142 37.1673 172.667V51.3332C37.1673 48.8579 38.1463 46.4839 39.8888 44.7336C41.6313 42.9832 43.9947 41.9999 46.459 41.9999H88.829C90.7769 41.9948 92.6772 42.6049 94.2612 43.7437C95.8451 44.8826 97.0327 46.4928 97.6561 48.3466L102.674 63.6532C103.297 65.507 104.484 67.1171 106.068 68.256C107.652 69.3949 109.553 70.0049 111.501 69.9999H176.542C179.007 69.9999 181.37 70.9832 183.113 72.7336C184.855 74.4839 185.834 76.8579 185.834 79.3332V172.667Z" fill="#38C43D"/>
</svg>
