<svg width="223" height="222" viewBox="0 0 223 222" fill="none" xmlns="http://www.w3.org/2000/svg">
<path d="M195.124 166.501H137.701C136.314 162.622 134.076 159.098 131.152 156.187C128.227 153.275 124.687 151.047 120.79 149.666V129.501H154.891C160.625 129.477 166.118 127.198 170.172 123.162C174.227 119.125 176.516 113.657 176.54 107.949V58.5538C176.516 52.8452 174.227 47.3774 170.172 43.3408C166.118 39.3042 160.625 37.0256 154.891 37.0013H117.724L116.516 33.2088C115.083 28.9902 112.378 25.3143 108.77 22.6822C105.162 20.0502 100.826 18.5902 96.3533 18.5013H68.4783C65.6075 18.4646 62.7578 18.9944 60.0937 20.0599C57.4296 21.1254 55.0038 22.7057 52.9565 24.7095C50.9091 26.7133 49.2807 29.1009 48.1651 31.7345C47.0496 34.3681 46.4691 37.1956 46.457 40.0538V107.949C46.4815 113.657 48.7703 119.125 52.8251 123.162C56.8799 127.198 62.3723 129.477 68.1066 129.501H102.207V149.666C98.3101 151.047 94.7709 153.275 91.8459 156.187C88.921 159.098 86.6836 162.622 85.2962 166.501H27.8737C25.4094 166.501 23.046 167.476 21.3035 169.211C19.561 170.945 18.582 173.298 18.582 175.751C18.582 178.205 19.561 180.557 21.3035 182.292C23.046 184.027 25.4094 185.001 27.8737 185.001H85.2962C87.2494 190.358 90.812 194.987 95.5 198.258C100.188 201.529 105.774 203.284 111.499 203.284C117.223 203.284 122.809 201.529 127.497 198.258C132.185 194.987 135.748 190.358 137.701 185.001H195.124C197.588 185.001 199.951 184.027 201.694 182.292C203.436 180.557 204.415 178.205 204.415 175.751C204.415 173.298 203.436 170.945 201.694 169.211C199.951 167.476 197.588 166.501 195.124 166.501ZM68.1066 111.001C67.2934 111.001 66.5135 110.68 65.9385 110.107C65.3634 109.535 65.0404 108.758 65.0404 107.949V40.0538C65.0404 39.2442 65.3634 38.4678 65.9385 37.8954C66.5135 37.3229 67.2934 37.0013 68.1066 37.0013H95.9816C96.6412 36.9903 97.2867 37.1914 97.8223 37.5747C98.358 37.958 98.7552 38.503 98.955 39.1288L102.3 49.2113C102.942 51.11 104.186 52.7499 105.845 53.8842C107.504 55.0185 109.488 55.586 111.499 55.5013H154.891C155.704 55.5013 156.484 55.8229 157.059 56.3954C157.634 56.9678 157.957 57.7442 157.957 58.5538V107.949C157.957 108.758 157.634 109.535 157.059 110.107C156.484 110.68 155.704 111.001 154.891 111.001H68.1066ZM111.499 185.001C109.661 185.001 107.865 184.459 106.337 183.442C104.809 182.426 103.618 180.981 102.914 179.291C102.211 177.601 102.027 175.741 102.386 173.947C102.744 172.152 103.629 170.504 104.929 169.211C106.228 167.917 107.884 167.036 109.686 166.679C111.488 166.322 113.357 166.505 115.054 167.205C116.752 167.906 118.203 169.091 119.224 170.612C120.245 172.133 120.79 173.922 120.79 175.751C120.79 178.205 119.811 180.557 118.069 182.292C116.326 184.027 113.963 185.001 111.499 185.001Z" fill="#A0B1BF"/>
</svg>
