<svg width="721" height="653" viewBox="0 0 721 653" fill="none" xmlns="http://www.w3.org/2000/svg">
<path d="M502 412.434C502 442.504 526.365 466.869 556.434 466.869C586.504 466.869 610.869 442.504 610.869 412.434C610.869 382.365 586.504 358 556.434 358C526.365 358.04 502 382.365 502 412.434Z" fill="#6DDB6E"/>
<path d="M590.03 407.007C590.03 385.97 579.809 367.746 564.873 358.673C590.941 362.714 610.869 385.257 610.869 412.434C610.869 442.504 586.504 466.869 556.434 466.869C545.025 466.869 534.407 463.343 525.652 457.321C531.119 459.936 537.101 461.402 543.4 461.402C569.152 461.402 590.03 437.037 590.03 407.007Z" fill="#3AC63F"/>
<ellipse cx="519.904" cy="397.168" rx="7.53766" ry="11.5947" transform="rotate(21.7125 519.904 397.168)" fill="#9DE79E"/>
<g filter="url(#filter0_d)">
<rect x="158" y="158" width="404.532" height="337.11" rx="20.7452" fill="white"/>
<rect x="187.525" y="187.525" width="161.369" height="42.0836" rx="7" stroke="#E0E9EF" stroke-width="2"/>
<rect x="369.045" y="187.525" width="163.962" height="42.0836" rx="7" stroke="#E0E9EF" stroke-width="2"/>
<rect x="187.525" y="249.76" width="345.483" height="42.0836" rx="7" stroke="#E0E9EF" stroke-width="2"/>
<rect x="187.525" y="313.589" width="345.483" height="91.3535" rx="7" stroke="#E0E9EF" stroke-width="2"/>
<path d="M203.463 201.937H212.412V203.897H205.732V207.292H211.595V209.143H205.732V214.897H203.463V201.937Z" fill="#C8CFD4"/>
<path d="M213.987 201.937H216.057V203.897H213.987V201.937ZM213.987 205.513H216.057V214.897H213.987V205.513Z" fill="#C8CFD4"/>
<path d="M218.311 205.513H220.254V207.328H220.29C220.35 207.074 220.465 206.826 220.635 206.584C220.816 206.342 221.028 206.124 221.27 205.93C221.524 205.725 221.803 205.561 222.105 205.44C222.408 205.319 222.716 205.259 223.031 205.259C223.273 205.259 223.436 205.265 223.521 205.277C223.618 205.289 223.715 205.301 223.811 205.313V207.31C223.666 207.286 223.515 207.267 223.358 207.255C223.212 207.231 223.067 207.219 222.922 207.219C222.571 207.219 222.238 207.292 221.924 207.437C221.621 207.57 221.355 207.776 221.125 208.054C220.895 208.32 220.713 208.653 220.58 209.052C220.447 209.452 220.381 209.912 220.381 210.432V214.897H218.311V205.513Z" fill="#C8CFD4"/>
<path d="M226.254 211.884C226.314 212.489 226.544 212.913 226.944 213.155C227.343 213.397 227.821 213.518 228.378 213.518C228.571 213.518 228.789 213.506 229.031 213.481C229.285 213.445 229.521 213.385 229.739 213.3C229.957 213.215 230.132 213.094 230.266 212.937C230.411 212.768 230.477 212.55 230.465 212.283C230.453 212.017 230.356 211.799 230.175 211.63C229.993 211.461 229.757 211.327 229.467 211.231C229.189 211.122 228.868 211.031 228.505 210.958C228.142 210.886 227.773 210.807 227.398 210.722C227.01 210.638 226.635 210.535 226.272 210.414C225.921 210.293 225.6 210.129 225.31 209.924C225.032 209.718 224.808 209.458 224.638 209.143C224.469 208.816 224.384 208.417 224.384 207.945C224.384 207.437 224.505 207.013 224.747 206.674C225.001 206.324 225.316 206.045 225.691 205.839C226.078 205.622 226.502 205.47 226.962 205.386C227.434 205.301 227.882 205.259 228.305 205.259C228.789 205.259 229.249 205.313 229.685 205.422C230.132 205.519 230.532 205.682 230.883 205.912C231.246 206.142 231.542 206.445 231.772 206.82C232.014 207.183 232.165 207.624 232.226 208.145H230.066C229.969 207.649 229.739 207.316 229.376 207.146C229.025 206.977 228.62 206.892 228.16 206.892C228.015 206.892 227.839 206.904 227.634 206.929C227.44 206.953 227.252 207.001 227.071 207.074C226.901 207.134 226.756 207.231 226.635 207.364C226.514 207.485 226.454 207.649 226.454 207.854C226.454 208.108 226.538 208.314 226.708 208.472C226.889 208.629 227.119 208.762 227.398 208.871C227.688 208.968 228.015 209.052 228.378 209.125C228.741 209.198 229.116 209.276 229.503 209.361C229.878 209.446 230.247 209.549 230.61 209.67C230.973 209.791 231.294 209.954 231.573 210.16C231.863 210.365 232.093 210.626 232.262 210.94C232.444 211.255 232.535 211.642 232.535 212.102C232.535 212.659 232.408 213.131 232.153 213.518C231.899 213.905 231.566 214.22 231.155 214.462C230.756 214.704 230.308 214.879 229.812 214.988C229.316 215.097 228.825 215.151 228.341 215.151C227.748 215.151 227.198 215.085 226.69 214.952C226.193 214.819 225.758 214.619 225.383 214.353C225.02 214.074 224.729 213.736 224.511 213.336C224.306 212.925 224.197 212.441 224.185 211.884H226.254Z" fill="#C8CFD4"/>
<path d="M233.162 205.513H234.723V202.699H236.792V205.513H238.662V207.056H236.792V212.066C236.792 212.283 236.798 212.471 236.81 212.628C236.835 212.786 236.877 212.919 236.937 213.028C237.01 213.137 237.113 213.221 237.246 213.282C237.379 213.33 237.561 213.354 237.791 213.354C237.936 213.354 238.081 213.354 238.226 213.354C238.371 213.342 238.517 213.318 238.662 213.282V214.879C238.432 214.903 238.208 214.928 237.99 214.952C237.772 214.976 237.549 214.988 237.319 214.988C236.774 214.988 236.332 214.94 235.994 214.843C235.667 214.734 235.407 214.583 235.213 214.389C235.031 214.183 234.904 213.929 234.832 213.627C234.771 213.324 234.735 212.979 234.723 212.592V207.056H233.162V205.513Z" fill="#C8CFD4"/>
<path d="M245.203 205.513H247.163V206.892L247.199 206.929C247.514 206.408 247.925 206.003 248.434 205.712C248.942 205.41 249.505 205.259 250.122 205.259C251.15 205.259 251.961 205.525 252.554 206.057C253.147 206.59 253.444 207.388 253.444 208.453V214.897H251.374V208.998C251.35 208.26 251.193 207.727 250.902 207.401C250.612 207.062 250.158 206.892 249.541 206.892C249.19 206.892 248.875 206.959 248.597 207.092C248.319 207.213 248.083 207.388 247.889 207.618C247.695 207.836 247.544 208.096 247.435 208.399C247.326 208.701 247.272 209.022 247.272 209.361V214.897H245.203V205.513Z" fill="#C8CFD4"/>
<path d="M263.486 212.81C263.486 213.064 263.516 213.246 263.576 213.354C263.649 213.463 263.782 213.518 263.976 213.518C264.036 213.518 264.109 213.518 264.194 213.518C264.278 213.518 264.375 213.506 264.484 213.481V214.916C264.411 214.94 264.315 214.964 264.194 214.988C264.085 215.024 263.97 215.055 263.849 215.079C263.728 215.103 263.607 215.121 263.486 215.133C263.365 215.145 263.262 215.151 263.177 215.151C262.754 215.151 262.403 215.067 262.124 214.897C261.846 214.728 261.664 214.431 261.58 214.008C261.168 214.407 260.66 214.698 260.055 214.879C259.462 215.061 258.887 215.151 258.331 215.151C257.907 215.151 257.502 215.091 257.114 214.97C256.727 214.861 256.382 214.698 256.08 214.48C255.789 214.25 255.553 213.966 255.372 213.627C255.202 213.276 255.118 212.87 255.118 212.411C255.118 211.83 255.22 211.358 255.426 210.995C255.644 210.632 255.922 210.347 256.261 210.142C256.612 209.936 256.999 209.791 257.423 209.706C257.859 209.609 258.294 209.536 258.73 209.488C259.105 209.415 259.462 209.367 259.801 209.343C260.14 209.307 260.436 209.252 260.69 209.179C260.957 209.107 261.162 208.998 261.307 208.853C261.465 208.695 261.543 208.465 261.543 208.163C261.543 207.897 261.477 207.679 261.344 207.509C261.223 207.34 261.065 207.213 260.872 207.128C260.69 207.031 260.485 206.971 260.255 206.947C260.025 206.91 259.807 206.892 259.601 206.892C259.02 206.892 258.542 207.013 258.167 207.255C257.792 207.497 257.58 207.872 257.532 208.381H255.462C255.499 207.776 255.644 207.273 255.898 206.874C256.152 206.475 256.473 206.154 256.86 205.912C257.26 205.67 257.707 205.501 258.203 205.404C258.7 205.307 259.208 205.259 259.728 205.259C260.188 205.259 260.642 205.307 261.09 205.404C261.537 205.501 261.937 205.658 262.288 205.876C262.651 206.094 262.941 206.378 263.159 206.729C263.377 207.068 263.486 207.485 263.486 207.981V212.81ZM261.416 210.196C261.102 210.402 260.714 210.529 260.255 210.577C259.795 210.613 259.335 210.674 258.875 210.759C258.657 210.795 258.445 210.849 258.24 210.922C258.034 210.983 257.853 211.073 257.695 211.194C257.538 211.303 257.411 211.455 257.314 211.648C257.229 211.83 257.187 212.054 257.187 212.32C257.187 212.55 257.253 212.743 257.387 212.901C257.52 213.058 257.677 213.185 257.859 213.282C258.052 213.367 258.258 213.427 258.476 213.463C258.706 213.5 258.911 213.518 259.093 213.518C259.323 213.518 259.571 213.488 259.837 213.427C260.103 213.367 260.351 213.264 260.581 213.118C260.823 212.973 261.023 212.792 261.18 212.574C261.338 212.344 261.416 212.066 261.416 211.739V210.196Z" fill="#C8CFD4"/>
<path d="M265.712 205.513H267.673V206.82H267.727C267.884 206.59 268.054 206.378 268.235 206.184C268.417 205.991 268.617 205.827 268.834 205.694C269.064 205.561 269.325 205.458 269.615 205.386C269.905 205.301 270.238 205.259 270.613 205.259C271.182 205.259 271.709 205.386 272.193 205.64C272.689 205.894 273.04 206.287 273.245 206.82C273.596 206.336 274.002 205.954 274.462 205.676C274.921 205.398 275.496 205.259 276.186 205.259C277.178 205.259 277.947 205.501 278.491 205.985C279.048 206.469 279.326 207.28 279.326 208.417V214.897H277.257V209.415C277.257 209.04 277.245 208.701 277.221 208.399C277.197 208.084 277.124 207.818 277.003 207.6C276.894 207.37 276.725 207.195 276.495 207.074C276.265 206.953 275.95 206.892 275.551 206.892C274.849 206.892 274.341 207.11 274.026 207.546C273.711 207.981 273.554 208.599 273.554 209.397V214.897H271.485V208.871C271.485 208.217 271.364 207.727 271.122 207.401C270.892 207.062 270.462 206.892 269.833 206.892C269.567 206.892 269.306 206.947 269.052 207.056C268.81 207.165 268.592 207.322 268.399 207.528C268.217 207.733 268.066 207.987 267.945 208.29C267.836 208.593 267.782 208.937 267.782 209.325V214.897H265.712V205.513Z" fill="#C8CFD4"/>
<path d="M287.951 209.379C287.927 209.052 287.854 208.738 287.733 208.435C287.624 208.133 287.467 207.872 287.261 207.655C287.067 207.425 286.825 207.243 286.535 207.11C286.257 206.965 285.942 206.892 285.591 206.892C285.228 206.892 284.895 206.959 284.593 207.092C284.302 207.213 284.048 207.388 283.83 207.618C283.624 207.836 283.455 208.096 283.322 208.399C283.201 208.701 283.134 209.028 283.122 209.379H287.951ZM283.122 210.741C283.122 211.104 283.171 211.455 283.267 211.793C283.376 212.132 283.534 212.429 283.739 212.683C283.945 212.937 284.205 213.143 284.52 213.3C284.835 213.445 285.21 213.518 285.645 213.518C286.25 213.518 286.735 213.391 287.098 213.137C287.473 212.87 287.751 212.477 287.933 211.957H289.893C289.784 212.465 289.597 212.919 289.33 213.318C289.064 213.717 288.743 214.056 288.368 214.335C287.993 214.601 287.57 214.801 287.098 214.934C286.638 215.079 286.154 215.151 285.645 215.151C284.907 215.151 284.254 215.03 283.685 214.788C283.116 214.546 282.632 214.208 282.233 213.772C281.846 213.336 281.549 212.816 281.343 212.211C281.15 211.606 281.053 210.94 281.053 210.214C281.053 209.549 281.156 208.919 281.362 208.326C281.579 207.721 281.882 207.195 282.269 206.747C282.668 206.287 283.146 205.924 283.703 205.658C284.26 205.392 284.889 205.259 285.591 205.259C286.329 205.259 286.989 205.416 287.57 205.731C288.162 206.033 288.653 206.438 289.04 206.947C289.427 207.455 289.705 208.042 289.875 208.707C290.056 209.361 290.105 210.039 290.02 210.741H283.122Z" fill="#C8CFD4"/>
<path d="M384.984 201.937H387.253V212.937H393.842V214.897H384.984V201.937Z" fill="#C8CFD4"/>
<path d="M402.977 212.81C402.977 213.064 403.007 213.246 403.067 213.354C403.14 213.463 403.273 213.518 403.467 213.518C403.527 213.518 403.6 213.518 403.685 213.518C403.769 213.518 403.866 213.506 403.975 213.481V214.916C403.902 214.94 403.806 214.964 403.685 214.988C403.576 215.024 403.461 215.055 403.34 215.079C403.219 215.103 403.098 215.121 402.977 215.133C402.856 215.145 402.753 215.151 402.668 215.151C402.244 215.151 401.894 215.067 401.615 214.897C401.337 214.728 401.155 214.431 401.071 214.008C400.659 214.407 400.151 214.698 399.546 214.879C398.953 215.061 398.378 215.151 397.821 215.151C397.398 215.151 396.992 215.091 396.605 214.97C396.218 214.861 395.873 214.698 395.571 214.48C395.28 214.25 395.044 213.966 394.863 213.627C394.693 213.276 394.608 212.87 394.608 212.411C394.608 211.83 394.711 211.358 394.917 210.995C395.135 210.632 395.413 210.347 395.752 210.142C396.103 209.936 396.49 209.791 396.914 209.706C397.349 209.609 397.785 209.536 398.221 209.488C398.596 209.415 398.953 209.367 399.292 209.343C399.631 209.307 399.927 209.252 400.181 209.179C400.447 209.107 400.653 208.998 400.798 208.853C400.956 208.695 401.034 208.465 401.034 208.163C401.034 207.897 400.968 207.679 400.835 207.509C400.714 207.34 400.556 207.213 400.363 207.128C400.181 207.031 399.975 206.971 399.746 206.947C399.516 206.91 399.298 206.892 399.092 206.892C398.511 206.892 398.033 207.013 397.658 207.255C397.283 207.497 397.071 207.872 397.023 208.381H394.953C394.99 207.776 395.135 207.273 395.389 206.874C395.643 206.475 395.964 206.154 396.351 205.912C396.75 205.67 397.198 205.501 397.694 205.404C398.19 205.307 398.699 205.259 399.219 205.259C399.679 205.259 400.133 205.307 400.581 205.404C401.028 205.501 401.428 205.658 401.779 205.876C402.142 206.094 402.432 206.378 402.65 206.729C402.868 207.068 402.977 207.485 402.977 207.981V212.81ZM400.907 210.196C400.593 210.402 400.205 210.529 399.746 210.577C399.286 210.613 398.826 210.674 398.366 210.759C398.148 210.795 397.936 210.849 397.731 210.922C397.525 210.983 397.343 211.073 397.186 211.194C397.029 211.303 396.902 211.455 396.805 211.648C396.72 211.83 396.678 212.054 396.678 212.32C396.678 212.55 396.744 212.743 396.877 212.901C397.011 213.058 397.168 213.185 397.349 213.282C397.543 213.367 397.749 213.427 397.967 213.463C398.197 213.5 398.402 213.518 398.584 213.518C398.814 213.518 399.062 213.488 399.328 213.427C399.594 213.367 399.842 213.264 400.072 213.118C400.314 212.973 400.514 212.792 400.671 212.574C400.829 212.344 400.907 212.066 400.907 211.739V210.196Z" fill="#C8CFD4"/>
<path d="M406.764 211.884C406.825 212.489 407.055 212.913 407.454 213.155C407.853 213.397 408.331 213.518 408.888 213.518C409.082 213.518 409.3 213.506 409.542 213.481C409.796 213.445 410.032 213.385 410.249 213.3C410.467 213.215 410.643 213.094 410.776 212.937C410.921 212.768 410.988 212.55 410.976 212.283C410.963 212.017 410.867 211.799 410.685 211.63C410.504 211.461 410.268 211.327 409.977 211.231C409.699 211.122 409.378 211.031 409.015 210.958C408.652 210.886 408.283 210.807 407.908 210.722C407.521 210.638 407.145 210.535 406.782 210.414C406.431 210.293 406.111 210.129 405.82 209.924C405.542 209.718 405.318 209.458 405.149 209.143C404.979 208.816 404.895 208.417 404.895 207.945C404.895 207.437 405.016 207.013 405.258 206.674C405.512 206.324 405.826 206.045 406.202 205.839C406.589 205.622 407.012 205.47 407.472 205.386C407.944 205.301 408.392 205.259 408.815 205.259C409.3 205.259 409.759 205.313 410.195 205.422C410.643 205.519 411.042 205.682 411.393 205.912C411.756 206.142 412.053 206.445 412.282 206.82C412.525 207.183 412.676 207.624 412.736 208.145H410.576C410.479 207.649 410.249 207.316 409.886 207.146C409.535 206.977 409.13 206.892 408.67 206.892C408.525 206.892 408.35 206.904 408.144 206.929C407.95 206.953 407.763 207.001 407.581 207.074C407.412 207.134 407.266 207.231 407.145 207.364C407.024 207.485 406.964 207.649 406.964 207.854C406.964 208.108 407.049 208.314 407.218 208.472C407.4 208.629 407.63 208.762 407.908 208.871C408.198 208.968 408.525 209.052 408.888 209.125C409.251 209.198 409.626 209.276 410.013 209.361C410.389 209.446 410.758 209.549 411.121 209.67C411.484 209.791 411.804 209.954 412.083 210.16C412.373 210.365 412.603 210.626 412.773 210.94C412.954 211.255 413.045 211.642 413.045 212.102C413.045 212.659 412.918 213.131 412.664 213.518C412.41 213.905 412.077 214.22 411.665 214.462C411.266 214.704 410.818 214.879 410.322 214.988C409.826 215.097 409.336 215.151 408.852 215.151C408.259 215.151 407.708 215.085 407.2 214.952C406.704 214.819 406.268 214.619 405.893 214.353C405.53 214.074 405.239 213.736 405.022 213.336C404.816 212.925 404.707 212.441 404.695 211.884H406.764Z" fill="#C8CFD4"/>
<path d="M413.672 205.513H415.233V202.699H417.303V205.513H419.172V207.056H417.303V212.066C417.303 212.283 417.309 212.471 417.321 212.628C417.345 212.786 417.387 212.919 417.448 213.028C417.52 213.137 417.623 213.221 417.756 213.282C417.889 213.33 418.071 213.354 418.301 213.354C418.446 213.354 418.591 213.354 418.737 213.354C418.882 213.342 419.027 213.318 419.172 213.282V214.879C418.942 214.903 418.718 214.928 418.501 214.952C418.283 214.976 418.059 214.988 417.829 214.988C417.284 214.988 416.843 214.94 416.504 214.843C416.177 214.734 415.917 214.583 415.723 214.389C415.542 214.183 415.415 213.929 415.342 213.627C415.282 213.324 415.245 212.979 415.233 212.592V207.056H413.672V205.513Z" fill="#C8CFD4"/>
<path d="M425.713 205.513H427.673V206.892L427.71 206.929C428.024 206.408 428.436 206.003 428.944 205.712C429.452 205.41 430.015 205.259 430.632 205.259C431.661 205.259 432.472 205.525 433.064 206.057C433.657 206.59 433.954 207.388 433.954 208.453V214.897H431.885V208.998C431.86 208.26 431.703 207.727 431.413 207.401C431.122 207.062 430.668 206.892 430.051 206.892C429.7 206.892 429.386 206.959 429.107 207.092C428.829 207.213 428.593 207.388 428.399 207.618C428.206 207.836 428.055 208.096 427.946 208.399C427.837 208.701 427.782 209.022 427.782 209.361V214.897H425.713V205.513Z" fill="#C8CFD4"/>
<path d="M443.996 212.81C443.996 213.064 444.026 213.246 444.087 213.354C444.159 213.463 444.292 213.518 444.486 213.518C444.547 213.518 444.619 213.518 444.704 213.518C444.789 213.518 444.885 213.506 444.994 213.481V214.916C444.922 214.94 444.825 214.964 444.704 214.988C444.595 215.024 444.48 215.055 444.359 215.079C444.238 215.103 444.117 215.121 443.996 215.133C443.875 215.145 443.772 215.151 443.687 215.151C443.264 215.151 442.913 215.067 442.635 214.897C442.356 214.728 442.175 214.431 442.09 214.008C441.679 214.407 441.17 214.698 440.565 214.879C439.972 215.061 439.397 215.151 438.841 215.151C438.417 215.151 438.012 215.091 437.625 214.97C437.237 214.861 436.893 214.698 436.59 214.48C436.3 214.25 436.064 213.966 435.882 213.627C435.713 213.276 435.628 212.87 435.628 212.411C435.628 211.83 435.731 211.358 435.936 210.995C436.154 210.632 436.433 210.347 436.771 210.142C437.122 209.936 437.51 209.791 437.933 209.706C438.369 209.609 438.805 209.536 439.24 209.488C439.615 209.415 439.972 209.367 440.311 209.343C440.65 209.307 440.946 209.252 441.201 209.179C441.467 209.107 441.673 208.998 441.818 208.853C441.975 208.695 442.054 208.465 442.054 208.163C442.054 207.897 441.987 207.679 441.854 207.509C441.733 207.34 441.576 207.213 441.382 207.128C441.201 207.031 440.995 206.971 440.765 206.947C440.535 206.91 440.317 206.892 440.111 206.892C439.531 206.892 439.053 207.013 438.677 207.255C438.302 207.497 438.091 207.872 438.042 208.381H435.973C436.009 207.776 436.154 207.273 436.408 206.874C436.663 206.475 436.983 206.154 437.37 205.912C437.77 205.67 438.218 205.501 438.714 205.404C439.21 205.307 439.718 205.259 440.239 205.259C440.698 205.259 441.152 205.307 441.6 205.404C442.048 205.501 442.447 205.658 442.798 205.876C443.161 206.094 443.451 206.378 443.669 206.729C443.887 207.068 443.996 207.485 443.996 207.981V212.81ZM441.927 210.196C441.612 210.402 441.225 210.529 440.765 210.577C440.305 210.613 439.845 210.674 439.385 210.759C439.168 210.795 438.956 210.849 438.75 210.922C438.544 210.983 438.363 211.073 438.205 211.194C438.048 211.303 437.921 211.455 437.824 211.648C437.74 211.83 437.697 212.054 437.697 212.32C437.697 212.55 437.764 212.743 437.897 212.901C438.03 213.058 438.187 213.185 438.369 213.282C438.562 213.367 438.768 213.427 438.986 213.463C439.216 213.5 439.422 213.518 439.603 213.518C439.833 213.518 440.081 213.488 440.347 213.427C440.614 213.367 440.862 213.264 441.092 213.118C441.334 212.973 441.533 212.792 441.691 212.574C441.848 212.344 441.927 212.066 441.927 211.739V210.196Z" fill="#C8CFD4"/>
<path d="M446.223 205.513H448.183V206.82H448.237C448.395 206.59 448.564 206.378 448.746 206.184C448.927 205.991 449.127 205.827 449.345 205.694C449.575 205.561 449.835 205.458 450.125 205.386C450.416 205.301 450.749 205.259 451.124 205.259C451.692 205.259 452.219 205.386 452.703 205.64C453.199 205.894 453.55 206.287 453.756 206.82C454.107 206.336 454.512 205.954 454.972 205.676C455.432 205.398 456.007 205.259 456.696 205.259C457.689 205.259 458.457 205.501 459.002 205.985C459.558 206.469 459.837 207.28 459.837 208.417V214.897H457.767V209.415C457.767 209.04 457.755 208.701 457.731 208.399C457.707 208.084 457.634 207.818 457.513 207.6C457.404 207.37 457.235 207.195 457.005 207.074C456.775 206.953 456.46 206.892 456.061 206.892C455.359 206.892 454.851 207.11 454.536 207.546C454.222 207.981 454.064 208.599 454.064 209.397V214.897H451.995V208.871C451.995 208.217 451.874 207.727 451.632 207.401C451.402 207.062 450.972 206.892 450.343 206.892C450.077 206.892 449.817 206.947 449.563 207.056C449.321 207.165 449.103 207.322 448.909 207.528C448.728 207.733 448.576 207.987 448.455 208.29C448.346 208.593 448.292 208.937 448.292 209.325V214.897H446.223V205.513Z" fill="#C8CFD4"/>
<path d="M468.461 209.379C468.437 209.052 468.364 208.738 468.243 208.435C468.134 208.133 467.977 207.872 467.771 207.655C467.578 207.425 467.336 207.243 467.045 207.11C466.767 206.965 466.452 206.892 466.101 206.892C465.738 206.892 465.405 206.959 465.103 207.092C464.812 207.213 464.558 207.388 464.341 207.618C464.135 207.836 463.965 208.096 463.832 208.399C463.711 208.701 463.645 209.028 463.633 209.379H468.461ZM463.633 210.741C463.633 211.104 463.681 211.455 463.778 211.793C463.887 212.132 464.044 212.429 464.25 212.683C464.455 212.937 464.716 213.143 465.03 213.3C465.345 213.445 465.72 213.518 466.156 213.518C466.761 213.518 467.245 213.391 467.608 213.137C467.983 212.87 468.261 212.477 468.443 211.957H470.403C470.294 212.465 470.107 212.919 469.841 213.318C469.574 213.717 469.254 214.056 468.879 214.335C468.503 214.601 468.08 214.801 467.608 214.934C467.148 215.079 466.664 215.151 466.156 215.151C465.418 215.151 464.764 215.03 464.195 214.788C463.627 214.546 463.142 214.208 462.743 213.772C462.356 213.336 462.059 212.816 461.854 212.211C461.66 211.606 461.563 210.94 461.563 210.214C461.563 209.549 461.666 208.919 461.872 208.326C462.09 207.721 462.392 207.195 462.779 206.747C463.179 206.287 463.657 205.924 464.213 205.658C464.77 205.392 465.399 205.259 466.101 205.259C466.839 205.259 467.499 205.416 468.08 205.731C468.673 206.033 469.163 206.438 469.55 206.947C469.937 207.455 470.216 208.042 470.385 208.707C470.567 209.361 470.615 210.039 470.53 210.741H463.633Z" fill="#C8CFD4"/>
<path d="M206.839 336.879L201.975 329.001H204.607L208.037 334.81L211.414 329.001H213.955L209.108 336.879V341.962H206.839V336.879Z" fill="#C8CFD4"/>
<path d="M217.579 342.216C216.829 342.216 216.157 342.095 215.564 341.853C214.983 341.599 214.487 341.254 214.076 340.818C213.676 340.383 213.368 339.862 213.15 339.257C212.944 338.652 212.841 337.986 212.841 337.26C212.841 336.546 212.944 335.887 213.15 335.282C213.368 334.677 213.676 334.156 214.076 333.721C214.487 333.285 214.983 332.946 215.564 332.704C216.157 332.45 216.829 332.323 217.579 332.323C218.329 332.323 218.995 332.45 219.576 332.704C220.169 332.946 220.665 333.285 221.064 333.721C221.476 334.156 221.784 334.677 221.99 335.282C222.208 335.887 222.317 336.546 222.317 337.26C222.317 337.986 222.208 338.652 221.99 339.257C221.784 339.862 221.476 340.383 221.064 340.818C220.665 341.254 220.169 341.599 219.576 341.853C218.995 342.095 218.329 342.216 217.579 342.216ZM217.579 340.582C218.039 340.582 218.438 340.485 218.777 340.292C219.116 340.098 219.394 339.844 219.612 339.529C219.83 339.215 219.987 338.864 220.084 338.477C220.193 338.077 220.247 337.672 220.247 337.26C220.247 336.861 220.193 336.462 220.084 336.062C219.987 335.663 219.83 335.312 219.612 335.01C219.394 334.695 219.116 334.441 218.777 334.247C218.438 334.054 218.039 333.957 217.579 333.957C217.119 333.957 216.72 334.054 216.381 334.247C216.042 334.441 215.764 334.695 215.546 335.01C215.328 335.312 215.165 335.663 215.056 336.062C214.959 336.462 214.911 336.861 214.911 337.26C214.911 337.672 214.959 338.077 215.056 338.477C215.165 338.864 215.328 339.215 215.546 339.529C215.764 339.844 216.042 340.098 216.381 340.292C216.72 340.485 217.119 340.582 217.579 340.582Z" fill="#C8CFD4"/>
<path d="M232.278 341.962H230.245V340.655H230.209C229.955 341.127 229.573 341.508 229.065 341.798C228.569 342.077 228.061 342.216 227.54 342.216C226.306 342.216 225.41 341.913 224.854 341.308C224.309 340.691 224.037 339.765 224.037 338.531V332.577H226.106V338.331C226.106 339.154 226.264 339.735 226.578 340.074C226.893 340.413 227.335 340.582 227.903 340.582C228.339 340.582 228.702 340.516 228.993 340.383C229.283 340.249 229.519 340.074 229.7 339.856C229.882 339.626 230.009 339.354 230.082 339.039C230.166 338.725 230.209 338.386 230.209 338.023V332.577H232.278V341.962Z" fill="#C8CFD4"/>
<path d="M234.46 332.577H236.403V334.392H236.439C236.499 334.138 236.614 333.89 236.784 333.648C236.965 333.406 237.177 333.188 237.419 332.995C237.673 332.789 237.951 332.626 238.254 332.505C238.557 332.384 238.865 332.323 239.18 332.323C239.422 332.323 239.585 332.329 239.67 332.341C239.767 332.353 239.864 332.365 239.96 332.377V334.374C239.815 334.35 239.664 334.332 239.507 334.32C239.361 334.296 239.216 334.283 239.071 334.283C238.72 334.283 238.387 334.356 238.073 334.501C237.77 334.634 237.504 334.84 237.274 335.118C237.044 335.385 236.862 335.717 236.729 336.117C236.596 336.516 236.53 336.976 236.53 337.496V341.962H234.46V332.577Z" fill="#C8CFD4"/>
<path d="M245.948 329.001H248.018V330.962H245.948V329.001ZM245.948 332.577H248.018V341.962H245.948V332.577Z" fill="#C8CFD4"/>
<path d="M250.272 332.577H252.233V333.957L252.269 333.993C252.584 333.473 252.995 333.067 253.503 332.777C254.012 332.474 254.574 332.323 255.192 332.323C256.22 332.323 257.031 332.589 257.624 333.122C258.217 333.654 258.513 334.453 258.513 335.518V341.962H256.444V336.062C256.42 335.324 256.263 334.792 255.972 334.465C255.682 334.126 255.228 333.957 254.611 333.957C254.26 333.957 253.945 334.023 253.667 334.156C253.389 334.277 253.153 334.453 252.959 334.683C252.765 334.901 252.614 335.161 252.505 335.463C252.396 335.766 252.342 336.087 252.342 336.425V341.962H250.272V332.577Z" fill="#C8CFD4"/>
<path d="M269.536 345.429H267.466V340.746H267.43C267.261 341 267.061 341.224 266.831 341.417C266.601 341.599 266.347 341.75 266.069 341.871C265.79 341.992 265.5 342.077 265.197 342.125C264.895 342.186 264.592 342.216 264.29 342.216C263.6 342.216 263.001 342.083 262.493 341.817C261.984 341.538 261.561 341.175 261.222 340.727C260.895 340.268 260.647 339.741 260.478 339.148C260.321 338.555 260.242 337.944 260.242 337.315C260.242 336.625 260.333 335.978 260.514 335.373C260.696 334.767 260.968 334.241 261.331 333.793C261.694 333.333 262.148 332.976 262.692 332.722C263.249 332.456 263.896 332.323 264.635 332.323C265.24 332.323 265.802 332.444 266.323 332.686C266.843 332.916 267.249 333.303 267.539 333.848H267.575V332.577H269.536V345.429ZM262.311 337.279C262.311 337.69 262.354 338.095 262.438 338.495C262.535 338.882 262.686 339.233 262.892 339.548C263.11 339.85 263.382 340.098 263.709 340.292C264.036 340.485 264.435 340.582 264.907 340.582C265.802 340.582 266.462 340.28 266.886 339.675C267.321 339.057 267.539 338.259 267.539 337.279C267.539 336.25 267.315 335.439 266.867 334.846C266.432 334.253 265.778 333.957 264.907 333.957C264.483 333.957 264.108 334.054 263.782 334.247C263.455 334.429 263.182 334.677 262.965 334.991C262.747 335.294 262.583 335.645 262.475 336.044C262.366 336.444 262.311 336.855 262.311 337.279Z" fill="#C8CFD4"/>
<path d="M280.034 341.962H278.001V340.655H277.964C277.71 341.127 277.329 341.508 276.821 341.798C276.324 342.077 275.816 342.216 275.296 342.216C274.062 342.216 273.166 341.913 272.609 341.308C272.065 340.691 271.793 339.765 271.793 338.531V332.577H273.862V338.331C273.862 339.154 274.019 339.735 274.334 340.074C274.648 340.413 275.09 340.582 275.659 340.582C276.095 340.582 276.458 340.516 276.748 340.383C277.038 340.249 277.274 340.074 277.456 339.856C277.637 339.626 277.765 339.354 277.837 339.039C277.922 338.725 277.964 338.386 277.964 338.023V332.577H280.034V341.962Z" fill="#C8CFD4"/>
<path d="M282.27 329.001H284.34V330.962H282.27V329.001ZM282.27 332.577H284.34V341.962H282.27V332.577Z" fill="#C8CFD4"/>
<path d="M286.594 332.577H288.537V334.392H288.573C288.633 334.138 288.748 333.89 288.918 333.648C289.099 333.406 289.311 333.188 289.553 332.995C289.807 332.789 290.086 332.626 290.388 332.505C290.691 332.384 290.999 332.323 291.314 332.323C291.556 332.323 291.719 332.329 291.804 332.341C291.901 332.353 291.998 332.365 292.094 332.377V334.374C291.949 334.35 291.798 334.332 291.641 334.32C291.495 334.296 291.35 334.283 291.205 334.283C290.854 334.283 290.521 334.356 290.207 334.501C289.904 334.634 289.638 334.84 289.408 335.118C289.178 335.385 288.996 335.717 288.863 336.117C288.73 336.516 288.664 336.976 288.664 337.496V341.962H286.594V332.577Z" fill="#C8CFD4"/>
<path d="M291.941 332.577H294.21L296.661 339.584H296.697L299.075 332.577H301.235L297.586 342.47C297.417 342.894 297.248 343.299 297.078 343.686C296.921 344.073 296.721 344.412 296.479 344.703C296.249 345.005 295.959 345.241 295.608 345.411C295.257 345.592 294.809 345.683 294.265 345.683C293.781 345.683 293.303 345.647 292.831 345.574V343.831C293 343.856 293.163 343.88 293.321 343.904C293.478 343.94 293.641 343.958 293.811 343.958C294.053 343.958 294.253 343.928 294.41 343.868C294.567 343.807 294.694 343.716 294.791 343.595C294.9 343.487 294.991 343.353 295.063 343.196C295.136 343.039 295.203 342.857 295.263 342.652L295.499 341.925L291.941 332.577Z" fill="#C8CFD4"/>
<path d="M300.886 339.511H303.409V341.962H300.886V339.511Z" fill="#C8CFD4"/>
<path d="M305.938 339.511H308.461V341.962H305.938V339.511Z" fill="#C8CFD4"/>
<path d="M310.99 339.511H313.513V341.962H310.99V339.511Z" fill="#C8CFD4"/>
<path d="M203.463 264.172H212.793V266.133H205.732V269.527H212.267V271.379H205.732V275.172H212.92V277.133H203.463V264.172Z" fill="#C8CFD4"/>
<path d="M214.606 267.748H216.567V269.055H216.621C216.779 268.825 216.948 268.614 217.13 268.42C217.311 268.226 217.511 268.063 217.729 267.93C217.958 267.797 218.219 267.694 218.509 267.621C218.8 267.537 219.132 267.494 219.507 267.494C220.076 267.494 220.603 267.621 221.087 267.875C221.583 268.129 221.934 268.523 222.14 269.055C222.49 268.571 222.896 268.19 223.356 267.912C223.816 267.633 224.39 267.494 225.08 267.494C226.072 267.494 226.841 267.736 227.385 268.22C227.942 268.704 228.22 269.515 228.22 270.653V277.133H226.151V271.651C226.151 271.276 226.139 270.937 226.115 270.634C226.091 270.32 226.018 270.054 225.897 269.836C225.788 269.606 225.619 269.43 225.389 269.309C225.159 269.188 224.844 269.128 224.445 269.128C223.743 269.128 223.235 269.346 222.92 269.781C222.605 270.217 222.448 270.834 222.448 271.633V277.133H220.379V271.106C220.379 270.453 220.258 269.963 220.016 269.636C219.786 269.297 219.356 269.128 218.727 269.128C218.461 269.128 218.201 269.182 217.946 269.291C217.704 269.4 217.487 269.557 217.293 269.763C217.111 269.969 216.96 270.223 216.839 270.526C216.73 270.828 216.676 271.173 216.676 271.56V277.133H214.606V267.748Z" fill="#C8CFD4"/>
<path d="M238.261 275.045C238.261 275.3 238.291 275.481 238.351 275.59C238.424 275.699 238.557 275.753 238.751 275.753C238.811 275.753 238.884 275.753 238.969 275.753C239.053 275.753 239.15 275.741 239.259 275.717V277.151C239.186 277.175 239.09 277.199 238.969 277.224C238.86 277.26 238.745 277.29 238.624 277.314C238.503 277.339 238.382 277.357 238.261 277.369C238.14 277.381 238.037 277.387 237.952 277.387C237.529 277.387 237.178 277.302 236.899 277.133C236.621 276.963 236.439 276.667 236.355 276.243C235.943 276.643 235.435 276.933 234.83 277.115C234.237 277.296 233.662 277.387 233.106 277.387C232.682 277.387 232.277 277.327 231.889 277.206C231.502 277.097 231.157 276.933 230.855 276.715C230.564 276.485 230.328 276.201 230.147 275.862C229.977 275.511 229.893 275.106 229.893 274.646C229.893 274.065 229.995 273.593 230.201 273.23C230.419 272.867 230.697 272.583 231.036 272.377C231.387 272.171 231.774 272.026 232.198 271.941C232.634 271.845 233.069 271.772 233.505 271.724C233.88 271.651 234.237 271.603 234.576 271.578C234.915 271.542 235.211 271.488 235.465 271.415C235.732 271.342 235.937 271.233 236.082 271.088C236.24 270.931 236.318 270.701 236.318 270.398C236.318 270.132 236.252 269.914 236.119 269.745C235.998 269.576 235.84 269.449 235.647 269.364C235.465 269.267 235.26 269.207 235.03 269.182C234.8 269.146 234.582 269.128 234.376 269.128C233.795 269.128 233.317 269.249 232.942 269.491C232.567 269.733 232.355 270.108 232.307 270.616H230.237C230.274 270.011 230.419 269.509 230.673 269.11C230.927 268.71 231.248 268.39 231.635 268.148C232.035 267.906 232.482 267.736 232.978 267.639C233.475 267.543 233.983 267.494 234.503 267.494C234.963 267.494 235.417 267.543 235.865 267.639C236.312 267.736 236.712 267.894 237.063 268.111C237.426 268.329 237.716 268.614 237.934 268.964C238.152 269.303 238.261 269.721 238.261 270.217V275.045ZM236.191 272.432C235.877 272.637 235.489 272.764 235.03 272.813C234.57 272.849 234.11 272.91 233.65 272.994C233.432 273.031 233.22 273.085 233.015 273.158C232.809 273.218 232.628 273.309 232.47 273.43C232.313 273.539 232.186 273.69 232.089 273.884C232.004 274.065 231.962 274.289 231.962 274.555C231.962 274.785 232.028 274.979 232.162 275.136C232.295 275.294 232.452 275.421 232.634 275.517C232.827 275.602 233.033 275.663 233.251 275.699C233.481 275.735 233.686 275.753 233.868 275.753C234.098 275.753 234.346 275.723 234.612 275.663C234.878 275.602 235.126 275.499 235.356 275.354C235.598 275.209 235.798 275.027 235.955 274.809C236.113 274.58 236.191 274.301 236.191 273.974V272.432Z" fill="#C8CFD4"/>
<path d="M240.542 264.172H242.611V266.133H240.542V264.172ZM240.542 267.748H242.611V277.133H240.542V267.748Z" fill="#C8CFD4"/>
<path d="M244.92 264.172H246.99V277.133H244.92V264.172Z" fill="#C8CFD4"/>
<rect x="186.525" y="422.502" width="168.555" height="44.0836" rx="10.3726" fill="#E4FCE4"/>
<path d="M218.07 447.925H215.311C215.299 448.724 215.444 449.413 215.746 449.994C216.049 450.575 216.454 451.053 216.963 451.428C217.483 451.803 218.076 452.076 218.742 452.245C219.419 452.427 220.115 452.517 220.829 452.517C221.712 452.517 222.487 452.415 223.152 452.209C223.83 452.003 224.393 451.719 224.841 451.356C225.3 450.98 225.645 450.539 225.875 450.031C226.105 449.522 226.22 448.972 226.22 448.379C226.22 447.653 226.063 447.06 225.748 446.6C225.446 446.128 225.083 445.753 224.659 445.474C224.236 445.196 223.806 444.996 223.37 444.875C222.947 444.742 222.614 444.651 222.372 444.603C221.561 444.397 220.902 444.228 220.393 444.095C219.897 443.962 219.504 443.829 219.213 443.695C218.935 443.562 218.748 443.417 218.651 443.26C218.554 443.102 218.506 442.897 218.506 442.643C218.506 442.364 218.566 442.134 218.687 441.953C218.808 441.771 218.959 441.62 219.141 441.499C219.335 441.378 219.546 441.293 219.776 441.245C220.006 441.197 220.236 441.172 220.466 441.172C220.817 441.172 221.138 441.203 221.428 441.263C221.731 441.324 221.997 441.426 222.227 441.572C222.457 441.717 222.638 441.917 222.771 442.171C222.917 442.425 223.001 442.745 223.025 443.133H225.785C225.785 442.382 225.639 441.747 225.349 441.227C225.071 440.694 224.689 440.259 224.205 439.92C223.721 439.581 223.165 439.339 222.535 439.194C221.918 439.036 221.271 438.958 220.593 438.958C220.012 438.958 219.431 439.036 218.85 439.194C218.27 439.351 217.749 439.593 217.289 439.92C216.83 440.247 216.454 440.658 216.164 441.154C215.886 441.638 215.746 442.213 215.746 442.879C215.746 443.472 215.855 443.98 216.073 444.403C216.303 444.815 216.6 445.16 216.963 445.438C217.326 445.716 217.737 445.946 218.197 446.128C218.657 446.297 219.129 446.442 219.613 446.563C220.085 446.697 220.551 446.818 221.011 446.927C221.47 447.035 221.882 447.162 222.245 447.308C222.608 447.453 222.898 447.634 223.116 447.852C223.346 448.07 223.461 448.354 223.461 448.705C223.461 449.032 223.376 449.304 223.207 449.522C223.038 449.728 222.826 449.891 222.572 450.012C222.318 450.133 222.045 450.218 221.755 450.267C221.464 450.303 221.192 450.321 220.938 450.321C220.563 450.321 220.2 450.279 219.849 450.194C219.498 450.097 219.189 449.958 218.923 449.776C218.669 449.583 218.463 449.335 218.306 449.032C218.149 448.73 218.07 448.361 218.07 447.925Z" fill="#3AC63F"/>
<path d="M236.447 452.227V442.842H233.87V447.762C233.87 448.718 233.712 449.407 233.398 449.831C233.083 450.242 232.575 450.448 231.873 450.448C231.256 450.448 230.826 450.26 230.584 449.885C230.342 449.498 230.221 448.917 230.221 448.143V442.842H227.644V448.615C227.644 449.196 227.692 449.728 227.789 450.212C227.898 450.684 228.079 451.089 228.333 451.428C228.587 451.755 228.932 452.009 229.368 452.191C229.816 452.372 230.385 452.463 231.074 452.463C231.619 452.463 232.151 452.342 232.672 452.1C233.192 451.858 233.616 451.465 233.942 450.92H233.997V452.227H236.447Z" fill="#3AC63F"/>
<path d="M245.283 447.544C245.283 447.931 245.241 448.306 245.156 448.669C245.072 449.032 244.938 449.353 244.757 449.631C244.575 449.91 244.345 450.133 244.067 450.303C243.801 450.46 243.474 450.539 243.087 450.539C242.712 450.539 242.385 450.46 242.107 450.303C241.828 450.133 241.598 449.91 241.417 449.631C241.235 449.353 241.102 449.032 241.018 448.669C240.933 448.306 240.89 447.931 240.89 447.544C240.89 447.144 240.933 446.763 241.018 446.4C241.102 446.037 241.235 445.716 241.417 445.438C241.598 445.16 241.828 444.942 242.107 444.785C242.385 444.615 242.712 444.53 243.087 444.53C243.474 444.53 243.801 444.615 244.067 444.785C244.345 444.942 244.575 445.16 244.757 445.438C244.938 445.716 245.072 446.037 245.156 446.4C245.241 446.763 245.283 447.144 245.283 447.544ZM238.404 439.266V452.227H240.854V451.029H240.89C241.169 451.549 241.58 451.918 242.125 452.136C242.669 452.354 243.287 452.463 243.976 452.463C244.448 452.463 244.914 452.366 245.374 452.172C245.834 451.979 246.245 451.682 246.608 451.283C246.984 450.884 247.286 450.375 247.516 449.758C247.746 449.129 247.861 448.385 247.861 447.526C247.861 446.666 247.746 445.928 247.516 445.311C247.286 444.682 246.984 444.167 246.608 443.768C246.245 443.369 245.834 443.072 245.374 442.879C244.914 442.685 244.448 442.588 243.976 442.588C243.395 442.588 242.833 442.703 242.288 442.933C241.756 443.151 241.332 443.502 241.018 443.986H240.981V439.266H238.404Z" fill="#3AC63F"/>
<path d="M249.573 442.842V452.227H252.151V446.781C252.151 446.321 252.217 445.952 252.35 445.674C252.484 445.384 252.641 445.166 252.822 445.021C253.016 444.863 253.21 444.76 253.403 444.712C253.609 444.651 253.772 444.621 253.893 444.621C254.305 444.621 254.613 444.694 254.819 444.839C255.037 444.972 255.188 445.154 255.273 445.384C255.37 445.614 255.424 445.868 255.436 446.146C255.448 446.412 255.454 446.684 255.454 446.963V452.227H258.032V446.999C258.032 446.709 258.05 446.424 258.086 446.146C258.135 445.856 258.22 445.601 258.341 445.384C258.474 445.154 258.649 444.972 258.867 444.839C259.097 444.694 259.393 444.621 259.756 444.621C260.119 444.621 260.404 444.682 260.61 444.803C260.827 444.924 260.991 445.087 261.1 445.293C261.209 445.499 261.275 445.741 261.299 446.019C261.324 446.297 261.336 446.594 261.336 446.908V452.227H263.913V445.946C263.913 445.341 263.829 444.827 263.659 444.403C263.49 443.968 263.254 443.617 262.951 443.351C262.649 443.084 262.286 442.891 261.862 442.77C261.439 442.649 260.979 442.588 260.483 442.588C259.829 442.588 259.26 442.745 258.776 443.06C258.304 443.375 257.929 443.738 257.651 444.149C257.397 443.568 257.022 443.163 256.525 442.933C256.041 442.703 255.503 442.588 254.91 442.588C254.293 442.588 253.742 442.721 253.258 442.988C252.786 443.254 252.381 443.629 252.042 444.113H252.006V442.842H249.573Z" fill="#3AC63F"/>
<path d="M268.601 441.39V439.266H266.023V441.39H268.601ZM266.023 442.842V452.227H268.601V442.842H266.023Z" fill="#3AC63F"/>
<path d="M273.898 442.842V440.029H271.32V442.842H269.759V444.567H271.32V450.103C271.32 450.575 271.399 450.956 271.556 451.247C271.714 451.537 271.926 451.761 272.192 451.918C272.47 452.076 272.785 452.179 273.136 452.227C273.499 452.287 273.88 452.318 274.279 452.318C274.533 452.318 274.794 452.312 275.06 452.3C275.326 452.287 275.568 452.263 275.786 452.227V450.23C275.665 450.254 275.538 450.273 275.405 450.285C275.272 450.297 275.132 450.303 274.987 450.303C274.552 450.303 274.261 450.23 274.116 450.085C273.971 449.94 273.898 449.649 273.898 449.214V444.567H275.786V442.842H273.898Z" fill="#3AC63F"/>
<path d="M282.337 439.266V452.227H285.186V446.872H290.614V444.658H285.186V441.662H291.449V439.266H282.337Z" fill="#3AC63F"/>
<path d="M295.112 447.544C295.112 447.169 295.148 446.799 295.22 446.436C295.293 446.073 295.414 445.753 295.584 445.474C295.765 445.196 296.001 444.972 296.291 444.803C296.582 444.621 296.945 444.53 297.381 444.53C297.816 444.53 298.179 444.621 298.47 444.803C298.772 444.972 299.008 445.196 299.178 445.474C299.359 445.753 299.486 446.073 299.559 446.436C299.631 446.799 299.668 447.169 299.668 447.544C299.668 447.919 299.631 448.288 299.559 448.651C299.486 449.002 299.359 449.323 299.178 449.613C299.008 449.891 298.772 450.115 298.47 450.285C298.179 450.454 297.816 450.539 297.381 450.539C296.945 450.539 296.582 450.454 296.291 450.285C296.001 450.115 295.765 449.891 295.584 449.613C295.414 449.323 295.293 449.002 295.22 448.651C295.148 448.288 295.112 447.919 295.112 447.544ZM292.534 447.544C292.534 448.294 292.649 448.972 292.879 449.577C293.109 450.182 293.436 450.702 293.859 451.138C294.283 451.561 294.791 451.888 295.384 452.118C295.977 452.348 296.642 452.463 297.381 452.463C298.119 452.463 298.784 452.348 299.377 452.118C299.982 451.888 300.497 451.561 300.92 451.138C301.344 450.702 301.671 450.182 301.9 449.577C302.13 448.972 302.245 448.294 302.245 447.544C302.245 446.793 302.13 446.116 301.9 445.511C301.671 444.893 301.344 444.373 300.92 443.95C300.497 443.514 299.982 443.181 299.377 442.951C298.784 442.709 298.119 442.588 297.381 442.588C296.642 442.588 295.977 442.709 295.384 442.951C294.791 443.181 294.283 443.514 293.859 443.95C293.436 444.373 293.109 444.893 292.879 445.511C292.649 446.116 292.534 446.793 292.534 447.544Z" fill="#3AC63F"/>
<path d="M303.921 442.842V452.227H306.499V447.997C306.499 447.574 306.541 447.181 306.626 446.818C306.711 446.455 306.85 446.14 307.043 445.874C307.249 445.595 307.515 445.378 307.842 445.22C308.169 445.063 308.568 444.984 309.04 444.984C309.197 444.984 309.361 444.996 309.53 445.021C309.7 445.033 309.845 445.051 309.966 445.075V442.679C309.76 442.618 309.573 442.588 309.403 442.588C309.076 442.588 308.762 442.637 308.459 442.733C308.157 442.83 307.872 442.969 307.606 443.151C307.34 443.32 307.104 443.532 306.898 443.786C306.693 444.028 306.529 444.294 306.408 444.585H306.372V442.842H303.921Z" fill="#3AC63F"/>
<path d="M311.049 442.842V452.227H313.627V446.781C313.627 446.321 313.693 445.952 313.826 445.674C313.959 445.384 314.117 445.166 314.298 445.021C314.492 444.863 314.686 444.76 314.879 444.712C315.085 444.651 315.248 444.621 315.369 444.621C315.781 444.621 316.089 444.694 316.295 444.839C316.513 444.972 316.664 445.154 316.749 445.384C316.846 445.614 316.9 445.868 316.912 446.146C316.924 446.412 316.93 446.684 316.93 446.963V452.227H319.508V446.999C319.508 446.709 319.526 446.424 319.562 446.146C319.611 445.856 319.696 445.601 319.817 445.384C319.95 445.154 320.125 444.972 320.343 444.839C320.573 444.694 320.869 444.621 321.232 444.621C321.595 444.621 321.88 444.682 322.086 444.803C322.303 444.924 322.467 445.087 322.576 445.293C322.685 445.499 322.751 445.741 322.775 446.019C322.8 446.297 322.812 446.594 322.812 446.908V452.227H325.389V445.946C325.389 445.341 325.305 444.827 325.135 444.403C324.966 443.968 324.73 443.617 324.427 443.351C324.125 443.084 323.762 442.891 323.338 442.77C322.914 442.649 322.455 442.588 321.958 442.588C321.305 442.588 320.736 442.745 320.252 443.06C319.78 443.375 319.405 443.738 319.127 444.149C318.873 443.568 318.497 443.163 318.001 442.933C317.517 442.703 316.979 442.588 316.386 442.588C315.769 442.588 315.218 442.721 314.734 442.988C314.262 443.254 313.857 443.629 313.518 444.113H313.481V442.842H311.049Z" fill="#3AC63F"/>
</g>
<path d="M179.698 329.157C178.505 329.581 177.604 328.802 176.647 328.407C159.332 321.262 141.93 314.082 124.615 306.937C123.919 306.65 123.259 306.276 122.077 305.686C124.82 273.62 127.512 241.431 130.292 209.279C131.602 209.31 132.089 209.613 132.308 210.314C132.341 213.689 134.27 216.419 135.496 219.369C150.112 254.524 164.676 289.557 179.328 324.625C179.608 326.167 180.554 327.575 179.698 329.157Z" fill="#3AC63F"/>
<path d="M179.698 329.157C180.59 327.488 179.644 326.08 179.082 324.727C164.43 289.659 149.902 254.54 135.25 219.471C134.024 216.521 132.096 213.791 132.062 210.417C141.175 217.945 187.945 257.101 202.185 268.985C203.172 269.8 204.232 270.441 204.881 271.829C204.522 272.699 204.214 273.692 203.783 274.736C196.745 291.792 189.708 308.847 182.547 325.954C182.131 327.208 182.437 329.676 179.698 329.157Z" fill="#1EA221"/>
<defs>
<filter id="filter0_d" x="0.298767" y="0.298767" width="719.934" height="652.512" filterUnits="userSpaceOnUse" color-interpolation-filters="sRGB">
<feFlood flood-opacity="0" result="BackgroundImageFix"/>
<feColorMatrix in="SourceAlpha" type="matrix" values="0 0 0 0 0 0 0 0 0 0 0 0 0 0 0 0 0 0 127 0"/>
<feOffset/>
<feGaussianBlur stdDeviation="78.8506"/>
<feColorMatrix type="matrix" values="0 0 0 0 0.396979 0 0 0 0 0.43478 0 0 0 0 0.4625 0 0 0 0.16 0"/>
<feBlend mode="normal" in2="BackgroundImageFix" result="effect1_dropShadow"/>
<feBlend mode="normal" in="SourceGraphic" in2="effect1_dropShadow" result="shape"/>
</filter>
</defs>
</svg>
