<svg width="615" height="451" viewBox="0 0 615 451" fill="none" xmlns="http://www.w3.org/2000/svg">
<path d="M244.021 113.028L209.316 68.986L293.764 10.3765L306.528 28.523L244.021 113.028Z" fill="#6DDB6E"/>
<path d="M244.021 113.028L306.528 28.5229L328.665 28.4772L297.487 114.04L244.021 113.028Z" fill="#1EA221"/>
<path d="M328.665 28.4773L314.725 10.6803L293.764 10.3765L306.528 28.523L328.665 28.4773Z" fill="#6DDB6E"/>
<g filter="url(#filter0_d)">
<rect x="67" y="234" width="201" height="150" rx="8" fill="white"/>
<path d="M234.881 330.705C232.432 323.942 226.036 319.197 218.59 318.789C210.607 318.35 203.25 322.996 200.395 330.279C197.539 337.561 199.841 345.809 206.087 350.676C206.968 351.362 208.252 351.223 208.956 350.364C209.66 349.505 209.517 348.252 208.636 347.565C203.778 343.78 201.988 337.365 204.209 331.701C206.43 326.037 212.152 322.423 218.361 322.764C224.569 323.105 229.839 327.322 231.394 333.194C231.627 334.073 232.44 334.687 233.371 334.687H235.943C239.804 334.691 243.136 337.335 243.925 341.023C244.715 344.711 242.746 348.434 239.207 349.945C238.175 350.386 237.704 351.56 238.156 352.567C238.609 353.574 239.813 354.033 240.845 353.592C246.154 351.325 249.106 345.741 247.922 340.209C246.738 334.677 241.741 330.712 235.946 330.705H234.881Z" fill="#AEC1CE"/>
<path d="M213.182 357.76V361.76C213.182 362.865 214.122 363.76 215.282 363.76C216.442 363.76 217.382 362.865 217.382 361.76V357.76C217.382 356.655 216.442 355.76 215.282 355.76C214.122 355.76 213.182 356.655 213.182 357.76Z" fill="#AEC1CE"/>
<path d="M213.182 345.76V349.76C213.182 350.865 214.122 351.76 215.282 351.76C216.442 351.76 217.382 350.865 217.382 349.76V345.76C217.382 344.655 216.442 343.76 215.282 343.76C214.122 343.76 213.182 344.655 213.182 345.76Z" fill="#AEC1CE"/>
<path d="M229.982 357.76V361.76C229.982 362.865 230.922 363.76 232.082 363.76C233.242 363.76 234.182 362.865 234.182 361.76V357.76C234.182 356.655 233.242 355.76 232.082 355.76C230.922 355.76 229.982 356.655 229.982 357.76Z" fill="#AEC1CE"/>
<path d="M229.982 345.76V349.76C229.982 350.865 230.922 351.76 232.082 351.76C233.242 351.76 234.182 350.865 234.182 349.76V345.76C234.182 344.655 233.242 343.76 232.082 343.76C230.922 343.76 229.982 344.655 229.982 345.76Z" fill="#AEC1CE"/>
<path d="M221.582 361.76V365.76C221.582 366.865 222.522 367.76 223.682 367.76C224.842 367.76 225.782 366.865 225.782 365.76V361.76C225.782 360.655 224.842 359.76 223.682 359.76C222.522 359.76 221.582 360.655 221.582 361.76Z" fill="#AEC1CE"/>
<path d="M221.582 349.76V353.76C221.582 354.865 222.522 355.76 223.682 355.76C224.842 355.76 225.782 354.865 225.782 353.76V349.76C225.782 348.655 224.842 347.76 223.682 347.76C222.522 347.76 221.582 348.655 221.582 349.76Z" fill="#AEC1CE"/>
<rect x="67" y="67" width="200" height="149" rx="8" fill="white"/>
<path d="M87.74 354.38H90.46C90.46 354.007 90.4934 353.633 90.56 353.26C90.64 352.873 90.7667 352.527 90.94 352.22C91.1134 351.9 91.34 351.647 91.62 351.46C91.9134 351.26 92.2667 351.16 92.68 351.16C93.2934 351.16 93.7934 351.353 94.18 351.74C94.58 352.113 94.78 352.64 94.78 353.32C94.78 353.747 94.68 354.127 94.48 354.46C94.2934 354.793 94.0534 355.093 93.76 355.36C93.48 355.627 93.1667 355.873 92.82 356.1C92.4734 356.313 92.1467 356.527 91.84 356.74C91.24 357.153 90.6667 357.56 90.12 357.96C89.5867 358.36 89.12 358.8 88.72 359.28C88.32 359.747 88 360.28 87.76 360.88C87.5334 361.48 87.42 362.187 87.42 363H97.7V360.56H91.08C91.4267 360.08 91.8267 359.66 92.28 359.3C92.7334 358.94 93.2 358.607 93.68 358.3C94.16 357.98 94.6334 357.66 95.1 357.34C95.58 357.02 96.0067 356.667 96.38 356.28C96.7534 355.88 97.0534 355.427 97.28 354.92C97.5067 354.413 97.62 353.807 97.62 353.1C97.62 352.42 97.4867 351.807 97.22 351.26C96.9667 350.713 96.62 350.253 96.18 349.88C95.74 349.507 95.2267 349.22 94.64 349.02C94.0667 348.82 93.46 348.72 92.82 348.72C91.98 348.72 91.2334 348.867 90.58 349.16C89.94 349.44 89.4067 349.84 88.98 350.36C88.5534 350.867 88.2334 351.467 88.02 352.16C87.8067 352.84 87.7134 353.58 87.74 354.38Z" fill="#616E7C"/>
<path d="M101.369 355.94C101.369 355.7 101.369 355.413 101.369 355.08C101.382 354.733 101.409 354.38 101.449 354.02C101.489 353.66 101.556 353.307 101.649 352.96C101.742 352.6 101.869 352.28 102.029 352C102.202 351.72 102.416 351.493 102.669 351.32C102.936 351.147 103.262 351.06 103.649 351.06C104.036 351.06 104.362 351.147 104.629 351.32C104.896 351.493 105.116 351.72 105.289 352C105.462 352.28 105.589 352.6 105.669 352.96C105.762 353.307 105.829 353.66 105.869 354.02C105.922 354.38 105.949 354.733 105.949 355.08C105.962 355.413 105.969 355.7 105.969 355.94C105.969 356.34 105.956 356.827 105.929 357.4C105.902 357.96 105.816 358.507 105.669 359.04C105.536 359.56 105.309 360.007 104.989 360.38C104.682 360.753 104.236 360.94 103.649 360.94C103.076 360.94 102.636 360.753 102.329 360.38C102.022 360.007 101.796 359.56 101.649 359.04C101.516 358.507 101.436 357.96 101.409 357.4C101.382 356.827 101.369 356.34 101.369 355.94ZM98.5289 355.94C98.5289 357.34 98.6623 358.513 98.9289 359.46C99.2089 360.393 99.5823 361.14 100.049 361.7C100.516 362.26 101.056 362.66 101.669 362.9C102.296 363.14 102.956 363.26 103.649 363.26C104.356 363.26 105.016 363.14 105.629 362.9C106.256 362.66 106.802 362.26 107.269 361.7C107.749 361.14 108.122 360.393 108.389 359.46C108.669 358.513 108.809 357.34 108.809 355.94C108.809 354.58 108.669 353.44 108.389 352.52C108.122 351.587 107.749 350.84 107.269 350.28C106.802 349.72 106.256 349.32 105.629 349.08C105.016 348.84 104.356 348.72 103.649 348.72C102.956 348.72 102.296 348.84 101.669 349.08C101.056 349.32 100.516 349.72 100.049 350.28C99.5823 350.84 99.2089 351.587 98.9289 352.52C98.6623 353.44 98.5289 354.58 98.5289 355.94Z" fill="#616E7C"/>
<path d="M111.598 352.12C111.598 351.893 111.618 351.667 111.658 351.44C111.711 351.213 111.791 351.013 111.898 350.84C112.005 350.653 112.138 350.507 112.298 350.4C112.458 350.28 112.651 350.22 112.878 350.22C113.105 350.22 113.298 350.28 113.458 350.4C113.631 350.507 113.771 350.653 113.878 350.84C113.985 351.013 114.058 351.213 114.098 351.44C114.151 351.667 114.178 351.893 114.178 352.12C114.178 352.333 114.151 352.553 114.098 352.78C114.058 353.007 113.985 353.213 113.878 353.4C113.771 353.573 113.631 353.72 113.458 353.84C113.298 353.947 113.105 354 112.878 354C112.651 354 112.458 353.947 112.298 353.84C112.138 353.72 112.005 353.573 111.898 353.4C111.791 353.213 111.711 353.007 111.658 352.78C111.618 352.553 111.598 352.333 111.598 352.12ZM109.458 352.12C109.458 353.173 109.765 354 110.378 354.6C111.005 355.2 111.838 355.5 112.878 355.5C113.918 355.5 114.751 355.2 115.378 354.6C116.005 354 116.318 353.173 116.318 352.12C116.318 351.067 116.005 350.24 115.378 349.64C114.751 349.027 113.918 348.72 112.878 348.72C111.838 348.72 111.005 349.027 110.378 349.64C109.765 350.24 109.458 351.067 109.458 352.12Z" fill="#616E7C"/>
<path d="M124.677 356.3H127.457C127.417 355.633 127.257 355.06 126.977 354.58C126.697 354.087 126.331 353.68 125.877 353.36C125.437 353.027 124.931 352.78 124.357 352.62C123.797 352.46 123.211 352.38 122.597 352.38C121.757 352.38 121.011 352.52 120.357 352.8C119.704 353.08 119.151 353.473 118.697 353.98C118.244 354.473 117.897 355.067 117.657 355.76C117.431 356.44 117.317 357.18 117.317 357.98C117.317 358.753 117.444 359.467 117.697 360.12C117.951 360.76 118.304 361.313 118.757 361.78C119.211 362.247 119.757 362.613 120.397 362.88C121.051 363.133 121.764 363.26 122.537 363.26C123.911 363.26 125.037 362.9 125.917 362.18C126.797 361.46 127.331 360.413 127.517 359.04H124.777C124.684 359.68 124.451 360.193 124.077 360.58C123.717 360.953 123.197 361.14 122.517 361.14C122.077 361.14 121.704 361.04 121.397 360.84C121.091 360.64 120.844 360.387 120.657 360.08C120.484 359.76 120.357 359.407 120.277 359.02C120.197 358.633 120.157 358.253 120.157 357.88C120.157 357.493 120.197 357.107 120.277 356.72C120.357 356.32 120.491 355.96 120.677 355.64C120.877 355.307 121.131 355.04 121.437 354.84C121.744 354.627 122.124 354.52 122.577 354.52C123.791 354.52 124.491 355.113 124.677 356.3Z" fill="#616E7C"/>
<path d="M90.44 182.8C90.44 182.48 90.4934 182.2 90.6 181.96C90.72 181.72 90.88 181.52 91.08 181.36C91.28 181.2 91.5067 181.08 91.76 181C92.0267 180.907 92.3 180.86 92.58 180.86C93.02 180.86 93.3734 180.927 93.64 181.06C93.92 181.193 94.1334 181.36 94.28 181.56C94.44 181.76 94.5467 181.973 94.6 182.2C94.6534 182.413 94.68 182.613 94.68 182.8C94.68 183.4 94.48 183.86 94.08 184.18C93.68 184.487 93.18 184.64 92.58 184.64C92.0067 184.64 91.5067 184.487 91.08 184.18C90.6534 183.86 90.44 183.4 90.44 182.8ZM87.86 182.54C87.86 183.233 88.0334 183.84 88.38 184.36C88.7267 184.88 89.24 185.233 89.92 185.42V185.46C89.08 185.66 88.4267 186.06 87.96 186.66C87.5067 187.26 87.28 188.007 87.28 188.9C87.28 189.66 87.4267 190.313 87.72 190.86C88.0267 191.407 88.4267 191.86 88.92 192.22C89.4267 192.58 89.9934 192.84 90.62 193C91.26 193.173 91.92 193.26 92.6 193.26C93.2534 193.26 93.8934 193.173 94.52 193C95.1467 192.813 95.7067 192.54 96.2 192.18C96.6934 191.82 97.0867 191.367 97.38 190.82C97.6867 190.273 97.84 189.627 97.84 188.88C97.84 188 97.6134 187.26 97.16 186.66C96.7067 186.047 96.06 185.647 95.22 185.46V185.42C95.9 185.193 96.4067 184.82 96.74 184.3C97.0867 183.78 97.26 183.173 97.26 182.48C97.26 182.133 97.18 181.747 97.02 181.32C96.86 180.88 96.5934 180.473 96.22 180.1C95.86 179.713 95.38 179.387 94.78 179.12C94.18 178.853 93.4467 178.72 92.58 178.72C92.0067 178.72 91.44 178.8 90.88 178.96C90.32 179.12 89.8134 179.36 89.36 179.68C88.92 180 88.56 180.4 88.28 180.88C88 181.36 87.86 181.913 87.86 182.54ZM90.12 188.76C90.12 188.04 90.36 187.493 90.84 187.12C91.32 186.733 91.9067 186.54 92.6 186.54C92.9334 186.54 93.24 186.593 93.52 186.7C93.8134 186.807 94.0667 186.96 94.28 187.16C94.5067 187.36 94.68 187.6 94.8 187.88C94.9334 188.147 95 188.447 95 188.78C95 189.127 94.94 189.447 94.82 189.74C94.7 190.033 94.5267 190.287 94.3 190.5C94.0867 190.7 93.8334 190.86 93.54 190.98C93.26 191.087 92.9467 191.14 92.6 191.14C92.2667 191.14 91.9467 191.087 91.64 190.98C91.3334 190.86 91.0667 190.7 90.84 190.5C90.6267 190.287 90.4534 190.033 90.32 189.74C90.1867 189.447 90.12 189.12 90.12 188.76Z" fill="#616E7C"/>
<path d="M102.789 182.66V179.56H99.9489V182.66H98.2289V184.56H99.9489V190.66C99.9489 191.18 100.036 191.6 100.209 191.92C100.382 192.24 100.616 192.487 100.909 192.66C101.216 192.833 101.562 192.947 101.949 193C102.349 193.067 102.769 193.1 103.209 193.1C103.489 193.1 103.776 193.093 104.069 193.08C104.362 193.067 104.629 193.04 104.869 193V190.8C104.736 190.827 104.596 190.847 104.449 190.86C104.302 190.873 104.149 190.88 103.989 190.88C103.509 190.88 103.189 190.8 103.029 190.64C102.869 190.48 102.789 190.16 102.789 189.68V184.56H104.869V182.66H102.789Z" fill="#616E7C"/>
<path d="M106.216 178.72V193H109.056V187.58C109.056 186.527 109.229 185.773 109.576 185.32C109.922 184.853 110.482 184.62 111.256 184.62C111.936 184.62 112.409 184.833 112.676 185.26C112.942 185.673 113.076 186.307 113.076 187.16V193H115.916V186.64C115.916 186 115.856 185.42 115.736 184.9C115.629 184.367 115.436 183.92 115.156 183.56C114.876 183.187 114.489 182.9 113.996 182.7C113.516 182.487 112.896 182.38 112.136 182.38C111.602 182.38 111.056 182.52 110.496 182.8C109.936 183.067 109.476 183.5 109.116 184.1H109.056V178.72H106.216Z" fill="#616E7C"/>
<path d="M126.069 188.26H123.029C123.016 189.14 123.176 189.9 123.509 190.54C123.842 191.18 124.289 191.707 124.849 192.12C125.422 192.533 126.076 192.833 126.809 193.02C127.556 193.22 128.322 193.32 129.109 193.32C130.082 193.32 130.936 193.207 131.669 192.98C132.416 192.753 133.036 192.44 133.529 192.04C134.036 191.627 134.416 191.14 134.669 190.58C134.922 190.02 135.049 189.413 135.049 188.76C135.049 187.96 134.876 187.307 134.529 186.8C134.196 186.28 133.796 185.867 133.329 185.56C132.862 185.253 132.389 185.033 131.909 184.9C131.442 184.753 131.076 184.653 130.809 184.6C129.916 184.373 129.189 184.187 128.629 184.04C128.082 183.893 127.649 183.747 127.329 183.6C127.022 183.453 126.816 183.293 126.709 183.12C126.602 182.947 126.549 182.72 126.549 182.44C126.549 182.133 126.616 181.88 126.749 181.68C126.882 181.48 127.049 181.313 127.249 181.18C127.462 181.047 127.696 180.953 127.949 180.9C128.202 180.847 128.456 180.82 128.709 180.82C129.096 180.82 129.449 180.853 129.769 180.92C130.102 180.987 130.396 181.1 130.649 181.26C130.902 181.42 131.102 181.64 131.249 181.92C131.409 182.2 131.502 182.553 131.529 182.98H134.569C134.569 182.153 134.409 181.453 134.089 180.88C133.782 180.293 133.362 179.813 132.829 179.44C132.296 179.067 131.682 178.8 130.989 178.64C130.309 178.467 129.596 178.38 128.849 178.38C128.209 178.38 127.569 178.467 126.929 178.64C126.289 178.813 125.716 179.08 125.209 179.44C124.702 179.8 124.289 180.253 123.969 180.8C123.662 181.333 123.509 181.967 123.509 182.7C123.509 183.353 123.629 183.913 123.869 184.38C124.122 184.833 124.449 185.213 124.849 185.52C125.249 185.827 125.702 186.08 126.209 186.28C126.716 186.467 127.236 186.627 127.769 186.76C128.289 186.907 128.802 187.04 129.309 187.16C129.816 187.28 130.269 187.42 130.669 187.58C131.069 187.74 131.389 187.94 131.629 188.18C131.882 188.42 132.009 188.733 132.009 189.12C132.009 189.48 131.916 189.78 131.729 190.02C131.542 190.247 131.309 190.427 131.029 190.56C130.749 190.693 130.449 190.787 130.129 190.84C129.809 190.88 129.509 190.9 129.229 190.9C128.816 190.9 128.416 190.853 128.029 190.76C127.642 190.653 127.302 190.5 127.009 190.3C126.729 190.087 126.502 189.813 126.329 189.48C126.156 189.147 126.069 188.74 126.069 188.26Z" fill="#616E7C"/>
<path d="M143.573 186.72H138.953C138.966 186.52 139.006 186.293 139.073 186.04C139.153 185.787 139.28 185.547 139.453 185.32C139.64 185.093 139.88 184.907 140.173 184.76C140.48 184.6 140.86 184.52 141.313 184.52C142.006 184.52 142.52 184.707 142.853 185.08C143.2 185.453 143.44 186 143.573 186.72ZM138.953 188.52H146.413C146.466 187.72 146.4 186.953 146.213 186.22C146.026 185.487 145.72 184.833 145.293 184.26C144.88 183.687 144.346 183.233 143.693 182.9C143.04 182.553 142.273 182.38 141.393 182.38C140.606 182.38 139.886 182.52 139.233 182.8C138.593 183.08 138.04 183.467 137.573 183.96C137.106 184.44 136.746 185.013 136.493 185.68C136.24 186.347 136.113 187.067 136.113 187.84C136.113 188.64 136.233 189.373 136.473 190.04C136.726 190.707 137.08 191.28 137.533 191.76C137.986 192.24 138.54 192.613 139.193 192.88C139.846 193.133 140.58 193.26 141.393 193.26C142.566 193.26 143.566 192.993 144.393 192.46C145.22 191.927 145.833 191.04 146.233 189.8H143.733C143.64 190.12 143.386 190.427 142.973 190.72C142.56 191 142.066 191.14 141.493 191.14C140.693 191.14 140.08 190.933 139.653 190.52C139.226 190.107 138.993 189.44 138.953 188.52Z" fill="#616E7C"/>
<path d="M153.313 191.14C152.86 191.14 152.473 191.047 152.153 190.86C151.833 190.673 151.573 190.433 151.373 190.14C151.186 189.833 151.046 189.48 150.953 189.08C150.873 188.68 150.833 188.273 150.833 187.86C150.833 187.433 150.873 187.02 150.953 186.62C151.033 186.22 151.166 185.867 151.353 185.56C151.553 185.253 151.806 185.007 152.113 184.82C152.433 184.62 152.826 184.52 153.293 184.52C153.746 184.52 154.126 184.62 154.433 184.82C154.753 185.007 155.013 185.26 155.213 185.58C155.413 185.887 155.553 186.24 155.633 186.64C155.726 187.04 155.773 187.447 155.773 187.86C155.773 188.273 155.733 188.68 155.653 189.08C155.573 189.48 155.433 189.833 155.233 190.14C155.046 190.433 154.793 190.673 154.473 190.86C154.166 191.047 153.78 191.14 153.313 191.14ZM148.093 182.66V196.62H150.933V191.72H150.973C151.32 192.227 151.76 192.613 152.293 192.88C152.84 193.133 153.433 193.26 154.073 193.26C154.833 193.26 155.493 193.113 156.053 192.82C156.626 192.527 157.1 192.133 157.473 191.64C157.86 191.147 158.146 190.58 158.333 189.94C158.52 189.3 158.613 188.633 158.613 187.94C158.613 187.207 158.52 186.507 158.333 185.84C158.146 185.16 157.86 184.567 157.473 184.06C157.086 183.553 156.6 183.147 156.013 182.84C155.426 182.533 154.726 182.38 153.913 182.38C153.273 182.38 152.686 182.507 152.153 182.76C151.62 183.013 151.18 183.42 150.833 183.98H150.793V182.66H148.093Z" fill="#616E7C"/>
<path d="M163.915 182.66V179.56H161.075V182.66H159.355V184.56H161.075V190.66C161.075 191.18 161.162 191.6 161.335 191.92C161.508 192.24 161.742 192.487 162.035 192.66C162.342 192.833 162.688 192.947 163.075 193C163.475 193.067 163.895 193.1 164.335 193.1C164.615 193.1 164.902 193.093 165.195 193.08C165.488 193.067 165.755 193.04 165.995 193V190.8C165.862 190.827 165.722 190.847 165.575 190.86C165.428 190.873 165.275 190.88 165.115 190.88C164.635 190.88 164.315 190.8 164.155 190.64C163.995 190.48 163.915 190.16 163.915 189.68V184.56H165.995V182.66H163.915Z" fill="#616E7C"/>
<path d="M88.216 307.576H90.216V317.272H96.024V319H88.216V307.576Z" fill="#9AA5B0"/>
<path d="M97.192 307.576H99.016V309.304H97.192V307.576ZM97.192 310.728H99.016V319H97.192V310.728Z" fill="#9AA5B0"/>
<path d="M108.648 318.568C108.648 319.816 108.296 320.744 107.592 321.352C106.898 321.971 105.896 322.28 104.584 322.28C104.168 322.28 103.746 322.237 103.32 322.152C102.904 322.067 102.52 321.923 102.168 321.72C101.827 321.517 101.538 321.251 101.304 320.92C101.069 320.589 100.93 320.184 100.888 319.704H102.712C102.765 319.96 102.856 320.168 102.984 320.328C103.112 320.488 103.261 320.611 103.432 320.696C103.613 320.792 103.81 320.851 104.024 320.872C104.237 320.904 104.461 320.92 104.696 320.92C105.432 320.92 105.97 320.739 106.312 320.376C106.653 320.013 106.824 319.491 106.824 318.808V317.544H106.792C106.536 318.003 106.184 318.36 105.736 318.616C105.298 318.872 104.824 319 104.312 319C103.65 319 103.085 318.888 102.616 318.664C102.157 318.429 101.773 318.115 101.464 317.72C101.165 317.315 100.946 316.851 100.808 316.328C100.669 315.805 100.6 315.245 100.6 314.648C100.6 314.093 100.685 313.565 100.856 313.064C101.026 312.563 101.272 312.125 101.592 311.752C101.912 311.368 102.301 311.064 102.76 310.84C103.229 310.616 103.757 310.504 104.344 310.504C104.867 310.504 105.346 310.616 105.784 310.84C106.221 311.053 106.557 311.395 106.792 311.864H106.824V310.728H108.648V318.568ZM104.6 317.56C105.005 317.56 105.346 317.48 105.624 317.32C105.912 317.149 106.141 316.931 106.312 316.664C106.493 316.387 106.621 316.077 106.696 315.736C106.781 315.384 106.824 315.032 106.824 314.68C106.824 314.328 106.781 313.987 106.696 313.656C106.611 313.325 106.477 313.032 106.296 312.776C106.125 312.52 105.896 312.317 105.608 312.168C105.331 312.019 104.994 311.944 104.6 311.944C104.194 311.944 103.853 312.029 103.576 312.2C103.298 312.371 103.075 312.595 102.904 312.872C102.733 313.139 102.611 313.448 102.536 313.8C102.461 314.141 102.424 314.483 102.424 314.824C102.424 315.165 102.466 315.501 102.552 315.832C102.637 316.152 102.765 316.44 102.936 316.696C103.117 316.952 103.341 317.16 103.608 317.32C103.885 317.48 104.216 317.56 104.6 317.56Z" fill="#9AA5B0"/>
<path d="M110.481 307.576H112.305V311.816H112.337C112.561 311.443 112.891 311.133 113.329 310.888C113.777 310.632 114.273 310.504 114.817 310.504C115.723 310.504 116.438 310.739 116.961 311.208C117.483 311.677 117.745 312.381 117.745 313.32V319H115.921V313.8C115.899 313.149 115.761 312.68 115.505 312.392C115.249 312.093 114.849 311.944 114.305 311.944C113.995 311.944 113.718 312.003 113.473 312.12C113.227 312.227 113.019 312.381 112.849 312.584C112.678 312.776 112.545 313.005 112.449 313.272C112.353 313.539 112.305 313.821 112.305 314.12V319H110.481V307.576Z" fill="#9AA5B0"/>
<path d="M118.833 310.728H120.209V308.248H122.033V310.728H123.681V312.088H122.033V316.504C122.033 316.696 122.038 316.861 122.049 317C122.07 317.139 122.107 317.256 122.161 317.352C122.225 317.448 122.315 317.523 122.433 317.576C122.55 317.619 122.71 317.64 122.913 317.64C123.041 317.64 123.169 317.64 123.297 317.64C123.425 317.629 123.553 317.608 123.681 317.576V318.984C123.478 319.005 123.281 319.027 123.089 319.048C122.897 319.069 122.699 319.08 122.497 319.08C122.017 319.08 121.627 319.037 121.329 318.952C121.041 318.856 120.811 318.723 120.641 318.552C120.481 318.371 120.369 318.147 120.305 317.88C120.251 317.613 120.219 317.309 120.209 316.968V312.088H118.833V310.728Z" fill="#9AA5B0"/>
<path d="M89.528 333.192C89.528 333.629 89.6026 334.003 89.752 334.312C89.9013 334.621 90.1093 334.877 90.376 335.08C90.6426 335.272 90.9466 335.416 91.288 335.512C91.64 335.597 92.0186 335.64 92.424 335.64C92.8613 335.64 93.2346 335.592 93.544 335.496C93.8533 335.389 94.104 335.256 94.296 335.096C94.488 334.936 94.6266 334.755 94.712 334.552C94.7973 334.339 94.84 334.125 94.84 333.912C94.84 333.475 94.7386 333.155 94.536 332.952C94.344 332.739 94.1306 332.589 93.896 332.504C93.4906 332.355 93.016 332.216 92.472 332.088C91.9386 331.949 91.2773 331.773 90.488 331.56C89.9973 331.432 89.5866 331.267 89.256 331.064C88.936 330.851 88.68 330.616 88.488 330.36C88.296 330.104 88.1573 329.832 88.072 329.544C87.9973 329.256 87.96 328.963 87.96 328.664C87.96 328.088 88.0773 327.592 88.312 327.176C88.5573 326.749 88.8773 326.397 89.272 326.12C89.6666 325.843 90.1146 325.64 90.616 325.512C91.1173 325.373 91.624 325.304 92.136 325.304C92.7333 325.304 93.2933 325.384 93.816 325.544C94.3493 325.693 94.8133 325.923 95.208 326.232C95.6133 326.541 95.9333 326.925 96.168 327.384C96.4026 327.832 96.52 328.355 96.52 328.952H94.52C94.4666 328.216 94.216 327.699 93.768 327.4C93.32 327.091 92.7493 326.936 92.056 326.936C91.8213 326.936 91.5813 326.963 91.336 327.016C91.0906 327.059 90.8666 327.139 90.664 327.256C90.4613 327.363 90.2906 327.512 90.152 327.704C90.024 327.896 89.96 328.136 89.96 328.424C89.96 328.829 90.0826 329.149 90.328 329.384C90.584 329.608 90.9146 329.779 91.32 329.896C91.3626 329.907 91.528 329.955 91.816 330.04C92.1146 330.115 92.4453 330.2 92.808 330.296C93.1706 330.392 93.5226 330.488 93.864 330.584C94.216 330.669 94.4666 330.733 94.616 330.776C94.9893 330.893 95.3146 331.053 95.592 331.256C95.8693 331.459 96.0986 331.693 96.28 331.96C96.472 332.216 96.6106 332.493 96.696 332.792C96.792 333.091 96.84 333.389 96.84 333.688C96.84 334.328 96.7066 334.877 96.44 335.336C96.184 335.784 95.8426 336.152 95.416 336.44C94.9893 336.728 94.504 336.936 93.96 337.064C93.416 337.203 92.8613 337.272 92.296 337.272C91.6453 337.272 91.032 337.192 90.456 337.032C89.88 336.872 89.3786 336.627 88.952 336.296C88.5253 335.965 88.184 335.544 87.928 335.032C87.672 334.509 87.5386 333.896 87.528 333.192H89.528Z" fill="#9AA5B0"/>
<path d="M98.3315 325.576H100.155V329.816H100.187C100.411 329.443 100.742 329.133 101.179 328.888C101.627 328.632 102.123 328.504 102.667 328.504C103.574 328.504 104.289 328.739 104.811 329.208C105.334 329.677 105.595 330.381 105.595 331.32V337H103.771V331.8C103.75 331.149 103.611 330.68 103.355 330.392C103.099 330.093 102.699 329.944 102.155 329.944C101.846 329.944 101.569 330.003 101.323 330.12C101.078 330.227 100.87 330.381 100.699 330.584C100.529 330.776 100.395 331.005 100.299 331.272C100.203 331.539 100.155 331.821 100.155 332.12V337H98.3315V325.576Z" fill="#9AA5B0"/>
<path d="M111.307 337.224C110.646 337.224 110.054 337.117 109.531 336.904C109.019 336.68 108.582 336.376 108.219 335.992C107.867 335.608 107.595 335.149 107.403 334.616C107.222 334.083 107.131 333.496 107.131 332.856C107.131 332.227 107.222 331.645 107.403 331.112C107.595 330.579 107.867 330.12 108.219 329.736C108.582 329.352 109.019 329.053 109.531 328.84C110.054 328.616 110.646 328.504 111.307 328.504C111.969 328.504 112.555 328.616 113.067 328.84C113.59 329.053 114.027 329.352 114.379 329.736C114.742 330.12 115.014 330.579 115.195 331.112C115.387 331.645 115.483 332.227 115.483 332.856C115.483 333.496 115.387 334.083 115.195 334.616C115.014 335.149 114.742 335.608 114.379 335.992C114.027 336.376 113.59 336.68 113.067 336.904C112.555 337.117 111.969 337.224 111.307 337.224ZM111.307 335.784C111.713 335.784 112.065 335.699 112.363 335.528C112.662 335.357 112.907 335.133 113.099 334.856C113.291 334.579 113.43 334.269 113.515 333.928C113.611 333.576 113.659 333.219 113.659 332.856C113.659 332.504 113.611 332.152 113.515 331.8C113.43 331.448 113.291 331.139 113.099 330.872C112.907 330.595 112.662 330.371 112.363 330.2C112.065 330.029 111.713 329.944 111.307 329.944C110.902 329.944 110.55 330.029 110.251 330.2C109.953 330.371 109.707 330.595 109.515 330.872C109.323 331.139 109.179 331.448 109.083 331.8C108.998 332.152 108.955 332.504 108.955 332.856C108.955 333.219 108.998 333.576 109.083 333.928C109.179 334.269 109.323 334.579 109.515 334.856C109.707 335.133 109.953 335.357 110.251 335.528C110.55 335.699 110.902 335.784 111.307 335.784Z" fill="#9AA5B0"/>
<path d="M116.244 328.728H118.18L119.796 334.904H119.828L121.38 328.728H123.22L124.708 334.904H124.74L126.42 328.728H128.276L125.684 337H123.812L122.276 330.856H122.244L120.724 337H118.804L116.244 328.728Z" fill="#9AA5B0"/>
<path d="M135.126 332.136C135.105 331.848 135.041 331.571 134.934 331.304C134.838 331.037 134.699 330.808 134.518 330.616C134.347 330.413 134.134 330.253 133.878 330.136C133.633 330.008 133.355 329.944 133.046 329.944C132.726 329.944 132.433 330.003 132.166 330.12C131.91 330.227 131.686 330.381 131.494 330.584C131.313 330.776 131.163 331.005 131.046 331.272C130.939 331.539 130.881 331.827 130.87 332.136H135.126ZM130.87 333.336C130.87 333.656 130.913 333.965 130.998 334.264C131.094 334.563 131.233 334.824 131.414 335.048C131.595 335.272 131.825 335.453 132.102 335.592C132.379 335.72 132.71 335.784 133.094 335.784C133.627 335.784 134.054 335.672 134.374 335.448C134.705 335.213 134.95 334.867 135.11 334.408H136.838C136.742 334.856 136.577 335.256 136.342 335.608C136.107 335.96 135.825 336.259 135.494 336.504C135.163 336.739 134.79 336.915 134.374 337.032C133.969 337.16 133.542 337.224 133.094 337.224C132.443 337.224 131.867 337.117 131.366 336.904C130.865 336.691 130.438 336.392 130.086 336.008C129.745 335.624 129.483 335.165 129.302 334.632C129.131 334.099 129.046 333.512 129.046 332.872C129.046 332.285 129.137 331.731 129.318 331.208C129.51 330.675 129.777 330.211 130.118 329.816C130.47 329.411 130.891 329.091 131.382 328.856C131.873 328.621 132.427 328.504 133.046 328.504C133.697 328.504 134.278 328.643 134.79 328.92C135.313 329.187 135.745 329.544 136.086 329.992C136.427 330.44 136.673 330.957 136.822 331.544C136.982 332.12 137.025 332.717 136.95 333.336H130.87Z" fill="#9AA5B0"/>
<path d="M138.333 328.728H140.045V330.328H140.077C140.13 330.104 140.232 329.885 140.381 329.672C140.541 329.459 140.728 329.267 140.941 329.096C141.165 328.915 141.41 328.771 141.677 328.664C141.944 328.557 142.216 328.504 142.493 328.504C142.706 328.504 142.85 328.509 142.925 328.52C143.01 328.531 143.096 328.541 143.181 328.552V330.312C143.053 330.291 142.92 330.275 142.781 330.264C142.653 330.243 142.525 330.232 142.397 330.232C142.088 330.232 141.794 330.296 141.517 330.424C141.25 330.541 141.016 330.723 140.813 330.968C140.61 331.203 140.45 331.496 140.333 331.848C140.216 332.2 140.157 332.605 140.157 333.064V337H138.333V328.728Z" fill="#9AA5B0"/>
<path d="M145.331 334.344C145.384 334.877 145.587 335.251 145.939 335.464C146.291 335.677 146.712 335.784 147.203 335.784C147.373 335.784 147.565 335.773 147.779 335.752C148.003 335.72 148.211 335.667 148.403 335.592C148.595 335.517 148.749 335.411 148.867 335.272C148.995 335.123 149.053 334.931 149.043 334.696C149.032 334.461 148.947 334.269 148.787 334.12C148.627 333.971 148.419 333.853 148.163 333.768C147.917 333.672 147.635 333.592 147.315 333.528C146.995 333.464 146.669 333.395 146.339 333.32C145.997 333.245 145.667 333.155 145.347 333.048C145.037 332.941 144.755 332.797 144.499 332.616C144.253 332.435 144.056 332.205 143.907 331.928C143.757 331.64 143.683 331.288 143.683 330.872C143.683 330.424 143.789 330.051 144.003 329.752C144.227 329.443 144.504 329.197 144.835 329.016C145.176 328.824 145.549 328.691 145.955 328.616C146.371 328.541 146.765 328.504 147.139 328.504C147.565 328.504 147.971 328.552 148.355 328.648C148.749 328.733 149.101 328.877 149.411 329.08C149.731 329.283 149.992 329.549 150.195 329.88C150.408 330.2 150.541 330.589 150.595 331.048H148.691C148.605 330.611 148.403 330.317 148.083 330.168C147.773 330.019 147.416 329.944 147.011 329.944C146.883 329.944 146.728 329.955 146.547 329.976C146.376 329.997 146.211 330.04 146.051 330.104C145.901 330.157 145.773 330.243 145.667 330.36C145.56 330.467 145.507 330.611 145.507 330.792C145.507 331.016 145.581 331.197 145.731 331.336C145.891 331.475 146.093 331.592 146.339 331.688C146.595 331.773 146.883 331.848 147.203 331.912C147.523 331.976 147.853 332.045 148.195 332.12C148.525 332.195 148.851 332.285 149.171 332.392C149.491 332.499 149.773 332.643 150.019 332.824C150.275 333.005 150.477 333.235 150.627 333.512C150.787 333.789 150.867 334.131 150.867 334.536C150.867 335.027 150.755 335.443 150.531 335.784C150.307 336.125 150.013 336.403 149.651 336.616C149.299 336.829 148.904 336.984 148.467 337.08C148.029 337.176 147.597 337.224 147.171 337.224C146.648 337.224 146.163 337.165 145.715 337.048C145.277 336.931 144.893 336.755 144.563 336.52C144.243 336.275 143.987 335.976 143.795 335.624C143.613 335.261 143.517 334.835 143.507 334.344H145.331Z" fill="#9AA5B0"/>
<path d="M89.528 164.192C89.528 164.629 89.6026 165.003 89.752 165.312C89.9013 165.621 90.1093 165.877 90.376 166.08C90.6426 166.272 90.9466 166.416 91.288 166.512C91.64 166.597 92.0186 166.64 92.424 166.64C92.8613 166.64 93.2346 166.592 93.544 166.496C93.8533 166.389 94.104 166.256 94.296 166.096C94.488 165.936 94.6266 165.755 94.712 165.552C94.7973 165.339 94.84 165.125 94.84 164.912C94.84 164.475 94.7386 164.155 94.536 163.952C94.344 163.739 94.1306 163.589 93.896 163.504C93.4906 163.355 93.016 163.216 92.472 163.088C91.9386 162.949 91.2773 162.773 90.488 162.56C89.9973 162.432 89.5866 162.267 89.256 162.064C88.936 161.851 88.68 161.616 88.488 161.36C88.296 161.104 88.1573 160.832 88.072 160.544C87.9973 160.256 87.96 159.963 87.96 159.664C87.96 159.088 88.0773 158.592 88.312 158.176C88.5573 157.749 88.8773 157.397 89.272 157.12C89.6666 156.843 90.1146 156.64 90.616 156.512C91.1173 156.373 91.624 156.304 92.136 156.304C92.7333 156.304 93.2933 156.384 93.816 156.544C94.3493 156.693 94.8133 156.923 95.208 157.232C95.6133 157.541 95.9333 157.925 96.168 158.384C96.4026 158.832 96.52 159.355 96.52 159.952H94.52C94.4666 159.216 94.216 158.699 93.768 158.4C93.32 158.091 92.7493 157.936 92.056 157.936C91.8213 157.936 91.5813 157.963 91.336 158.016C91.0906 158.059 90.8666 158.139 90.664 158.256C90.4613 158.363 90.2906 158.512 90.152 158.704C90.024 158.896 89.96 159.136 89.96 159.424C89.96 159.829 90.0826 160.149 90.328 160.384C90.584 160.608 90.9146 160.779 91.32 160.896C91.3626 160.907 91.528 160.955 91.816 161.04C92.1146 161.115 92.4453 161.2 92.808 161.296C93.1706 161.392 93.5226 161.488 93.864 161.584C94.216 161.669 94.4666 161.733 94.616 161.776C94.9893 161.893 95.3146 162.053 95.592 162.256C95.8693 162.459 96.0986 162.693 96.28 162.96C96.472 163.216 96.6106 163.493 96.696 163.792C96.792 164.091 96.84 164.389 96.84 164.688C96.84 165.328 96.7066 165.877 96.44 166.336C96.184 166.784 95.8426 167.152 95.416 167.44C94.9893 167.728 94.504 167.936 93.96 168.064C93.416 168.203 92.8613 168.272 92.296 168.272C91.6453 168.272 91.032 168.192 90.456 168.032C89.88 167.872 89.3786 167.627 88.952 167.296C88.5253 166.965 88.184 166.544 87.928 166.032C87.672 165.509 87.5386 164.896 87.528 164.192H89.528Z" fill="#9AA5B0"/>
<path d="M105.259 166.16C105.259 166.384 105.286 166.544 105.339 166.64C105.403 166.736 105.521 166.784 105.691 166.784C105.745 166.784 105.809 166.784 105.883 166.784C105.958 166.784 106.043 166.773 106.139 166.752V168.016C106.075 168.037 105.99 168.059 105.883 168.08C105.787 168.112 105.686 168.139 105.579 168.16C105.473 168.181 105.366 168.197 105.259 168.208C105.153 168.219 105.062 168.224 104.987 168.224C104.614 168.224 104.305 168.149 104.059 168C103.814 167.851 103.654 167.589 103.579 167.216C103.217 167.568 102.769 167.824 102.235 167.984C101.713 168.144 101.206 168.224 100.715 168.224C100.342 168.224 99.9848 168.171 99.6435 168.064C99.3021 167.968 98.9981 167.824 98.7315 167.632C98.4755 167.429 98.2675 167.179 98.1075 166.88C97.9581 166.571 97.8835 166.213 97.8835 165.808C97.8835 165.296 97.9741 164.88 98.1555 164.56C98.3475 164.24 98.5928 163.989 98.8915 163.808C99.2008 163.627 99.5421 163.499 99.9155 163.424C100.299 163.339 100.683 163.275 101.067 163.232C101.398 163.168 101.713 163.125 102.011 163.104C102.31 163.072 102.571 163.024 102.795 162.96C103.03 162.896 103.211 162.8 103.339 162.672C103.478 162.533 103.547 162.331 103.547 162.064C103.547 161.829 103.489 161.637 103.371 161.488C103.265 161.339 103.126 161.227 102.955 161.152C102.795 161.067 102.614 161.013 102.411 160.992C102.209 160.96 102.017 160.944 101.835 160.944C101.323 160.944 100.902 161.051 100.571 161.264C100.241 161.477 100.054 161.808 100.011 162.256H98.1875C98.2195 161.723 98.3475 161.28 98.5715 160.928C98.7955 160.576 99.0781 160.293 99.4195 160.08C99.7715 159.867 100.166 159.717 100.603 159.632C101.041 159.547 101.489 159.504 101.947 159.504C102.353 159.504 102.753 159.547 103.147 159.632C103.542 159.717 103.894 159.856 104.203 160.048C104.523 160.24 104.779 160.491 104.971 160.8C105.163 161.099 105.259 161.467 105.259 161.904V166.16ZM103.435 163.856C103.158 164.037 102.817 164.149 102.411 164.192C102.006 164.224 101.601 164.277 101.195 164.352C101.003 164.384 100.817 164.432 100.635 164.496C100.454 164.549 100.294 164.629 100.155 164.736C100.017 164.832 99.9048 164.965 99.8195 165.136C99.7448 165.296 99.7075 165.493 99.7075 165.728C99.7075 165.931 99.7661 166.101 99.8835 166.24C100.001 166.379 100.139 166.491 100.299 166.576C100.47 166.651 100.651 166.704 100.843 166.736C101.046 166.768 101.227 166.784 101.387 166.784C101.59 166.784 101.809 166.757 102.043 166.704C102.278 166.651 102.497 166.56 102.699 166.432C102.913 166.304 103.089 166.144 103.227 165.952C103.366 165.749 103.435 165.504 103.435 165.216V163.856Z" fill="#9AA5B0"/>
<path d="M106.387 159.728H107.763V157.248H109.587V159.728H111.235V161.088H109.587V165.504C109.587 165.696 109.592 165.861 109.603 166C109.624 166.139 109.661 166.256 109.715 166.352C109.779 166.448 109.869 166.523 109.987 166.576C110.104 166.619 110.264 166.64 110.467 166.64C110.595 166.64 110.723 166.64 110.851 166.64C110.979 166.629 111.107 166.608 111.235 166.576V167.984C111.032 168.005 110.835 168.027 110.643 168.048C110.451 168.069 110.253 168.08 110.051 168.08C109.571 168.08 109.181 168.037 108.883 167.952C108.595 167.856 108.365 167.723 108.195 167.552C108.035 167.371 107.923 167.147 107.859 166.88C107.805 166.613 107.773 166.309 107.763 165.968V161.088H106.387V159.728Z" fill="#9AA5B0"/>
<path d="M119.807 168H118.015V166.848H117.983C117.759 167.264 117.423 167.6 116.975 167.856C116.538 168.101 116.09 168.224 115.631 168.224C114.543 168.224 113.754 167.957 113.263 167.424C112.783 166.88 112.543 166.064 112.543 164.976V159.728H114.367V164.8C114.367 165.525 114.506 166.037 114.783 166.336C115.061 166.635 115.45 166.784 115.951 166.784C116.335 166.784 116.655 166.725 116.911 166.608C117.167 166.491 117.375 166.336 117.535 166.144C117.695 165.941 117.807 165.701 117.871 165.424C117.946 165.147 117.983 164.848 117.983 164.528V159.728H119.807V168Z" fill="#9AA5B0"/>
<path d="M121.727 159.728H123.439V161.328H123.471C123.525 161.104 123.626 160.885 123.775 160.672C123.935 160.459 124.122 160.267 124.335 160.096C124.559 159.915 124.805 159.771 125.071 159.664C125.338 159.557 125.61 159.504 125.887 159.504C126.101 159.504 126.245 159.509 126.319 159.52C126.405 159.531 126.49 159.541 126.575 159.552V161.312C126.447 161.291 126.314 161.275 126.175 161.264C126.047 161.243 125.919 161.232 125.791 161.232C125.482 161.232 125.189 161.296 124.911 161.424C124.645 161.541 124.41 161.723 124.207 161.968C124.005 162.203 123.845 162.496 123.727 162.848C123.61 163.2 123.551 163.605 123.551 164.064V168H121.727V159.728Z" fill="#9AA5B0"/>
<path d="M134.859 168H133.131V166.88H133.099C132.854 167.36 132.497 167.707 132.027 167.92C131.558 168.123 131.062 168.224 130.539 168.224C129.889 168.224 129.318 168.112 128.827 167.888C128.347 167.653 127.947 167.339 127.627 166.944C127.307 166.549 127.067 166.085 126.907 165.552C126.747 165.008 126.667 164.427 126.667 163.808C126.667 163.061 126.769 162.416 126.971 161.872C127.174 161.328 127.441 160.88 127.771 160.528C128.113 160.176 128.497 159.92 128.923 159.76C129.361 159.589 129.803 159.504 130.251 159.504C130.507 159.504 130.769 159.531 131.035 159.584C131.302 159.627 131.558 159.701 131.803 159.808C132.049 159.915 132.273 160.053 132.475 160.224C132.689 160.384 132.865 160.576 133.003 160.8H133.035V156.576H134.859V168ZM128.491 163.952C128.491 164.304 128.534 164.651 128.619 164.992C128.715 165.333 128.854 165.637 129.035 165.904C129.227 166.171 129.467 166.384 129.755 166.544C130.043 166.704 130.385 166.784 130.779 166.784C131.185 166.784 131.531 166.699 131.819 166.528C132.118 166.357 132.358 166.133 132.539 165.856C132.731 165.579 132.87 165.269 132.955 164.928C133.051 164.576 133.099 164.219 133.099 163.856C133.099 162.939 132.891 162.224 132.475 161.712C132.07 161.2 131.515 160.944 130.811 160.944C130.385 160.944 130.022 161.035 129.723 161.216C129.435 161.387 129.195 161.616 129.003 161.904C128.822 162.181 128.689 162.501 128.603 162.864C128.529 163.216 128.491 163.579 128.491 163.952Z" fill="#9AA5B0"/>
<path d="M143.773 166.16C143.773 166.384 143.8 166.544 143.853 166.64C143.917 166.736 144.035 166.784 144.205 166.784C144.259 166.784 144.323 166.784 144.397 166.784C144.472 166.784 144.557 166.773 144.653 166.752V168.016C144.589 168.037 144.504 168.059 144.397 168.08C144.301 168.112 144.2 168.139 144.093 168.16C143.987 168.181 143.88 168.197 143.773 168.208C143.667 168.219 143.576 168.224 143.501 168.224C143.128 168.224 142.819 168.149 142.573 168C142.328 167.851 142.168 167.589 142.093 167.216C141.731 167.568 141.283 167.824 140.749 167.984C140.227 168.144 139.72 168.224 139.229 168.224C138.856 168.224 138.499 168.171 138.157 168.064C137.816 167.968 137.512 167.824 137.245 167.632C136.989 167.429 136.781 167.179 136.621 166.88C136.472 166.571 136.397 166.213 136.397 165.808C136.397 165.296 136.488 164.88 136.669 164.56C136.861 164.24 137.107 163.989 137.405 163.808C137.715 163.627 138.056 163.499 138.429 163.424C138.813 163.339 139.197 163.275 139.581 163.232C139.912 163.168 140.227 163.125 140.525 163.104C140.824 163.072 141.085 163.024 141.309 162.96C141.544 162.896 141.725 162.8 141.853 162.672C141.992 162.533 142.061 162.331 142.061 162.064C142.061 161.829 142.003 161.637 141.885 161.488C141.779 161.339 141.64 161.227 141.469 161.152C141.309 161.067 141.128 161.013 140.925 160.992C140.723 160.96 140.531 160.944 140.349 160.944C139.837 160.944 139.416 161.051 139.085 161.264C138.755 161.477 138.568 161.808 138.525 162.256H136.701C136.733 161.723 136.861 161.28 137.085 160.928C137.309 160.576 137.592 160.293 137.933 160.08C138.285 159.867 138.68 159.717 139.117 159.632C139.555 159.547 140.003 159.504 140.461 159.504C140.867 159.504 141.267 159.547 141.661 159.632C142.056 159.717 142.408 159.856 142.717 160.048C143.037 160.24 143.293 160.491 143.485 160.8C143.677 161.099 143.773 161.467 143.773 161.904V166.16ZM141.949 163.856C141.672 164.037 141.331 164.149 140.925 164.192C140.52 164.224 140.115 164.277 139.709 164.352C139.517 164.384 139.331 164.432 139.149 164.496C138.968 164.549 138.808 164.629 138.669 164.736C138.531 164.832 138.419 164.965 138.333 165.136C138.259 165.296 138.221 165.493 138.221 165.728C138.221 165.931 138.28 166.101 138.397 166.24C138.515 166.379 138.653 166.491 138.813 166.576C138.984 166.651 139.165 166.704 139.357 166.736C139.56 166.768 139.741 166.784 139.901 166.784C140.104 166.784 140.323 166.757 140.557 166.704C140.792 166.651 141.011 166.56 141.213 166.432C141.427 166.304 141.603 166.144 141.741 165.952C141.88 165.749 141.949 165.504 141.949 165.216V163.856Z" fill="#9AA5B0"/>
<path d="M144.82 159.728H146.82L148.98 165.904H149.012L151.108 159.728H153.012L149.796 168.448C149.647 168.821 149.498 169.179 149.348 169.52C149.21 169.861 149.034 170.16 148.82 170.416C148.618 170.683 148.362 170.891 148.052 171.04C147.743 171.2 147.348 171.28 146.868 171.28C146.442 171.28 146.02 171.248 145.604 171.184V169.648C145.754 169.669 145.898 169.691 146.036 169.712C146.175 169.744 146.319 169.76 146.468 169.76C146.682 169.76 146.858 169.733 146.996 169.68C147.135 169.627 147.247 169.547 147.332 169.44C147.428 169.344 147.508 169.227 147.572 169.088C147.636 168.949 147.695 168.789 147.748 168.608L147.956 167.968L144.82 159.728Z" fill="#9AA5B0"/>
<path fill-rule="evenodd" clip-rule="evenodd" d="M233 156V154C233 152.895 233.895 152 235 152C236.105 152 237 152.895 237 154V156H240.85C244.247 156 247 158.753 247 162.15V170V190.85C247 194.247 244.247 197 240.85 197H212.15C208.753 197 206 194.247 206 190.85V170V162.15C206 158.753 208.753 156 212.15 156H216V154C216 152.895 216.895 152 218 152C219.105 152 220 152.895 220 154V156H233ZM210 172V190.938C210 192.077 210.923 193 212.062 193H240.938C242.077 193 243 192.077 243 190.938V172H210ZM243 168H210V162.062C210 160.923 210.923 160 212.062 160H216V162C216 163.105 216.895 164 218 164C219.105 164 220 163.105 220 162V160H233V162C233 163.105 233.895 164 235 164C236.105 164 237 163.105 237 162V160H240.938C242.077 160 243 160.923 243 162.062V168Z" fill="#CBD2D9"/>
<path d="M233 156V156.15H233.15V156H233ZM237 156H236.85V156.15H237V156ZM216 156V156.15H216.15V156H216ZM220 156H219.85V156.15H220V156ZM210 172V171.85H209.85V172H210ZM243 172H243.15V171.85H243V172ZM243 168V168.15H243.15V168H243ZM210 168H209.85V168.15H210V168ZM216 160H216.15V159.85H216V160ZM220 160V159.85H219.85V160H220ZM233 160H233.15V159.85H233V160ZM237 160V159.85H236.85V160H237ZM232.85 154V156H233.15V154H232.85ZM235 151.85C233.813 151.85 232.85 152.813 232.85 154H233.15C233.15 152.978 233.978 152.15 235 152.15V151.85ZM237.15 154C237.15 152.813 236.187 151.85 235 151.85V152.15C236.022 152.15 236.85 152.978 236.85 154H237.15ZM237.15 156V154H236.85V156H237.15ZM240.85 155.85H237V156.15H240.85V155.85ZM247.15 162.15C247.15 158.671 244.329 155.85 240.85 155.85V156.15C244.164 156.15 246.85 158.836 246.85 162.15H247.15ZM247.15 170V162.15H246.85V170H247.15ZM247.15 190.85V170H246.85V190.85H247.15ZM240.85 197.15C244.329 197.15 247.15 194.329 247.15 190.85H246.85C246.85 194.164 244.164 196.85 240.85 196.85V197.15ZM212.15 197.15H240.85V196.85H212.15V197.15ZM205.85 190.85C205.85 194.329 208.671 197.15 212.15 197.15V196.85C208.836 196.85 206.15 194.164 206.15 190.85H205.85ZM205.85 170V190.85H206.15V170H205.85ZM205.85 162.15V170H206.15V162.15H205.85ZM212.15 155.85C208.671 155.85 205.85 158.671 205.85 162.15H206.15C206.15 158.836 208.836 156.15 212.15 156.15V155.85ZM216 155.85H212.15V156.15H216V155.85ZM215.85 154V156H216.15V154H215.85ZM218 151.85C216.813 151.85 215.85 152.813 215.85 154H216.15C216.15 152.978 216.978 152.15 218 152.15V151.85ZM220.15 154C220.15 152.813 219.187 151.85 218 151.85V152.15C219.022 152.15 219.85 152.978 219.85 154H220.15ZM220.15 156V154H219.85V156H220.15ZM233 155.85H220V156.15H233V155.85ZM209.85 172V190.938H210.15V172H209.85ZM209.85 190.938C209.85 192.159 210.841 193.15 212.062 193.15V192.85C211.006 192.85 210.15 191.994 210.15 190.938H209.85ZM212.062 193.15H240.938V192.85H212.062V193.15ZM240.938 193.15C242.159 193.15 243.15 192.159 243.15 190.938H242.85C242.85 191.994 241.994 192.85 240.938 192.85V193.15ZM243.15 190.938V172H242.85V190.938H243.15ZM210 172.15H243V171.85H210V172.15ZM243 167.85H210V168.15H243V167.85ZM209.85 162.062V168H210.15V162.062H209.85ZM212.062 159.85C210.841 159.85 209.85 160.841 209.85 162.062H210.15C210.15 161.006 211.006 160.15 212.062 160.15V159.85ZM216 159.85H212.062V160.15H216V159.85ZM216.15 162V160H215.85V162H216.15ZM218 163.85C216.978 163.85 216.15 163.022 216.15 162H215.85C215.85 163.187 216.813 164.15 218 164.15V163.85ZM219.85 162C219.85 163.022 219.022 163.85 218 163.85V164.15C219.187 164.15 220.15 163.187 220.15 162H219.85ZM219.85 160V162H220.15V160H219.85ZM233 159.85H220V160.15H233V159.85ZM233.15 162V160H232.85V162H233.15ZM235 163.85C233.978 163.85 233.15 163.022 233.15 162H232.85C232.85 163.187 233.813 164.15 235 164.15V163.85ZM236.85 162C236.85 163.022 236.022 163.85 235 163.85V164.15C236.187 164.15 237.15 163.187 237.15 162H236.85ZM236.85 160V162H237.15V160H236.85ZM240.938 159.85H237V160.15H240.938V159.85ZM243.15 162.062C243.15 160.841 242.159 159.85 240.938 159.85V160.15C241.994 160.15 242.85 161.006 242.85 162.062H243.15ZM243.15 168V162.062H242.85V168H243.15Z" fill="#F5F7F9"/>
<mask id="mask0" mask-type="alpha" maskUnits="userSpaceOnUse" x="205" y="151" width="43" height="47">
<path fill-rule="evenodd" clip-rule="evenodd" d="M233 156V154C233 152.895 233.895 152 235 152C236.105 152 237 152.895 237 154V156H240.85C244.247 156 247 158.753 247 162.15V170V190.85C247 194.247 244.247 197 240.85 197H212.15C208.753 197 206 194.247 206 190.85V170V162.15C206 158.753 208.753 156 212.15 156H216V154C216 152.895 216.895 152 218 152C219.105 152 220 152.895 220 154V156H233ZM210 172V190.938C210 192.077 210.923 193 212.062 193H240.938C242.077 193 243 192.077 243 190.938V172H210ZM243 168H210V162.062C210 160.923 210.923 160 212.062 160H216V162C216 163.105 216.895 164 218 164C219.105 164 220 163.105 220 162V160H233V162C233 163.105 233.895 164 235 164C236.105 164 237 163.105 237 162V160H240.938C242.077 160 243 160.923 243 162.062V168Z" fill="white"/>
<path d="M233 156V156.15H233.15V156H233ZM237 156H236.85V156.15H237V156ZM216 156V156.15H216.15V156H216ZM220 156H219.85V156.15H220V156ZM210 172V171.85H209.85V172H210ZM243 172H243.15V171.85H243V172ZM243 168V168.15H243.15V168H243ZM210 168H209.85V168.15H210V168ZM216 160H216.15V159.85H216V160ZM220 160V159.85H219.85V160H220ZM233 160H233.15V159.85H233V160ZM237 160V159.85H236.85V160H237ZM232.85 154V156H233.15V154H232.85ZM235 151.85C233.813 151.85 232.85 152.813 232.85 154H233.15C233.15 152.978 233.978 152.15 235 152.15V151.85ZM237.15 154C237.15 152.813 236.187 151.85 235 151.85V152.15C236.022 152.15 236.85 152.978 236.85 154H237.15ZM237.15 156V154H236.85V156H237.15ZM240.85 155.85H237V156.15H240.85V155.85ZM247.15 162.15C247.15 158.671 244.329 155.85 240.85 155.85V156.15C244.164 156.15 246.85 158.836 246.85 162.15H247.15ZM247.15 170V162.15H246.85V170H247.15ZM247.15 190.85V170H246.85V190.85H247.15ZM240.85 197.15C244.329 197.15 247.15 194.329 247.15 190.85H246.85C246.85 194.164 244.164 196.85 240.85 196.85V197.15ZM212.15 197.15H240.85V196.85H212.15V197.15ZM205.85 190.85C205.85 194.329 208.671 197.15 212.15 197.15V196.85C208.836 196.85 206.15 194.164 206.15 190.85H205.85ZM205.85 170V190.85H206.15V170H205.85ZM205.85 162.15V170H206.15V162.15H205.85ZM212.15 155.85C208.671 155.85 205.85 158.671 205.85 162.15H206.15C206.15 158.836 208.836 156.15 212.15 156.15V155.85ZM216 155.85H212.15V156.15H216V155.85ZM215.85 154V156H216.15V154H215.85ZM218 151.85C216.813 151.85 215.85 152.813 215.85 154H216.15C216.15 152.978 216.978 152.15 218 152.15V151.85ZM220.15 154C220.15 152.813 219.187 151.85 218 151.85V152.15C219.022 152.15 219.85 152.978 219.85 154H220.15ZM220.15 156V154H219.85V156H220.15ZM233 155.85H220V156.15H233V155.85ZM209.85 172V190.938H210.15V172H209.85ZM209.85 190.938C209.85 192.159 210.841 193.15 212.062 193.15V192.85C211.006 192.85 210.15 191.994 210.15 190.938H209.85ZM212.062 193.15H240.938V192.85H212.062V193.15ZM240.938 193.15C242.159 193.15 243.15 192.159 243.15 190.938H242.85C242.85 191.994 241.994 192.85 240.938 192.85V193.15ZM243.15 190.938V172H242.85V190.938H243.15ZM210 172.15H243V171.85H210V172.15ZM243 167.85H210V168.15H243V167.85ZM209.85 162.062V168H210.15V162.062H209.85ZM212.062 159.85C210.841 159.85 209.85 160.841 209.85 162.062H210.15C210.15 161.006 211.006 160.15 212.062 160.15V159.85ZM216 159.85H212.062V160.15H216V159.85ZM216.15 162V160H215.85V162H216.15ZM218 163.85C216.978 163.85 216.15 163.022 216.15 162H215.85C215.85 163.187 216.813 164.15 218 164.15V163.85ZM219.85 162C219.85 163.022 219.022 163.85 218 163.85V164.15C219.187 164.15 220.15 163.187 220.15 162H219.85ZM219.85 160V162H220.15V160H219.85ZM233 159.85H220V160.15H233V159.85ZM233.15 162V160H232.85V162H233.15ZM235 163.85C233.978 163.85 233.15 163.022 233.15 162H232.85C232.85 163.187 233.813 164.15 235 164.15V163.85ZM236.85 162C236.85 163.022 236.022 163.85 235 163.85V164.15C236.187 164.15 237.15 163.187 237.15 162H236.85ZM236.85 160V162H237.15V160H236.85ZM240.938 159.85H237V160.15H240.938V159.85ZM243.15 162.062C243.15 160.841 242.159 159.85 240.938 159.85V160.15C241.994 160.15 242.85 161.006 242.85 162.062H243.15ZM243.15 168V162.062H242.85V168H243.15Z" fill="white"/>
</mask>
<g mask="url(#mask0)">
</g>
<rect x="287" y="67" width="261" height="317" rx="8" fill="white"/>
<path d="M103.478 273L107.702 257.292H104.314L101.74 268.116H101.696L99.012 257.292H95.778L93.05 267.984H93.006L90.52 257.292H87.066L91.224 273H94.722L97.34 262.308H97.384L100.046 273H103.478Z" fill="#323F4A"/>
<path d="M115.369 266.092H110.287C110.301 265.872 110.345 265.623 110.419 265.344C110.507 265.065 110.646 264.801 110.837 264.552C111.042 264.303 111.306 264.097 111.629 263.936C111.966 263.76 112.384 263.672 112.883 263.672C113.645 263.672 114.21 263.877 114.577 264.288C114.958 264.699 115.222 265.3 115.369 266.092ZM110.287 268.072H118.493C118.551 267.192 118.478 266.349 118.273 265.542C118.067 264.735 117.73 264.017 117.261 263.386C116.806 262.755 116.219 262.257 115.501 261.89C114.782 261.509 113.939 261.318 112.971 261.318C112.105 261.318 111.313 261.472 110.595 261.78C109.891 262.088 109.282 262.513 108.769 263.056C108.255 263.584 107.859 264.215 107.581 264.948C107.302 265.681 107.163 266.473 107.163 267.324C107.163 268.204 107.295 269.011 107.559 269.744C107.837 270.477 108.226 271.108 108.725 271.636C109.223 272.164 109.832 272.575 110.551 272.868C111.269 273.147 112.076 273.286 112.971 273.286C114.261 273.286 115.361 272.993 116.271 272.406C117.18 271.819 117.855 270.844 118.295 269.48H115.545C115.442 269.832 115.163 270.169 114.709 270.492C114.254 270.8 113.711 270.954 113.081 270.954C112.201 270.954 111.526 270.727 111.057 270.272C110.587 269.817 110.331 269.084 110.287 268.072Z" fill="#323F4A"/>
<path d="M120.209 265.124C120.253 264.391 120.436 263.782 120.759 263.298C121.081 262.814 121.492 262.425 121.991 262.132C122.489 261.839 123.047 261.633 123.663 261.516C124.293 261.384 124.924 261.318 125.555 261.318C126.127 261.318 126.706 261.362 127.293 261.45C127.879 261.523 128.415 261.677 128.899 261.912C129.383 262.147 129.779 262.477 130.087 262.902C130.395 263.313 130.549 263.863 130.549 264.552V270.47C130.549 270.983 130.578 271.475 130.637 271.944C130.695 272.413 130.798 272.765 130.945 273H127.777C127.718 272.824 127.667 272.648 127.623 272.472C127.593 272.281 127.571 272.091 127.557 271.9C127.058 272.413 126.471 272.773 125.797 272.978C125.122 273.183 124.433 273.286 123.729 273.286C123.186 273.286 122.68 273.22 122.211 273.088C121.741 272.956 121.331 272.751 120.979 272.472C120.627 272.193 120.348 271.841 120.143 271.416C119.952 270.991 119.857 270.485 119.857 269.898C119.857 269.253 119.967 268.725 120.187 268.314C120.421 267.889 120.715 267.551 121.067 267.302C121.433 267.053 121.844 266.869 122.299 266.752C122.768 266.62 123.237 266.517 123.707 266.444C124.176 266.371 124.638 266.312 125.093 266.268C125.547 266.224 125.951 266.158 126.303 266.07C126.655 265.982 126.933 265.857 127.139 265.696C127.344 265.52 127.439 265.271 127.425 264.948C127.425 264.611 127.366 264.347 127.249 264.156C127.146 263.951 126.999 263.797 126.809 263.694C126.633 263.577 126.42 263.503 126.171 263.474C125.936 263.43 125.679 263.408 125.401 263.408C124.785 263.408 124.301 263.54 123.949 263.804C123.597 264.068 123.391 264.508 123.333 265.124H120.209ZM127.425 267.434C127.293 267.551 127.124 267.647 126.919 267.72C126.728 267.779 126.515 267.83 126.281 267.874C126.061 267.918 125.826 267.955 125.577 267.984C125.327 268.013 125.078 268.05 124.829 268.094C124.594 268.138 124.359 268.197 124.125 268.27C123.905 268.343 123.707 268.446 123.531 268.578C123.369 268.695 123.237 268.849 123.135 269.04C123.032 269.231 122.981 269.473 122.981 269.766C122.981 270.045 123.032 270.279 123.135 270.47C123.237 270.661 123.377 270.815 123.553 270.932C123.729 271.035 123.934 271.108 124.169 271.152C124.403 271.196 124.645 271.218 124.895 271.218C125.511 271.218 125.987 271.115 126.325 270.91C126.662 270.705 126.911 270.463 127.073 270.184C127.234 269.891 127.329 269.597 127.359 269.304C127.403 269.011 127.425 268.776 127.425 268.6V267.434Z" fill="#323F4A"/>
<path d="M136.929 261.626V258.216H133.805V261.626H131.913V263.716H133.805V270.426C133.805 270.998 133.9 271.46 134.091 271.812C134.281 272.164 134.538 272.435 134.861 272.626C135.198 272.817 135.579 272.941 136.005 273C136.445 273.073 136.907 273.11 137.391 273.11C137.699 273.11 138.014 273.103 138.337 273.088C138.659 273.073 138.953 273.044 139.217 273V270.58C139.07 270.609 138.916 270.631 138.755 270.646C138.593 270.661 138.425 270.668 138.249 270.668C137.721 270.668 137.369 270.58 137.193 270.404C137.017 270.228 136.929 269.876 136.929 269.348V263.716H139.217V261.626H136.929Z" fill="#323F4A"/>
<path d="M140.698 257.292V273H143.822V267.038C143.822 265.879 144.013 265.051 144.394 264.552C144.775 264.039 145.391 263.782 146.242 263.782C146.99 263.782 147.511 264.017 147.804 264.486C148.097 264.941 148.244 265.637 148.244 266.576V273H151.368V266.004C151.368 265.3 151.302 264.662 151.17 264.09C151.053 263.503 150.84 263.012 150.532 262.616C150.224 262.205 149.799 261.89 149.256 261.67C148.728 261.435 148.046 261.318 147.21 261.318C146.623 261.318 146.022 261.472 145.406 261.78C144.79 262.073 144.284 262.55 143.888 263.21H143.822V257.292H140.698Z" fill="#323F4A"/>
<path d="M161.39 266.092H156.308C156.323 265.872 156.367 265.623 156.44 265.344C156.528 265.065 156.668 264.801 156.858 264.552C157.064 264.303 157.328 264.097 157.65 263.936C157.988 263.76 158.406 263.672 158.904 263.672C159.667 263.672 160.232 263.877 160.598 264.288C160.98 264.699 161.244 265.3 161.39 266.092ZM156.308 268.072H164.514C164.573 267.192 164.5 266.349 164.294 265.542C164.089 264.735 163.752 264.017 163.282 263.386C162.828 262.755 162.241 262.257 161.522 261.89C160.804 261.509 159.96 261.318 158.992 261.318C158.127 261.318 157.335 261.472 156.616 261.78C155.912 262.088 155.304 262.513 154.79 263.056C154.277 263.584 153.881 264.215 153.602 264.948C153.324 265.681 153.184 266.473 153.184 267.324C153.184 268.204 153.316 269.011 153.58 269.744C153.859 270.477 154.248 271.108 154.746 271.636C155.245 272.164 155.854 272.575 156.572 272.868C157.291 273.147 158.098 273.286 158.992 273.286C160.283 273.286 161.383 272.993 162.292 272.406C163.202 271.819 163.876 270.844 164.316 269.48H161.566C161.464 269.832 161.185 270.169 160.73 270.492C160.276 270.8 159.733 270.954 159.102 270.954C158.222 270.954 157.548 270.727 157.078 270.272C156.609 269.817 156.352 269.084 156.308 268.072Z" fill="#323F4A"/>
<path d="M166.362 261.626V273H169.486V267.874C169.486 267.361 169.538 266.884 169.64 266.444C169.743 266.004 169.912 265.623 170.146 265.3C170.396 264.963 170.718 264.699 171.114 264.508C171.51 264.317 171.994 264.222 172.566 264.222C172.757 264.222 172.955 264.237 173.16 264.266C173.366 264.281 173.542 264.303 173.688 264.332V261.428C173.439 261.355 173.212 261.318 173.006 261.318C172.61 261.318 172.229 261.377 171.862 261.494C171.496 261.611 171.151 261.78 170.828 262C170.506 262.205 170.22 262.462 169.97 262.77C169.721 263.063 169.523 263.386 169.376 263.738H169.332V261.626H166.362Z" fill="#323F4A"/>
<path d="M91.972 101.096V91.196H94.436C95.2867 91.196 95.998 91.3207 96.57 91.57C97.1567 91.8047 97.626 92.1493 97.978 92.604C98.33 93.0587 98.5794 93.6087 98.726 94.254C98.8874 94.8847 98.968 95.596 98.968 96.388C98.968 97.2533 98.858 97.9867 98.638 98.588C98.418 99.1893 98.1247 99.6807 97.758 100.062C97.3914 100.429 96.9734 100.693 96.504 100.854C96.0347 101.015 95.5507 101.096 95.052 101.096H91.972ZM88.518 88.292V104H95.294C96.4967 104 97.538 103.802 98.418 103.406C99.3127 102.995 100.053 102.438 100.64 101.734C101.241 101.03 101.689 100.194 101.982 99.226C102.275 98.258 102.422 97.202 102.422 96.058C102.422 94.7527 102.239 93.616 101.872 92.648C101.52 91.68 101.021 90.8733 100.376 90.228C99.7454 89.5827 98.99 89.0987 98.11 88.776C97.2447 88.4533 96.306 88.292 95.294 88.292H88.518Z" fill="#323F4A"/>
<path d="M104.358 96.124C104.402 95.3907 104.585 94.782 104.908 94.298C105.231 93.814 105.641 93.4253 106.14 93.132C106.639 92.8387 107.196 92.6333 107.812 92.516C108.443 92.384 109.073 92.318 109.704 92.318C110.276 92.318 110.855 92.362 111.442 92.45C112.029 92.5233 112.564 92.6773 113.048 92.912C113.532 93.1467 113.928 93.4767 114.236 93.902C114.544 94.3127 114.698 94.8627 114.698 95.552V101.47C114.698 101.983 114.727 102.475 114.786 102.944C114.845 103.413 114.947 103.765 115.094 104H111.926C111.867 103.824 111.816 103.648 111.772 103.472C111.743 103.281 111.721 103.091 111.706 102.9C111.207 103.413 110.621 103.773 109.946 103.978C109.271 104.183 108.582 104.286 107.878 104.286C107.335 104.286 106.829 104.22 106.36 104.088C105.891 103.956 105.48 103.751 105.128 103.472C104.776 103.193 104.497 102.841 104.292 102.416C104.101 101.991 104.006 101.485 104.006 100.898C104.006 100.253 104.116 99.7247 104.336 99.314C104.571 98.8887 104.864 98.5513 105.216 98.302C105.583 98.0527 105.993 97.8693 106.448 97.752C106.917 97.62 107.387 97.5173 107.856 97.444C108.325 97.3707 108.787 97.312 109.242 97.268C109.697 97.224 110.1 97.158 110.452 97.07C110.804 96.982 111.083 96.8573 111.288 96.696C111.493 96.52 111.589 96.2707 111.574 95.948C111.574 95.6107 111.515 95.3467 111.398 95.156C111.295 94.9507 111.149 94.7967 110.958 94.694C110.782 94.5767 110.569 94.5033 110.32 94.474C110.085 94.43 109.829 94.408 109.55 94.408C108.934 94.408 108.45 94.54 108.098 94.804C107.746 95.068 107.541 95.508 107.482 96.124H104.358ZM111.574 98.434C111.442 98.5513 111.273 98.6467 111.068 98.72C110.877 98.7787 110.665 98.83 110.43 98.874C110.21 98.918 109.975 98.9547 109.726 98.984C109.477 99.0133 109.227 99.05 108.978 99.094C108.743 99.138 108.509 99.1967 108.274 99.27C108.054 99.3433 107.856 99.446 107.68 99.578C107.519 99.6953 107.387 99.8493 107.284 100.04C107.181 100.231 107.13 100.473 107.13 100.766C107.13 101.045 107.181 101.279 107.284 101.47C107.387 101.661 107.526 101.815 107.702 101.932C107.878 102.035 108.083 102.108 108.318 102.152C108.553 102.196 108.795 102.218 109.044 102.218C109.66 102.218 110.137 102.115 110.474 101.91C110.811 101.705 111.061 101.463 111.222 101.184C111.383 100.891 111.479 100.597 111.508 100.304C111.552 100.011 111.574 99.776 111.574 99.6V98.434Z" fill="#323F4A"/>
<path d="M121.078 92.626V89.216H117.954V92.626H116.062V94.716H117.954V101.426C117.954 101.998 118.049 102.46 118.24 102.812C118.431 103.164 118.687 103.435 119.01 103.626C119.347 103.817 119.729 103.941 120.154 104C120.594 104.073 121.056 104.11 121.54 104.11C121.848 104.11 122.163 104.103 122.486 104.088C122.809 104.073 123.102 104.044 123.366 104V101.58C123.219 101.609 123.065 101.631 122.904 101.646C122.743 101.661 122.574 101.668 122.398 101.668C121.87 101.668 121.518 101.58 121.342 101.404C121.166 101.228 121.078 100.876 121.078 100.348V94.716H123.366V92.626H121.078Z" fill="#323F4A"/>
<path d="M132.503 97.092H127.421C127.436 96.872 127.48 96.6227 127.553 96.344C127.641 96.0653 127.781 95.8013 127.971 95.552C128.177 95.3027 128.441 95.0973 128.763 94.936C129.101 94.76 129.519 94.672 130.017 94.672C130.78 94.672 131.345 94.8773 131.711 95.288C132.093 95.6987 132.357 96.3 132.503 97.092ZM127.421 99.072H135.627C135.686 98.192 135.613 97.3487 135.407 96.542C135.202 95.7353 134.865 95.0167 134.395 94.386C133.941 93.7553 133.354 93.2567 132.635 92.89C131.917 92.5087 131.073 92.318 130.105 92.318C129.24 92.318 128.448 92.472 127.729 92.78C127.025 93.088 126.417 93.5133 125.903 94.056C125.39 94.584 124.994 95.2147 124.715 95.948C124.437 96.6813 124.297 97.4733 124.297 98.324C124.297 99.204 124.429 100.011 124.693 100.744C124.972 101.477 125.361 102.108 125.859 102.636C126.358 103.164 126.967 103.575 127.685 103.868C128.404 104.147 129.211 104.286 130.105 104.286C131.396 104.286 132.496 103.993 133.405 103.406C134.315 102.819 134.989 101.844 135.429 100.48H132.679C132.577 100.832 132.298 101.169 131.843 101.492C131.389 101.8 130.846 101.954 130.215 101.954C129.335 101.954 128.661 101.727 128.191 101.272C127.722 100.817 127.465 100.084 127.421 99.072Z" fill="#323F4A"/>
<path d="M310.518 89.292V105H313.752V94.484H313.796L320.33 105H323.784V89.292H320.55V99.83H320.506L313.95 89.292H310.518Z" fill="#323F4A"/>
<path d="M329.262 99.324C329.262 98.8693 329.306 98.422 329.394 97.982C329.482 97.542 329.629 97.1533 329.834 96.816C330.054 96.4787 330.34 96.2073 330.692 96.002C331.044 95.782 331.484 95.672 332.012 95.672C332.54 95.672 332.98 95.782 333.332 96.002C333.699 96.2073 333.985 96.4787 334.19 96.816C334.41 97.1533 334.564 97.542 334.652 97.982C334.74 98.422 334.784 98.8693 334.784 99.324C334.784 99.7787 334.74 100.226 334.652 100.666C334.564 101.091 334.41 101.48 334.19 101.832C333.985 102.169 333.699 102.441 333.332 102.646C332.98 102.851 332.54 102.954 332.012 102.954C331.484 102.954 331.044 102.851 330.692 102.646C330.34 102.441 330.054 102.169 329.834 101.832C329.629 101.48 329.482 101.091 329.394 100.666C329.306 100.226 329.262 99.7787 329.262 99.324ZM326.138 99.324C326.138 100.233 326.277 101.055 326.556 101.788C326.835 102.521 327.231 103.152 327.744 103.68C328.257 104.193 328.873 104.589 329.592 104.868C330.311 105.147 331.117 105.286 332.012 105.286C332.907 105.286 333.713 105.147 334.432 104.868C335.165 104.589 335.789 104.193 336.302 103.68C336.815 103.152 337.211 102.521 337.49 101.788C337.769 101.055 337.908 100.233 337.908 99.324C337.908 98.4147 337.769 97.5933 337.49 96.86C337.211 96.112 336.815 95.4813 336.302 94.968C335.789 94.44 335.165 94.0367 334.432 93.758C333.713 93.4647 332.907 93.318 332.012 93.318C331.117 93.318 330.311 93.4647 329.592 93.758C328.873 94.0367 328.257 94.44 327.744 94.968C327.231 95.4813 326.835 96.112 326.556 96.86C326.277 97.5933 326.138 98.4147 326.138 99.324Z" fill="#323F4A"/>
<path d="M343.894 93.626V90.216H340.77V93.626H338.878V95.716H340.77V102.426C340.77 102.998 340.866 103.46 341.056 103.812C341.247 104.164 341.504 104.435 341.826 104.626C342.164 104.817 342.545 104.941 342.97 105C343.41 105.073 343.872 105.11 344.356 105.11C344.664 105.11 344.98 105.103 345.302 105.088C345.625 105.073 345.918 105.044 346.182 105V102.58C346.036 102.609 345.882 102.631 345.72 102.646C345.559 102.661 345.39 102.668 345.214 102.668C344.686 102.668 344.334 102.58 344.158 102.404C343.982 102.228 343.894 101.876 343.894 101.348V95.716H346.182V93.626H343.894Z" fill="#323F4A"/>
<path d="M350.876 91.866V89.292H347.752V91.866H350.876ZM347.752 93.626V105H350.876V93.626H347.752Z" fill="#323F4A"/>
<path d="M354.013 95.716V105H357.137V95.716H359.293V93.626H357.137V92.944C357.137 92.4747 357.225 92.1447 357.401 91.954C357.592 91.7487 357.9 91.646 358.325 91.646C358.721 91.646 359.102 91.668 359.469 91.712V89.38C359.205 89.3653 358.934 89.3507 358.655 89.336C358.376 89.3067 358.098 89.292 357.819 89.292C356.543 89.292 355.59 89.6147 354.959 90.26C354.328 90.9053 354.013 91.734 354.013 92.746V93.626H352.143V95.716H354.013ZM361.185 93.626V105H364.309V93.626H361.185ZM364.309 91.866V89.292H361.185V91.866H364.309Z" fill="#323F4A"/>
<path d="M374.519 97.63H377.577C377.533 96.8967 377.357 96.266 377.049 95.738C376.741 95.1953 376.338 94.748 375.839 94.396C375.355 94.0293 374.798 93.758 374.167 93.582C373.551 93.406 372.906 93.318 372.231 93.318C371.307 93.318 370.486 93.472 369.767 93.78C369.049 94.088 368.44 94.5207 367.941 95.078C367.443 95.6207 367.061 96.2733 366.797 97.036C366.548 97.784 366.423 98.598 366.423 99.478C366.423 100.329 366.563 101.113 366.841 101.832C367.12 102.536 367.509 103.145 368.007 103.658C368.506 104.171 369.107 104.575 369.811 104.868C370.53 105.147 371.315 105.286 372.165 105.286C373.676 105.286 374.915 104.89 375.883 104.098C376.851 103.306 377.438 102.155 377.643 100.644H374.629C374.527 101.348 374.27 101.913 373.859 102.338C373.463 102.749 372.891 102.954 372.143 102.954C371.659 102.954 371.249 102.844 370.911 102.624C370.574 102.404 370.303 102.125 370.097 101.788C369.907 101.436 369.767 101.047 369.679 100.622C369.591 100.197 369.547 99.7787 369.547 99.368C369.547 98.9427 369.591 98.5173 369.679 98.092C369.767 97.652 369.914 97.256 370.119 96.904C370.339 96.5373 370.618 96.244 370.955 96.024C371.293 95.7893 371.711 95.672 372.209 95.672C373.544 95.672 374.314 96.3247 374.519 97.63Z" fill="#323F4A"/>
<path d="M379.271 97.124C379.315 96.3907 379.499 95.782 379.821 95.298C380.144 94.814 380.555 94.4253 381.053 94.132C381.552 93.8387 382.109 93.6333 382.725 93.516C383.356 93.384 383.987 93.318 384.617 93.318C385.189 93.318 385.769 93.362 386.355 93.45C386.942 93.5233 387.477 93.6773 387.961 93.912C388.445 94.1467 388.841 94.4767 389.149 94.902C389.457 95.3127 389.611 95.8627 389.611 96.552V102.47C389.611 102.983 389.641 103.475 389.699 103.944C389.758 104.413 389.861 104.765 390.007 105H386.839C386.781 104.824 386.729 104.648 386.685 104.472C386.656 104.281 386.634 104.091 386.619 103.9C386.121 104.413 385.534 104.773 384.859 104.978C384.185 105.183 383.495 105.286 382.791 105.286C382.249 105.286 381.743 105.22 381.273 105.088C380.804 104.956 380.393 104.751 380.041 104.472C379.689 104.193 379.411 103.841 379.205 103.416C379.015 102.991 378.919 102.485 378.919 101.898C378.919 101.253 379.029 100.725 379.249 100.314C379.484 99.8887 379.777 99.5513 380.129 99.302C380.496 99.0527 380.907 98.8693 381.361 98.752C381.831 98.62 382.3 98.5173 382.769 98.444C383.239 98.3707 383.701 98.312 384.155 98.268C384.61 98.224 385.013 98.158 385.365 98.07C385.717 97.982 385.996 97.8573 386.201 97.696C386.407 97.52 386.502 97.2707 386.487 96.948C386.487 96.6107 386.429 96.3467 386.311 96.156C386.209 95.9507 386.062 95.7967 385.871 95.694C385.695 95.5767 385.483 95.5033 385.233 95.474C384.999 95.43 384.742 95.408 384.463 95.408C383.847 95.408 383.363 95.54 383.011 95.804C382.659 96.068 382.454 96.508 382.395 97.124H379.271ZM386.487 99.434C386.355 99.5513 386.187 99.6467 385.981 99.72C385.791 99.7787 385.578 99.83 385.343 99.874C385.123 99.918 384.889 99.9547 384.639 99.984C384.39 100.013 384.141 100.05 383.891 100.094C383.657 100.138 383.422 100.197 383.187 100.27C382.967 100.343 382.769 100.446 382.593 100.578C382.432 100.695 382.3 100.849 382.197 101.04C382.095 101.231 382.043 101.473 382.043 101.766C382.043 102.045 382.095 102.279 382.197 102.47C382.3 102.661 382.439 102.815 382.615 102.932C382.791 103.035 382.997 103.108 383.231 103.152C383.466 103.196 383.708 103.218 383.957 103.218C384.573 103.218 385.05 103.115 385.387 102.91C385.725 102.705 385.974 102.463 386.135 102.184C386.297 101.891 386.392 101.597 386.421 101.304C386.465 101.011 386.487 100.776 386.487 100.6V99.434Z" fill="#323F4A"/>
<path d="M395.991 93.626V90.216H392.867V93.626H390.975V95.716H392.867V102.426C392.867 102.998 392.963 103.46 393.153 103.812C393.344 104.164 393.601 104.435 393.923 104.626C394.261 104.817 394.642 104.941 395.067 105C395.507 105.073 395.969 105.11 396.453 105.11C396.761 105.11 397.077 105.103 397.399 105.088C397.722 105.073 398.015 105.044 398.279 105V102.58C398.133 102.609 397.979 102.631 397.817 102.646C397.656 102.661 397.487 102.668 397.311 102.668C396.783 102.668 396.431 102.58 396.255 102.404C396.079 102.228 395.991 101.876 395.991 101.348V95.716H398.279V93.626H395.991Z" fill="#323F4A"/>
<path d="M402.973 91.866V89.292H399.849V91.866H402.973ZM399.849 93.626V105H402.973V93.626H399.849Z" fill="#323F4A"/>
<path d="M408.2 99.324C408.2 98.8693 408.244 98.422 408.332 97.982C408.42 97.542 408.567 97.1533 408.772 96.816C408.992 96.4787 409.278 96.2073 409.63 96.002C409.982 95.782 410.422 95.672 410.95 95.672C411.478 95.672 411.918 95.782 412.27 96.002C412.637 96.2073 412.923 96.4787 413.128 96.816C413.348 97.1533 413.502 97.542 413.59 97.982C413.678 98.422 413.722 98.8693 413.722 99.324C413.722 99.7787 413.678 100.226 413.59 100.666C413.502 101.091 413.348 101.48 413.128 101.832C412.923 102.169 412.637 102.441 412.27 102.646C411.918 102.851 411.478 102.954 410.95 102.954C410.422 102.954 409.982 102.851 409.63 102.646C409.278 102.441 408.992 102.169 408.772 101.832C408.567 101.48 408.42 101.091 408.332 100.666C408.244 100.226 408.2 99.7787 408.2 99.324ZM405.076 99.324C405.076 100.233 405.215 101.055 405.494 101.788C405.773 102.521 406.169 103.152 406.682 103.68C407.195 104.193 407.811 104.589 408.53 104.868C409.249 105.147 410.055 105.286 410.95 105.286C411.845 105.286 412.651 105.147 413.37 104.868C414.103 104.589 414.727 104.193 415.24 103.68C415.753 103.152 416.149 102.521 416.428 101.788C416.707 101.055 416.846 100.233 416.846 99.324C416.846 98.4147 416.707 97.5933 416.428 96.86C416.149 96.112 415.753 95.4813 415.24 94.968C414.727 94.44 414.103 94.0367 413.37 93.758C412.651 93.4647 411.845 93.318 410.95 93.318C410.055 93.318 409.249 93.4647 408.53 93.758C407.811 94.0367 407.195 94.44 406.682 94.968C406.169 95.4813 405.773 96.112 405.494 96.86C405.215 97.5933 405.076 98.4147 405.076 99.324Z" fill="#323F4A"/>
<path d="M418.872 93.626V105H421.996V99.038C421.996 97.8793 422.187 97.0507 422.568 96.552C422.95 96.0387 423.566 95.782 424.416 95.782C425.164 95.782 425.685 96.0167 425.978 96.486C426.272 96.9407 426.418 97.6373 426.418 98.576V105H429.542V98.004C429.542 97.3 429.476 96.662 429.344 96.09C429.227 95.5033 429.014 95.012 428.706 94.616C428.398 94.2053 427.973 93.89 427.43 93.67C426.902 93.4353 426.22 93.318 425.384 93.318C424.724 93.318 424.079 93.472 423.448 93.78C422.818 94.0733 422.304 94.55 421.908 95.21H421.842V93.626H418.872Z" fill="#323F4A"/>
<path d="M434.329 101.304H431.359C431.388 102.067 431.557 102.705 431.865 103.218C432.187 103.717 432.591 104.12 433.075 104.428C433.573 104.736 434.138 104.956 434.769 105.088C435.399 105.22 436.045 105.286 436.705 105.286C437.35 105.286 437.981 105.22 438.597 105.088C439.227 104.971 439.785 104.758 440.269 104.45C440.753 104.142 441.141 103.739 441.435 103.24C441.743 102.727 441.897 102.096 441.897 101.348C441.897 100.82 441.794 100.38 441.589 100.028C441.383 99.6613 441.112 99.3607 440.775 99.126C440.437 98.8767 440.049 98.6787 439.609 98.532C439.183 98.3853 438.743 98.2607 438.289 98.158C437.849 98.0553 437.416 97.96 436.991 97.872C436.565 97.784 436.184 97.6887 435.847 97.586C435.524 97.4687 435.26 97.322 435.055 97.146C434.849 96.97 434.747 96.7427 434.747 96.464C434.747 96.2293 434.805 96.046 434.923 95.914C435.04 95.7673 435.179 95.6573 435.341 95.584C435.517 95.5107 435.707 95.4667 435.913 95.452C436.118 95.4227 436.309 95.408 436.485 95.408C437.042 95.408 437.526 95.518 437.937 95.738C438.347 95.9433 438.575 96.3467 438.619 96.948H441.589C441.53 96.244 441.347 95.6647 441.039 95.21C440.745 94.7407 440.371 94.3667 439.917 94.088C439.462 93.8093 438.941 93.6113 438.355 93.494C437.783 93.3767 437.189 93.318 436.573 93.318C435.957 93.318 435.355 93.3767 434.769 93.494C434.182 93.5967 433.654 93.7873 433.185 94.066C432.715 94.33 432.334 94.6967 432.041 95.166C431.762 95.6353 431.623 96.2367 431.623 96.97C431.623 97.4687 431.725 97.894 431.931 98.246C432.136 98.5833 432.407 98.8693 432.745 99.104C433.082 99.324 433.463 99.5073 433.889 99.654C434.329 99.786 434.776 99.9033 435.231 100.006C436.345 100.241 437.211 100.475 437.827 100.71C438.457 100.945 438.773 101.297 438.773 101.766C438.773 102.045 438.707 102.279 438.575 102.47C438.443 102.646 438.274 102.793 438.069 102.91C437.878 103.013 437.658 103.093 437.409 103.152C437.174 103.196 436.947 103.218 436.727 103.218C436.419 103.218 436.118 103.181 435.825 103.108C435.546 103.035 435.297 102.925 435.077 102.778C434.857 102.617 434.673 102.419 434.527 102.184C434.395 101.935 434.329 101.641 434.329 101.304Z" fill="#323F4A"/>
<path d="M384.241 230.148V243H386.887V234.396H386.923L392.269 243H395.095V230.148H392.449V238.77H392.413L387.049 230.148H384.241Z" fill="#BFCAD4"/>
<path d="M399.577 238.356C399.577 237.984 399.613 237.618 399.685 237.258C399.757 236.898 399.877 236.58 400.045 236.304C400.225 236.028 400.459 235.806 400.747 235.638C401.035 235.458 401.395 235.368 401.827 235.368C402.259 235.368 402.619 235.458 402.907 235.638C403.207 235.806 403.441 236.028 403.609 236.304C403.789 236.58 403.915 236.898 403.987 237.258C404.059 237.618 404.095 237.984 404.095 238.356C404.095 238.728 404.059 239.094 403.987 239.454C403.915 239.802 403.789 240.12 403.609 240.408C403.441 240.684 403.207 240.906 402.907 241.074C402.619 241.242 402.259 241.326 401.827 241.326C401.395 241.326 401.035 241.242 400.747 241.074C400.459 240.906 400.225 240.684 400.045 240.408C399.877 240.12 399.757 239.802 399.685 239.454C399.613 239.094 399.577 238.728 399.577 238.356ZM397.021 238.356C397.021 239.1 397.135 239.772 397.363 240.372C397.591 240.972 397.915 241.488 398.335 241.92C398.755 242.34 399.259 242.664 399.847 242.892C400.435 243.12 401.095 243.234 401.827 243.234C402.559 243.234 403.219 243.12 403.807 242.892C404.407 242.664 404.917 242.34 405.337 241.92C405.757 241.488 406.081 240.972 406.309 240.372C406.537 239.772 406.651 239.1 406.651 238.356C406.651 237.612 406.537 236.94 406.309 236.34C406.081 235.728 405.757 235.212 405.337 234.792C404.917 234.36 404.407 234.03 403.807 233.802C403.219 233.562 402.559 233.442 401.827 233.442C401.095 233.442 400.435 233.562 399.847 233.802C399.259 234.03 398.755 234.36 398.335 234.792C397.915 235.212 397.591 235.728 397.363 236.34C397.135 236.94 397.021 237.612 397.021 238.356Z" fill="#BFCAD4"/>
<path d="M413.315 233.694V243H415.871V238.122C415.871 237.174 416.027 236.496 416.339 236.088C416.651 235.668 417.155 235.458 417.851 235.458C418.463 235.458 418.889 235.65 419.129 236.034C419.369 236.406 419.489 236.976 419.489 237.744V243H422.045V237.276C422.045 236.7 421.991 236.178 421.883 235.71C421.787 235.23 421.613 234.828 421.361 234.504C421.109 234.168 420.761 233.91 420.317 233.73C419.885 233.538 419.327 233.442 418.643 233.442C418.103 233.442 417.575 233.568 417.059 233.82C416.543 234.06 416.123 234.45 415.799 234.99H415.745V233.694H413.315Z" fill="#BFCAD4"/>
<path d="M430.245 237.348H426.087C426.099 237.168 426.135 236.964 426.195 236.736C426.267 236.508 426.381 236.292 426.537 236.088C426.705 235.884 426.921 235.716 427.185 235.584C427.461 235.44 427.803 235.368 428.211 235.368C428.835 235.368 429.297 235.536 429.597 235.872C429.909 236.208 430.125 236.7 430.245 237.348ZM426.087 238.968H432.801C432.849 238.248 432.789 237.558 432.621 236.898C432.453 236.238 432.177 235.65 431.793 235.134C431.421 234.618 430.941 234.21 430.353 233.91C429.765 233.598 429.075 233.442 428.283 233.442C427.575 233.442 426.927 233.568 426.339 233.82C425.763 234.072 425.265 234.42 424.845 234.864C424.425 235.296 424.101 235.812 423.873 236.412C423.645 237.012 423.531 237.66 423.531 238.356C423.531 239.076 423.639 239.736 423.855 240.336C424.083 240.936 424.401 241.452 424.809 241.884C425.217 242.316 425.715 242.652 426.303 242.892C426.891 243.12 427.551 243.234 428.283 243.234C429.339 243.234 430.239 242.994 430.983 242.514C431.727 242.034 432.279 241.236 432.639 240.12H430.389C430.305 240.408 430.077 240.684 429.705 240.948C429.333 241.2 428.889 241.326 428.373 241.326C427.653 241.326 427.101 241.14 426.717 240.768C426.333 240.396 426.123 239.796 426.087 238.968Z" fill="#BFCAD4"/>
<path d="M444.951 243L447.885 233.694H445.257L443.547 239.994H443.511L441.927 233.694H439.443L437.895 240.012H437.859L436.149 233.694H433.449L436.401 243H439.047L440.631 236.754H440.667L442.323 243H444.951Z" fill="#BFCAD4"/>
<path d="M363.179 255.694V265H365.735V260.122C365.735 259.174 365.891 258.496 366.203 258.088C366.515 257.668 367.019 257.458 367.715 257.458C368.327 257.458 368.753 257.65 368.993 258.034C369.233 258.406 369.353 258.976 369.353 259.744V265H371.909V259.276C371.909 258.7 371.855 258.178 371.747 257.71C371.651 257.23 371.477 256.828 371.225 256.504C370.973 256.168 370.625 255.91 370.181 255.73C369.749 255.538 369.191 255.442 368.507 255.442C367.967 255.442 367.439 255.568 366.923 255.82C366.407 256.06 365.987 256.45 365.663 256.99H365.609V255.694H363.179Z" fill="#BFCAD4"/>
<path d="M376.113 260.356C376.113 259.984 376.149 259.618 376.221 259.258C376.293 258.898 376.413 258.58 376.581 258.304C376.761 258.028 376.995 257.806 377.283 257.638C377.571 257.458 377.931 257.368 378.363 257.368C378.795 257.368 379.155 257.458 379.443 257.638C379.743 257.806 379.977 258.028 380.145 258.304C380.325 258.58 380.451 258.898 380.523 259.258C380.595 259.618 380.631 259.984 380.631 260.356C380.631 260.728 380.595 261.094 380.523 261.454C380.451 261.802 380.325 262.12 380.145 262.408C379.977 262.684 379.743 262.906 379.443 263.074C379.155 263.242 378.795 263.326 378.363 263.326C377.931 263.326 377.571 263.242 377.283 263.074C376.995 262.906 376.761 262.684 376.581 262.408C376.413 262.12 376.293 261.802 376.221 261.454C376.149 261.094 376.113 260.728 376.113 260.356ZM373.557 260.356C373.557 261.1 373.671 261.772 373.899 262.372C374.127 262.972 374.451 263.488 374.871 263.92C375.291 264.34 375.795 264.664 376.383 264.892C376.971 265.12 377.631 265.234 378.363 265.234C379.095 265.234 379.755 265.12 380.343 264.892C380.943 264.664 381.453 264.34 381.873 263.92C382.293 263.488 382.617 262.972 382.845 262.372C383.073 261.772 383.187 261.1 383.187 260.356C383.187 259.612 383.073 258.94 382.845 258.34C382.617 257.728 382.293 257.212 381.873 256.792C381.453 256.36 380.943 256.03 380.343 255.802C379.755 255.562 379.095 255.442 378.363 255.442C377.631 255.442 376.971 255.562 376.383 255.802C375.795 256.03 375.291 256.36 374.871 256.792C374.451 257.212 374.127 257.728 373.899 258.34C373.671 258.94 373.557 259.612 373.557 260.356Z" fill="#BFCAD4"/>
<path d="M388.085 255.694V252.904H385.529V255.694H383.981V257.404H385.529V262.894C385.529 263.362 385.607 263.74 385.763 264.028C385.919 264.316 386.129 264.538 386.393 264.694C386.669 264.85 386.981 264.952 387.329 265C387.689 265.06 388.067 265.09 388.463 265.09C388.715 265.09 388.973 265.084 389.237 265.072C389.501 265.06 389.741 265.036 389.957 265V263.02C389.837 263.044 389.711 263.062 389.579 263.074C389.447 263.086 389.309 263.092 389.165 263.092C388.733 263.092 388.445 263.02 388.301 262.876C388.157 262.732 388.085 262.444 388.085 262.012V257.404H389.957V255.694H388.085Z" fill="#BFCAD4"/>
<path d="M393.797 254.254V252.148H391.241V254.254H393.797ZM391.241 255.694V265H393.797V255.694H391.241Z" fill="#BFCAD4"/>
<path d="M396.364 257.404V265H398.92V257.404H400.684V255.694H398.92V255.136C398.92 254.752 398.992 254.482 399.136 254.326C399.292 254.158 399.544 254.074 399.892 254.074C400.216 254.074 400.528 254.092 400.828 254.128V252.22C400.612 252.208 400.39 252.196 400.162 252.184C399.934 252.16 399.706 252.148 399.478 252.148C398.434 252.148 397.654 252.412 397.138 252.94C396.622 253.468 396.364 254.146 396.364 254.974V255.694H394.834V257.404H396.364ZM402.232 255.694V265H404.788V255.694H402.232ZM404.788 254.254V252.148H402.232V254.254H404.788Z" fill="#BFCAD4"/>
<path d="M413.142 258.97H415.644C415.608 258.37 415.464 257.854 415.212 257.422C414.96 256.978 414.63 256.612 414.222 256.324C413.826 256.024 413.37 255.802 412.854 255.658C412.35 255.514 411.822 255.442 411.27 255.442C410.514 255.442 409.842 255.568 409.254 255.82C408.666 256.072 408.168 256.426 407.76 256.882C407.352 257.326 407.04 257.86 406.824 258.484C406.62 259.096 406.518 259.762 406.518 260.482C406.518 261.178 406.632 261.82 406.86 262.408C407.088 262.984 407.406 263.482 407.814 263.902C408.222 264.322 408.714 264.652 409.29 264.892C409.878 265.12 410.52 265.234 411.216 265.234C412.452 265.234 413.466 264.91 414.258 264.262C415.05 263.614 415.53 262.672 415.698 261.436H413.232C413.148 262.012 412.938 262.474 412.602 262.822C412.278 263.158 411.81 263.326 411.198 263.326C410.802 263.326 410.466 263.236 410.19 263.056C409.914 262.876 409.692 262.648 409.524 262.372C409.368 262.084 409.254 261.766 409.182 261.418C409.11 261.07 409.074 260.728 409.074 260.392C409.074 260.044 409.11 259.696 409.182 259.348C409.254 258.988 409.374 258.664 409.542 258.376C409.722 258.076 409.95 257.836 410.226 257.656C410.502 257.464 410.844 257.368 411.252 257.368C412.344 257.368 412.974 257.902 413.142 258.97Z" fill="#BFCAD4"/>
<path d="M417.03 258.556C417.066 257.956 417.216 257.458 417.48 257.062C417.744 256.666 418.08 256.348 418.488 256.108C418.896 255.868 419.352 255.7 419.856 255.604C420.372 255.496 420.888 255.442 421.404 255.442C421.872 255.442 422.346 255.478 422.826 255.55C423.306 255.61 423.744 255.736 424.14 255.928C424.536 256.12 424.86 256.39 425.112 256.738C425.364 257.074 425.49 257.524 425.49 258.088V262.93C425.49 263.35 425.514 263.752 425.562 264.136C425.61 264.52 425.694 264.808 425.814 265H423.222C423.174 264.856 423.132 264.712 423.096 264.568C423.072 264.412 423.054 264.256 423.042 264.1C422.634 264.52 422.154 264.814 421.602 264.982C421.05 265.15 420.486 265.234 419.91 265.234C419.466 265.234 419.052 265.18 418.668 265.072C418.284 264.964 417.948 264.796 417.66 264.568C417.372 264.34 417.144 264.052 416.976 263.704C416.82 263.356 416.742 262.942 416.742 262.462C416.742 261.934 416.832 261.502 417.012 261.166C417.204 260.818 417.444 260.542 417.732 260.338C418.032 260.134 418.368 259.984 418.74 259.888C419.124 259.78 419.508 259.696 419.892 259.636C420.276 259.576 420.654 259.528 421.026 259.492C421.398 259.456 421.728 259.402 422.016 259.33C422.304 259.258 422.532 259.156 422.7 259.024C422.868 258.88 422.946 258.676 422.934 258.412C422.934 258.136 422.886 257.92 422.79 257.764C422.706 257.596 422.586 257.47 422.43 257.386C422.286 257.29 422.112 257.23 421.908 257.206C421.716 257.17 421.506 257.152 421.278 257.152C420.774 257.152 420.378 257.26 420.09 257.476C419.802 257.692 419.634 258.052 419.586 258.556H417.03ZM422.934 260.446C422.826 260.542 422.688 260.62 422.52 260.68C422.364 260.728 422.19 260.77 421.998 260.806C421.818 260.842 421.626 260.872 421.422 260.896C421.218 260.92 421.014 260.95 420.81 260.986C420.618 261.022 420.426 261.07 420.234 261.13C420.054 261.19 419.892 261.274 419.748 261.382C419.616 261.478 419.508 261.604 419.424 261.76C419.34 261.916 419.298 262.114 419.298 262.354C419.298 262.582 419.34 262.774 419.424 262.93C419.508 263.086 419.622 263.212 419.766 263.308C419.91 263.392 420.078 263.452 420.27 263.488C420.462 263.524 420.66 263.542 420.864 263.542C421.368 263.542 421.758 263.458 422.034 263.29C422.31 263.122 422.514 262.924 422.646 262.696C422.778 262.456 422.856 262.216 422.88 261.976C422.916 261.736 422.934 261.544 422.934 261.4V260.446Z" fill="#BFCAD4"/>
<path d="M430.71 255.694V252.904H428.154V255.694H426.606V257.404H428.154V262.894C428.154 263.362 428.232 263.74 428.388 264.028C428.544 264.316 428.754 264.538 429.018 264.694C429.294 264.85 429.606 264.952 429.954 265C430.314 265.06 430.692 265.09 431.088 265.09C431.34 265.09 431.598 265.084 431.862 265.072C432.126 265.06 432.366 265.036 432.582 265V263.02C432.462 263.044 432.336 263.062 432.204 263.074C432.072 263.086 431.934 263.092 431.79 263.092C431.358 263.092 431.07 263.02 430.926 262.876C430.782 262.732 430.71 262.444 430.71 262.012V257.404H432.582V255.694H430.71Z" fill="#BFCAD4"/>
<path d="M436.422 254.254V252.148H433.866V254.254H436.422ZM433.866 255.694V265H436.422V255.694H433.866Z" fill="#BFCAD4"/>
<path d="M440.699 260.356C440.699 259.984 440.735 259.618 440.807 259.258C440.879 258.898 440.999 258.58 441.167 258.304C441.347 258.028 441.581 257.806 441.869 257.638C442.157 257.458 442.517 257.368 442.949 257.368C443.381 257.368 443.741 257.458 444.029 257.638C444.329 257.806 444.563 258.028 444.731 258.304C444.911 258.58 445.037 258.898 445.109 259.258C445.181 259.618 445.217 259.984 445.217 260.356C445.217 260.728 445.181 261.094 445.109 261.454C445.037 261.802 444.911 262.12 444.731 262.408C444.563 262.684 444.329 262.906 444.029 263.074C443.741 263.242 443.381 263.326 442.949 263.326C442.517 263.326 442.157 263.242 441.869 263.074C441.581 262.906 441.347 262.684 441.167 262.408C440.999 262.12 440.879 261.802 440.807 261.454C440.735 261.094 440.699 260.728 440.699 260.356ZM438.143 260.356C438.143 261.1 438.257 261.772 438.485 262.372C438.713 262.972 439.037 263.488 439.457 263.92C439.877 264.34 440.381 264.664 440.969 264.892C441.557 265.12 442.217 265.234 442.949 265.234C443.681 265.234 444.341 265.12 444.929 264.892C445.529 264.664 446.039 264.34 446.459 263.92C446.879 263.488 447.203 262.972 447.431 262.372C447.659 261.772 447.773 261.1 447.773 260.356C447.773 259.612 447.659 258.94 447.431 258.34C447.203 257.728 446.879 257.212 446.459 256.792C446.039 256.36 445.529 256.03 444.929 255.802C444.341 255.562 443.681 255.442 442.949 255.442C442.217 255.442 441.557 255.562 440.969 255.802C440.381 256.03 439.877 256.36 439.457 256.792C439.037 257.212 438.713 257.728 438.485 258.34C438.257 258.94 438.143 259.612 438.143 260.356Z" fill="#BFCAD4"/>
<path d="M449.431 255.694V265H451.987V260.122C451.987 259.174 452.143 258.496 452.455 258.088C452.767 257.668 453.271 257.458 453.967 257.458C454.579 257.458 455.005 257.65 455.245 258.034C455.485 258.406 455.605 258.976 455.605 259.744V265H458.161V259.276C458.161 258.7 458.107 258.178 457.999 257.71C457.903 257.23 457.729 256.828 457.477 256.504C457.225 256.168 456.877 255.91 456.433 255.73C456.001 255.538 455.443 255.442 454.759 255.442C454.219 255.442 453.691 255.568 453.175 255.82C452.659 256.06 452.239 256.45 451.915 256.99H451.861V255.694H449.431Z" fill="#BFCAD4"/>
<path d="M462.077 261.976H459.647C459.671 262.6 459.809 263.122 460.061 263.542C460.325 263.95 460.655 264.28 461.051 264.532C461.459 264.784 461.921 264.964 462.437 265.072C462.953 265.18 463.481 265.234 464.021 265.234C464.549 265.234 465.065 265.18 465.569 265.072C466.085 264.976 466.541 264.802 466.937 264.55C467.333 264.298 467.651 263.968 467.891 263.56C468.143 263.14 468.269 262.624 468.269 262.012C468.269 261.58 468.185 261.22 468.017 260.932C467.849 260.632 467.627 260.386 467.351 260.194C467.075 259.99 466.757 259.828 466.397 259.708C466.049 259.588 465.689 259.486 465.317 259.402C464.957 259.318 464.603 259.24 464.255 259.168C463.907 259.096 463.595 259.018 463.319 258.934C463.055 258.838 462.839 258.718 462.671 258.574C462.503 258.43 462.419 258.244 462.419 258.016C462.419 257.824 462.467 257.674 462.563 257.566C462.659 257.446 462.773 257.356 462.905 257.296C463.049 257.236 463.205 257.2 463.373 257.188C463.541 257.164 463.697 257.152 463.841 257.152C464.297 257.152 464.693 257.242 465.029 257.422C465.365 257.59 465.551 257.92 465.587 258.412H468.017C467.969 257.836 467.819 257.362 467.567 256.99C467.327 256.606 467.021 256.3 466.649 256.072C466.277 255.844 465.851 255.682 465.371 255.586C464.903 255.49 464.417 255.442 463.913 255.442C463.409 255.442 462.917 255.49 462.437 255.586C461.957 255.67 461.525 255.826 461.141 256.054C460.757 256.27 460.445 256.57 460.205 256.954C459.977 257.338 459.863 257.83 459.863 258.43C459.863 258.838 459.947 259.186 460.115 259.474C460.283 259.75 460.505 259.984 460.781 260.176C461.057 260.356 461.369 260.506 461.717 260.626C462.077 260.734 462.443 260.83 462.815 260.914C463.727 261.106 464.435 261.298 464.939 261.49C465.455 261.682 465.713 261.97 465.713 262.354C465.713 262.582 465.659 262.774 465.551 262.93C465.443 263.074 465.305 263.194 465.137 263.29C464.981 263.374 464.801 263.44 464.597 263.488C464.405 263.524 464.219 263.542 464.039 263.542C463.787 263.542 463.541 263.512 463.301 263.452C463.073 263.392 462.869 263.302 462.689 263.182C462.509 263.05 462.359 262.888 462.239 262.696C462.131 262.492 462.077 262.252 462.077 261.976Z" fill="#BFCAD4"/>
<path d="M403.434 200.025C402.734 199.325 401.599 198.325 400.9 199.025C400.2 199.724 400.2 200.859 400.9 201.559L409.858 210.517C410.558 211.217 411.692 211.217 412.392 210.517L432.1 190.809C432.8 190.109 432.8 188.974 432.1 188.275C431.401 187.575 430.266 187.575 429.566 188.275L411.125 206.716L403.434 200.025Z" fill="#CBD2D9"/>
<mask id="mask1" mask-type="alpha" maskUnits="userSpaceOnUse" x="400" y="187" width="33" height="25">
<path d="M403.434 200.025C402.734 199.325 401.599 198.325 400.9 199.025C400.2 199.724 400.2 200.859 400.9 201.559L409.858 210.517C410.558 211.217 411.692 211.217 412.392 210.517L432.1 190.809C432.8 190.109 432.8 188.974 432.1 188.275C431.401 187.575 430.266 187.575 429.566 188.275L411.125 206.716L403.434 200.025Z" fill="white"/>
</mask>
<g mask="url(#mask1)">
</g>
</g>
<path fill-rule="evenodd" clip-rule="evenodd" d="M412.396 377.183L458.628 383.188L471.788 419.638L412.396 377.183Z" fill="#3AC63F"/>
<path fill-rule="evenodd" clip-rule="evenodd" d="M490.362 349.035L458.628 383.188L471.788 419.638L490.362 349.035Z" fill="#1EA221"/>
<path fill-rule="evenodd" clip-rule="evenodd" d="M490.362 349.035L458.628 383.188L428.983 301.074L490.362 349.035Z" fill="#3AC63F"/>
<path fill-rule="evenodd" clip-rule="evenodd" d="M412.396 377.183L458.628 383.188L428.983 301.074L412.396 377.183Z" fill="#9DE79E"/>
<defs>
<filter id="filter0_d" x="0.910301" y="0.910301" width="613.179" height="449.179" filterUnits="userSpaceOnUse" color-interpolation-filters="sRGB">
<feFlood flood-opacity="0" result="BackgroundImageFix"/>
<feColorMatrix in="SourceAlpha" type="matrix" values="0 0 0 0 0 0 0 0 0 0 0 0 0 0 0 0 0 0 127 0"/>
<feOffset/>
<feGaussianBlur stdDeviation="33.0448"/>
<feColorMatrix type="matrix" values="0 0 0 0 0.396979 0 0 0 0 0.43478 0 0 0 0 0.4625 0 0 0 0.16 0"/>
<feBlend mode="normal" in2="BackgroundImageFix" result="effect1_dropShadow"/>
<feBlend mode="normal" in="SourceGraphic" in2="effect1_dropShadow" result="shape"/>
</filter>
</defs>
</svg>
