<svg width="234" height="233" viewBox="0 0 234 233" fill="none" xmlns="http://www.w3.org/2000/svg">
<path d="M166.627 27.3804C157.66 20.0369 147.159 14.7793 135.892 11.9912C124.624 9.2031 112.873 8.95486 101.497 11.2646C86.3491 14.3113 72.4516 21.7697 61.5676 32.6936C50.6836 43.6175 43.3038 57.5144 40.3644 72.6212C38.2179 83.9482 38.608 95.6072 41.5068 106.767C44.4055 117.926 49.7416 128.312 57.1344 137.182C63.9954 144.891 67.928 154.749 68.2494 165.045V194.17C68.2494 201.894 71.3311 209.302 76.8166 214.764C82.302 220.226 89.7419 223.295 97.4994 223.295H136.499C144.257 223.295 151.697 220.226 157.182 214.764C162.668 209.302 165.749 201.894 165.749 194.17V166.889C166.077 155.522 170.271 144.603 177.644 135.92C190.564 120.005 196.655 99.6572 194.592 79.2969C192.529 58.9367 182.479 40.2099 166.627 27.1862V27.3804ZM146.249 194.17C146.249 196.744 145.222 199.214 143.394 201.034C141.565 202.855 139.085 203.878 136.499 203.878H97.4994C94.9136 203.878 92.4336 202.855 90.6051 201.034C88.7767 199.214 87.7494 196.744 87.7494 194.17V184.461H146.249V194.17ZM162.532 123.881C152.728 135.459 147.009 149.919 146.249 165.045H126.749V135.92C126.749 133.345 125.722 130.875 123.894 129.055C122.065 127.234 119.585 126.211 116.999 126.211C114.414 126.211 111.934 127.234 110.105 129.055C108.277 130.875 107.249 133.345 107.249 135.92V165.045H87.7494C87.4922 150.172 81.9672 135.869 72.1494 124.658C65.6719 116.93 61.3161 107.663 59.5067 97.7595C57.6973 87.8563 58.496 77.6552 61.825 68.1508C65.154 58.6465 70.8997 50.1634 78.5018 43.5285C86.1039 36.8937 95.3029 32.3336 105.202 30.2929C113.709 28.5487 122.5 28.7128 130.936 30.7732C139.372 32.8335 147.241 36.7385 153.972 42.2046C160.703 47.6706 166.127 54.5606 169.851 62.3743C173.575 70.1879 175.504 78.7292 175.499 87.3779C175.572 100.677 170.986 113.585 162.532 123.881V123.881Z" fill="#38C43D"/>
</svg>
