<svg width="185" height="171" viewBox="0 0 185 171" fill="none" xmlns="http://www.w3.org/2000/svg">
<path fill-rule="evenodd" clip-rule="evenodd" d="M26.6428 84.209L71.5502 106.336L93.8293 155.313L62.6527 163.321L21.1056 119.293L26.6428 84.209Z" fill="#C4F34D"/>
<path fill-rule="evenodd" clip-rule="evenodd" d="M114.005 65.0501L71.5503 106.336L93.8294 155.313L156.852 139.125L158.93 87.2437L114.005 65.0501Z" fill="#AAE600"/>
<path fill-rule="evenodd" clip-rule="evenodd" d="M158.999 87.5112L114.04 65.1838L91.7262 16.0728L122.903 8.06488L164.484 52.2269L158.999 87.5112Z" fill="#C4F34D"/>
<path fill-rule="evenodd" clip-rule="evenodd" d="M71.636 106.67L114.04 65.1839L91.726 16.0728L28.7038 32.2604L26.677 84.3428L71.636 106.67Z" fill="#DCF78F"/>
<path fill-rule="evenodd" clip-rule="evenodd" d="M26.6771 84.3428L28.7038 32.2604L25.4925 33.0852L21.243 119.828L26.6771 84.3428Z" fill="#DCF78F"/>
<path fill-rule="evenodd" clip-rule="evenodd" d="M158.93 87.2439L156.851 139.126L160.063 138.301L164.347 51.6919L158.93 87.2439Z" fill="#AAE600"/>
</svg>
