<svg width="234" height="233" viewBox="0 0 234 233" fill="none" xmlns="http://www.w3.org/2000/svg">
<path d="M204.75 19.4165H146.25C143.664 19.4165 141.184 20.4393 139.356 22.26C137.527 24.0807 136.5 26.55 136.5 29.1248C136.5 31.6996 137.527 34.169 139.356 35.9897C141.184 37.8103 143.664 38.8332 146.25 38.8332H195V87.3748C195 89.9497 196.027 92.419 197.856 94.2397C199.684 96.0603 202.164 97.0832 204.75 97.0832C207.336 97.0832 209.816 96.0603 211.644 94.2397C213.473 92.419 214.5 89.9497 214.5 87.3748V29.1248C214.5 26.55 213.473 24.0807 211.644 22.26C209.816 20.4393 207.336 19.4165 204.75 19.4165V19.4165ZM204.75 135.917C202.164 135.917 199.684 136.939 197.856 138.76C196.027 140.581 195 143.05 195 145.625V194.167H146.25C143.664 194.167 141.184 195.189 139.356 197.01C137.527 198.831 136.5 201.3 136.5 203.875C136.5 206.45 137.527 208.919 139.356 210.74C141.184 212.56 143.664 213.583 146.25 213.583H204.75C207.336 213.583 209.816 212.56 211.644 210.74C213.473 208.919 214.5 206.45 214.5 203.875V145.625C214.5 143.05 213.473 140.581 211.644 138.76C209.816 136.939 207.336 135.917 204.75 135.917ZM117 58.2498C109.242 58.2498 101.803 61.3184 96.3171 66.7804C90.8317 72.2424 87.75 79.6504 87.75 87.3748V97.0832C82.5783 97.0832 77.6184 99.1289 73.9614 102.77C70.3045 106.412 68.25 111.35 68.25 116.5V155.333C68.25 160.483 70.3045 165.422 73.9614 169.063C77.6184 172.704 82.5783 174.75 87.75 174.75H146.25C151.422 174.75 156.382 172.704 160.039 169.063C163.696 165.422 165.75 160.483 165.75 155.333V116.5C165.75 111.35 163.696 106.412 160.039 102.77C156.382 99.1289 151.422 97.0832 146.25 97.0832V87.3748C146.25 79.6504 143.168 72.2424 137.683 66.7804C132.197 61.3184 124.758 58.2498 117 58.2498ZM107.25 87.3748C107.25 84.8 108.277 82.3307 110.106 80.51C111.934 78.6893 114.414 77.6665 117 77.6665C119.586 77.6665 122.066 78.6893 123.894 80.51C125.723 82.3307 126.75 84.8 126.75 87.3748V97.0832H107.25V87.3748ZM146.25 155.333H87.75V116.5H146.25V155.333ZM29.25 97.0832C31.8359 97.0832 34.3158 96.0603 36.1443 94.2397C37.9728 92.419 39 89.9497 39 87.3748V38.8332H87.75C90.3359 38.8332 92.8158 37.8103 94.6443 35.9897C96.4728 34.169 97.5 31.6996 97.5 29.1248C97.5 26.55 96.4728 24.0807 94.6443 22.26C92.8158 20.4393 90.3359 19.4165 87.75 19.4165H29.25C26.6641 19.4165 24.1842 20.4393 22.3557 22.26C20.5272 24.0807 19.5 26.55 19.5 29.1248V87.3748C19.5 89.9497 20.5272 92.419 22.3557 94.2397C24.1842 96.0603 26.6641 97.0832 29.25 97.0832ZM87.75 194.167H39V145.625C39 143.05 37.9728 140.581 36.1443 138.76C34.3158 136.939 31.8359 135.917 29.25 135.917C26.6641 135.917 24.1842 136.939 22.3557 138.76C20.5272 140.581 19.5 143.05 19.5 145.625V203.875C19.5 206.45 20.5272 208.919 22.3557 210.74C24.1842 212.56 26.6641 213.583 29.25 213.583H87.75C90.3359 213.583 92.8158 212.56 94.6443 210.74C96.4728 208.919 97.5 206.45 97.5 203.875C97.5 201.3 96.4728 198.831 94.6443 197.01C92.8158 195.189 90.3359 194.167 87.75 194.167Z" fill="#38C43D"/>
</svg>
