<svg width="235" height="233" viewBox="0 0 235 233" fill="none" xmlns="http://www.w3.org/2000/svg">
<path d="M78.3333 116.5H97.9167C100.514 116.5 103.004 115.477 104.84 113.656C106.677 111.836 107.708 109.366 107.708 106.792C107.708 104.217 106.677 101.747 104.84 99.9267C103.004 98.106 100.514 97.0832 97.9167 97.0832H78.3333C75.7364 97.0832 73.2459 98.106 71.4096 99.9267C69.5733 101.747 68.5417 104.217 68.5417 106.792C68.5417 109.366 69.5733 111.836 71.4096 113.656C73.2459 115.477 75.7364 116.5 78.3333 116.5ZM166.458 58.2498H117.5V38.8332H127.292C129.889 38.8332 132.379 37.8103 134.215 35.9897C136.052 34.169 137.083 31.6996 137.083 29.1248C137.083 26.55 136.052 24.0807 134.215 22.26C132.379 20.4393 129.889 19.4165 127.292 19.4165H107.708C105.111 19.4165 102.621 20.4393 100.785 22.26C98.9483 24.0807 97.9167 26.55 97.9167 29.1248V58.2498H68.5417C58.154 58.2498 48.1918 62.3412 40.8466 69.6239C33.5015 76.9065 29.375 86.7839 29.375 97.0832V155.333C29.375 157.908 30.4066 160.377 32.2429 162.198C34.0792 164.019 36.5698 165.042 39.1667 165.042H97.9167V203.875C97.9167 206.45 98.9483 208.919 100.785 210.74C102.621 212.56 105.111 213.583 107.708 213.583C110.305 213.583 112.796 212.56 114.632 210.74C116.468 208.919 117.5 206.45 117.5 203.875V165.042H195.833C198.43 165.042 200.921 164.019 202.757 162.198C204.593 160.377 205.625 157.908 205.625 155.333V97.0832C205.625 86.7839 201.499 76.9065 194.153 69.6239C186.808 62.3412 176.846 58.2498 166.458 58.2498ZM127.292 97.0832V145.625H48.9583V97.0832C48.9583 91.9336 51.0216 86.9949 54.6942 83.3535C58.3667 79.7122 63.3478 77.6665 68.5417 77.6665H132.775C129.215 83.5303 127.321 90.2392 127.292 97.0832ZM186.042 145.625H146.875V97.0832C146.875 91.9336 148.938 86.9949 152.611 83.3535C156.283 79.7122 161.265 77.6665 166.458 77.6665C171.652 77.6665 176.633 79.7122 180.306 83.3535C183.978 86.9949 186.042 91.9336 186.042 97.0832V145.625Z" fill="#A0B1BF"/>
</svg>
