<svg width="234" height="233" viewBox="0 0 234 233" fill="none" xmlns="http://www.w3.org/2000/svg">
<path d="M194.914 19.4355C193.633 19.4348 192.365 19.6854 191.182 20.1731C189.999 20.6607 188.924 21.3758 188.018 22.2774C187.113 23.1791 186.394 24.2496 185.905 25.4278C185.415 26.606 185.163 27.8688 185.164 29.1439V35.3254C176.941 45.4774 166.548 53.676 154.742 59.3244C142.935 64.9727 130.012 67.9287 116.914 67.9772H58.4141C50.6591 67.9856 43.2241 71.0569 37.7405 76.517C32.2569 81.9772 29.1725 89.3804 29.1641 97.1022V116.519C29.1725 124.241 32.2569 131.644 37.7405 137.104C43.2241 142.564 50.6591 145.635 58.4141 145.644H63.131L39.7044 200.073C39.0678 201.549 38.8093 203.16 38.9522 204.76C39.0951 206.36 39.6349 207.9 40.5231 209.241C41.4113 210.583 42.6202 211.683 44.0411 212.444C45.462 213.205 47.0506 213.603 48.6641 213.602H87.6641C89.5727 213.603 91.4395 213.046 93.0325 211.999C94.6255 210.952 95.8743 209.462 96.6238 207.715L123.18 146.013C135.179 146.89 146.87 150.207 157.531 155.759C168.192 161.311 177.596 168.981 185.164 178.294V184.477C185.164 187.052 186.191 189.521 188.02 191.342C189.848 193.163 192.328 194.186 194.914 194.186C197.5 194.186 199.98 193.163 201.808 191.342C203.637 189.521 204.664 187.052 204.664 184.477V29.1439C204.665 27.8688 204.413 26.606 203.923 25.4278C203.434 24.2496 202.716 23.1791 201.81 22.2774C200.904 21.3758 199.829 20.6607 198.646 20.173C197.463 19.6854 196.195 19.4348 194.914 19.4355V19.4355ZM58.4141 126.227C55.8287 126.225 53.3498 125.202 51.5217 123.382C49.6936 121.562 48.6658 119.093 48.6641 116.519V97.1022C48.6658 94.5279 49.6936 92.0596 51.5217 90.2393C53.3498 88.419 55.8287 87.3956 58.4141 87.3939H68.1641V126.227H58.4141ZM81.2371 194.186H63.4509L84.3411 145.644H102.127L81.2371 194.186ZM185.164 150.71C165.94 134.94 141.822 126.288 116.914 126.227H87.6641V87.3934H116.914C141.823 87.33 165.94 78.6768 185.164 62.9057V150.71Z" fill="#A0B1BF"/>
</svg>
