<svg width="233" height="234" viewBox="0 0 233 234" fill="none" xmlns="http://www.w3.org/2000/svg">
<path d="M203.875 58.5C201.301 58.5 198.831 59.5272 197.011 61.3557C195.19 63.1842 194.167 65.6641 194.167 68.25V165.75C194.167 173.508 191.098 180.947 185.636 186.433C180.174 191.918 172.766 195 165.042 195H67.9587C65.3839 195 62.9145 196.027 61.0938 197.856C59.2732 199.684 58.2503 202.164 58.2503 204.75C58.2503 207.336 59.2732 209.816 61.0938 211.644C62.9145 213.473 65.3839 214.5 67.9587 214.5H165.042C177.916 214.5 190.263 209.364 199.366 200.221C208.469 191.079 213.584 178.679 213.584 165.75V68.25C213.584 65.6641 212.561 63.1842 210.74 61.3557C208.92 59.5272 206.45 58.5 203.875 58.5ZM174.75 146.25V48.75C174.75 40.9924 171.682 33.5526 166.22 28.0671C160.758 22.5817 153.35 19.5 145.625 19.5H48.542C40.8176 19.5 33.4095 22.5817 27.9475 28.0671C22.4855 33.5526 19.417 40.9924 19.417 48.75V146.25C19.417 154.008 22.4855 161.447 27.9475 166.933C33.4095 172.418 40.8176 175.5 48.542 175.5H145.625C153.35 175.5 160.758 172.418 166.22 166.933C171.682 161.447 174.75 154.008 174.75 146.25V146.25ZM97.0837 39H116.5V86.385L113.005 83.46C111.261 82.0008 109.062 81.2017 106.792 81.2017C104.522 81.2017 102.323 82.0008 100.579 83.46L97.0837 86.385V39ZM38.8337 146.25V48.75C38.8337 46.1641 39.8565 43.6842 41.6772 41.8557C43.4978 40.0272 45.9672 39 48.542 39H77.667V107.25C77.6669 109.114 78.1987 110.939 79.1995 112.508C80.2003 114.078 81.6281 115.327 83.3138 116.106C84.9994 116.886 86.8723 117.164 88.7106 116.908C90.5488 116.652 92.2754 115.872 93.6857 114.66L106.792 103.643L119.898 114.66C121.657 116.17 123.895 117 126.209 117C127.613 116.99 129.001 116.691 130.286 116.122C131.971 115.339 133.398 114.087 134.396 112.515C135.394 110.942 135.922 109.115 135.917 107.25V39H145.625C148.2 39 150.669 40.0272 152.49 41.8557C154.311 43.6842 155.334 46.1641 155.334 48.75V146.25C155.334 148.836 154.311 151.316 152.49 153.144C150.669 154.973 148.2 156 145.625 156H48.542C45.9672 156 43.4978 154.973 41.6772 153.144C39.8565 151.316 38.8337 148.836 38.8337 146.25Z" fill="#38C43D"/>
</svg>
