<svg width="480" height="446" viewBox="0 0 480 446" fill="none" xmlns="http://www.w3.org/2000/svg">
<path d="M239.934 445.868C299.544 445.868 347.868 397.544 347.868 337.934C347.868 278.324 299.544 230 239.934 230C180.324 230 132 278.324 132 337.934C132 397.544 180.324 445.868 239.934 445.868Z" fill="#AEC1CE"/>
<mask id="mask0" mask-type="alpha" maskUnits="userSpaceOnUse" x="132" y="230" width="216" height="216">
<path d="M239.934 445.868C299.544 445.868 347.868 397.544 347.868 337.934C347.868 278.324 299.544 230 239.934 230C180.324 230 132 278.324 132 337.934C132 397.544 180.324 445.868 239.934 445.868Z" fill="white"/>
</mask>
<g mask="url(#mask0)">
<path fill-rule="evenodd" clip-rule="evenodd" d="M292.102 344.77C297.939 325.385 301.537 292.242 276.991 269.576C258.233 252.253 207.554 250.508 189.925 288.284C186.982 294.591 191.004 304.475 198.919 304.115C202.03 303.973 203.956 313.829 205.755 319.945C203.237 344.77 180.799 345.228 169.417 364.198C155.386 387.584 172.655 422.123 214.03 422.123C255.405 422.123 279.123 387.875 292.102 344.77Z" fill="white"/>
<path fill-rule="evenodd" clip-rule="evenodd" d="M306.134 401.255C311.41 411.329 314.049 448.027 314.049 448.027H165.819C165.819 448.027 168.458 411.329 173.734 401.255C181.65 386.144 239.934 366.716 239.934 366.716C239.934 366.716 298.218 386.144 306.134 401.255Z" fill="#6DDB6E"/>
<path fill-rule="evenodd" clip-rule="evenodd" d="M257.203 375.351C257.203 375.351 248.018 380.388 239.567 380.388C231.116 380.388 222.665 375.351 222.665 375.351V359.521C220.511 359.905 218.86 359.848 217.166 359.847C199.905 359.846 193.396 334.704 196.76 304.115C198.919 304.115 203.956 304.115 211.152 294.041C209.353 308.072 230.22 305.914 238.135 294.76C234.178 308.072 244.611 317.067 253.606 311.67C271.243 301.088 275.207 333.347 257.203 333.617V375.351Z" fill="url(#paint0_linear)"/>
<mask id="mask1" mask-type="alpha" maskUnits="userSpaceOnUse" x="195" y="294" width="74" height="87">
<path fill-rule="evenodd" clip-rule="evenodd" d="M257.203 375.351C257.203 375.351 248.018 380.388 239.567 380.388C231.116 380.388 222.665 375.351 222.665 375.351V359.521C220.511 359.905 218.86 359.848 217.166 359.847C199.905 359.846 193.396 334.704 196.76 304.115C198.919 304.115 203.956 304.115 211.152 294.041C209.353 308.072 230.22 305.914 238.135 294.76C234.178 308.072 244.611 317.067 253.606 311.67C271.243 301.088 275.207 333.347 257.203 333.617V375.351Z" fill="white"/>
</mask>
<g mask="url(#mask1)">
<g style="mix-blend-mode:multiply" opacity="0.6">
<path fill-rule="evenodd" clip-rule="evenodd" d="M222.665 359.521C237.056 357.002 247.849 349.807 247.849 349.807C247.849 349.807 238.855 365.277 222.665 365.277L222.665 359.521Z" fill="url(#paint1_linear)"/>
</g>
</g>
<path d="M239.958 379.65C245.158 379.415 257.204 376.868 257.204 371.365V366.716C258.523 366.716 262.302 369.834 264.245 372.473C271.927 382.906 263.406 392.261 256.457 392.261C247.688 392.261 241.878 384.934 239.934 381.41C237.99 384.934 232.18 392.261 223.411 392.261C216.462 392.261 207.941 382.906 215.623 372.473C217.566 369.834 221.345 366.716 222.665 366.716V371.365C222.665 376.868 235.035 379.415 239.958 379.65H239.958Z" fill="#1EA221"/>
</g>
<path fill-rule="evenodd" clip-rule="evenodd" d="M107.934 215.868C167.544 215.868 215.868 167.544 215.868 107.934C215.868 48.3237 167.544 0 107.934 0C48.3237 0 0 48.3237 0 107.934C0 167.544 48.3237 215.868 107.934 215.868Z" fill="#3AC63F"/>
<mask id="mask2" mask-type="alpha" maskUnits="userSpaceOnUse" x="0" y="0" width="216" height="216">
<path fill-rule="evenodd" clip-rule="evenodd" d="M107.934 215.868C167.544 215.868 215.868 167.544 215.868 107.934C215.868 48.3237 167.544 0 107.934 0C48.3237 0 0 48.3237 0 107.934C0 167.544 48.3237 215.868 107.934 215.868Z" fill="white"/>
</mask>
<g mask="url(#mask2)">
<path d="M174.134 169.097C179.41 179.17 182.049 215.868 182.049 215.868H33.8193C33.8193 215.868 36.4577 179.17 41.7345 169.097C49.6497 153.986 107.934 134.558 107.934 134.558C107.934 134.558 166.218 153.986 174.134 169.097Z" fill="#404143"/>
<path fill-rule="evenodd" clip-rule="evenodd" d="M107.934 172.694C109.524 172.694 110.812 171.406 110.812 169.816C110.812 168.227 109.524 166.938 107.934 166.938C106.344 166.938 105.056 168.227 105.056 169.816C105.056 171.406 106.344 172.694 107.934 172.694ZM107.934 187.086C109.524 187.086 110.812 185.797 110.812 184.207C110.812 182.618 109.524 181.329 107.934 181.329C106.344 181.329 105.056 182.618 105.056 184.207C105.056 185.797 106.344 187.086 107.934 187.086ZM110.812 198.599C110.812 200.188 109.524 201.477 107.934 201.477C106.344 201.477 105.056 200.188 105.056 198.599C105.056 197.009 106.344 195.72 107.934 195.72C109.524 195.72 110.812 197.009 110.812 198.599Z" fill="white"/>
<path fill-rule="evenodd" clip-rule="evenodd" d="M169.436 126.219L52.5378 112.092C46.7745 81.497 53.6104 62.2207 73.0452 54.2629C82.0296 24.8249 116.999 27.2194 126.91 29.6193C160.64 37.7866 174.815 69.9864 169.436 126.219Z" fill="#FFDF8E"/>
<path fill-rule="evenodd" clip-rule="evenodd" d="M90.6645 143.192V100.019C72.6606 99.7495 76.172 68.551 94.2623 78.0722C97.5003 79.5113 105.775 75.5538 102.897 65.8397C122.325 80.2309 149.398 54.9737 151.108 70.5168C154.472 101.106 147.963 126.248 130.702 126.25C129.008 126.25 127.357 126.307 125.203 125.923V143.192C119.569 146.55 113.935 148.229 108.301 148.229C102.667 148.229 96.7883 146.55 90.6645 143.192Z" fill="#95512F"/>
<path fill-rule="evenodd" clip-rule="evenodd" d="M125.203 125.923V131.68C114.41 131.68 106.015 126.523 100.019 116.209C107.214 121.006 115.609 124.244 125.203 125.923Z" fill="#7B3E20"/>
<path d="M107.91 147.492C112.833 147.256 125.203 144.709 125.203 139.206V134.558C126.523 134.558 130.302 137.675 132.245 140.314C139.927 150.748 131.406 160.102 124.457 160.102C115.688 160.102 109.878 152.776 107.934 149.251C105.99 152.776 100.18 160.102 91.411 160.102C84.4618 160.102 75.9405 150.748 83.6229 140.314C85.566 137.675 89.3447 134.558 90.6644 134.558V139.206C90.6644 144.709 102.71 147.256 107.91 147.492H107.91Z" fill="white"/>
</g>
<path d="M371.934 215.868C431.544 215.868 479.868 167.544 479.868 107.934C479.868 48.3237 431.544 0 371.934 0C312.324 0 264 48.3237 264 107.934C264 167.544 312.324 215.868 371.934 215.868Z" fill="#404143"/>
<mask id="mask3" mask-type="alpha" maskUnits="userSpaceOnUse" x="264" y="0" width="216" height="216">
<path d="M371.934 215.868C431.544 215.868 479.868 167.544 479.868 107.934C479.868 48.3237 431.544 0 371.934 0C312.324 0 264 48.3237 264 107.934C264 167.544 312.324 215.868 371.934 215.868Z" fill="white"/>
</mask>
<g mask="url(#mask3)">
<path fill-rule="evenodd" clip-rule="evenodd" d="M348.908 135.841V136.152C348.823 142.712 343.306 147.646 332.358 150.952C345.55 160.546 358.742 168.221 371.934 168.221C385.126 168.221 398.318 160.546 411.51 150.952C400.636 147.643 395.121 142.702 394.963 136.131C394.967 134.96 394.972 133.297 394.98 130.173C394.981 129.677 394.982 129.169 394.984 128.649C395.77 128.76 395.706 128.689 394.984 128.489C395.005 120.273 395.041 109.224 395.09 97.9953C405.403 84.6282 401.614 68.9568 398.382 69.3476C394.417 69.8271 360.092 37.2543 353.508 35.5877C346.924 33.9211 330.199 39.3058 327.321 54.3267C324.443 69.3476 323.24 107.209 334.157 122.325C337.264 126.627 342.156 128.309 348.834 127.373C348.843 130.516 348.862 132.28 348.908 135.841V135.841Z" fill="#FFD4B3"/>
<path d="M348.908 127.362C364.738 125.563 374.812 118.728 374.812 118.728C374.812 118.728 363.918 133.203 348.908 135.997V127.362Z" fill="#FFBE94"/>
<path fill-rule="evenodd" clip-rule="evenodd" d="M400.357 98.2199C405.314 86.2965 425.182 62.0142 408.057 46.9034C402.3 18.8405 370.495 21.9466 349.268 28.4226C335.001 32.7752 324.228 41.3747 321.925 34.8986C307.533 46.9034 314.74 58.6441 324.228 62.0142C332.839 65.0726 347.399 68.1304 372.155 65.2522C376.577 64.738 375.651 78.282 378.014 79.7465C381.559 81.9432 384.311 68.1304 394.031 72.2778C403.751 76.4252 397.983 95.6561 387.549 95.6561C383.952 95.6561 382.153 105.548 391.867 110.225C398.918 113.69 397.135 105.967 400.357 98.2199Z" fill="#C56832"/>
<path fill-rule="evenodd" clip-rule="evenodd" d="M447.488 172.916C454.338 186.844 458.281 218.968 458.281 218.968H285.587C285.587 218.968 289.532 186.841 296.38 172.916C303.229 158.991 343.223 146.076 343.223 146.076C350.932 161.905 393.239 161.903 400.624 146.071C400.624 146.071 440.638 158.988 447.488 172.916Z" fill="#C4F34D"/>
<mask id="mask4" mask-type="alpha" maskUnits="userSpaceOnUse" x="285" y="146" width="174" height="73">
<path fill-rule="evenodd" clip-rule="evenodd" d="M447.488 172.916C454.338 186.844 458.281 218.968 458.281 218.968H285.587C285.587 218.968 289.532 186.841 296.38 172.916C303.229 158.991 343.223 146.076 343.223 146.076C350.932 161.905 393.239 161.903 400.624 146.071C400.624 146.071 440.638 158.988 447.488 172.916Z" fill="white"/>
</mask>
<g mask="url(#mask4)">
<path fill-rule="evenodd" clip-rule="evenodd" d="M278.391 169.816H465.477V175.573H278.391V169.816ZM278.391 184.207H465.477V189.964H278.391V184.207ZM465.477 198.599H278.391V204.355H465.477V198.599Z" fill="#87C700"/>
</g>
</g>
<defs>
<linearGradient id="paint0_linear" x1="222.19" y1="295.323" x2="188.544" y2="369.338" gradientUnits="userSpaceOnUse">
<stop stop-color="#EB915E"/>
<stop offset="1" stop-color="#F5A571"/>
</linearGradient>
<linearGradient id="paint1_linear" x1="231.731" y1="350.036" x2="228.152" y2="365.193" gradientUnits="userSpaceOnUse">
<stop stop-color="#E68349"/>
<stop offset="1" stop-color="#F09960"/>
</linearGradient>
</defs>
</svg>
