<svg width="234" height="234" viewBox="0 0 234 234" fill="none" xmlns="http://www.w3.org/2000/svg">
<path d="M100.327 114.173C101.234 115.086 102.312 115.812 103.5 116.307C104.689 116.802 105.963 117.057 107.25 117.057C108.537 117.057 109.811 116.802 111 116.307C112.188 115.812 113.266 115.086 114.173 114.173L153.173 75.1725C154.082 74.2634 154.803 73.1842 155.295 71.9964C155.787 70.8087 156.04 69.5356 156.04 68.25C156.04 66.9644 155.787 65.6913 155.295 64.5036C154.803 63.3158 154.082 62.2366 153.173 61.3275C152.263 60.4184 151.184 59.6973 149.996 59.2053C148.809 58.7133 147.536 58.4601 146.25 58.4601C144.964 58.4601 143.691 58.7133 142.504 59.2053C141.316 59.6973 140.237 60.4184 139.327 61.3275L107.25 93.5025L94.6725 80.8275C92.8365 78.9915 90.3464 77.9601 87.75 77.9601C85.1536 77.9601 82.6635 78.9915 80.8275 80.8275C78.9915 82.6635 77.9601 85.1536 77.9601 87.75C77.9601 90.3464 78.9915 92.8365 80.8275 94.6725L100.327 114.173ZM204.75 136.5H195V39H204.75C207.336 39 209.816 37.9728 211.644 36.1443C213.473 34.3158 214.5 31.8359 214.5 29.25C214.5 26.6641 213.473 24.1842 211.644 22.3557C209.816 20.5272 207.336 19.5 204.75 19.5H29.25C26.6641 19.5 24.1842 20.5272 22.3557 22.3557C20.5272 24.1842 19.5 26.6641 19.5 29.25C19.5 31.8359 20.5272 34.3158 22.3557 36.1443C24.1842 37.9728 26.6641 39 29.25 39H39V136.5H29.25C26.6641 136.5 24.1842 137.527 22.3557 139.356C20.5272 141.184 19.5 143.664 19.5 146.25C19.5 148.836 20.5272 151.316 22.3557 153.144C24.1842 154.973 26.6641 156 29.25 156H107.25V167.212L62.8875 196.462C61.0675 197.589 59.6688 199.283 58.9072 201.284C58.1457 203.284 58.0635 205.479 58.6735 207.531C59.2835 209.583 60.5516 211.377 62.2824 212.636C64.0131 213.896 66.1101 214.551 68.25 214.5C70.1669 214.522 72.0423 213.942 73.6125 212.842L107.25 190.612V204.75C107.25 207.336 108.277 209.816 110.106 211.644C111.934 213.473 114.414 214.5 117 214.5C119.586 214.5 122.066 213.473 123.894 211.644C125.723 209.816 126.75 207.336 126.75 204.75V190.612L160.388 212.842C161.958 213.942 163.833 214.522 165.75 214.5C167.833 214.484 169.856 213.801 171.523 212.552C173.19 211.302 174.413 209.552 175.012 207.557C175.612 205.562 175.557 203.427 174.855 201.466C174.153 199.504 172.842 197.819 171.112 196.658L126.75 167.408V156H204.75C207.336 156 209.816 154.973 211.644 153.144C213.473 151.316 214.5 148.836 214.5 146.25C214.5 143.664 213.473 141.184 211.644 139.356C209.816 137.527 207.336 136.5 204.75 136.5ZM175.5 136.5H58.5V39H175.5V136.5Z" fill="#38C43D"/>
</svg>
