<svg width="234" height="234" viewBox="0 0 234 234" fill="none" xmlns="http://www.w3.org/2000/svg">
<path d="M146.25 165.75C144.322 165.75 142.437 166.322 140.833 167.393C139.23 168.465 137.98 169.987 137.242 171.769C136.504 173.55 136.311 175.511 136.687 177.402C137.064 179.293 137.992 181.031 139.356 182.394C140.719 183.758 142.457 184.686 144.348 185.063C146.239 185.439 148.2 185.246 149.981 184.508C151.763 183.77 153.285 182.52 154.357 180.917C155.428 179.313 156 177.428 156 175.5C156 172.914 154.973 170.434 153.144 168.606C151.316 166.777 148.836 165.75 146.25 165.75ZM87.75 165.75H58.5C55.9141 165.75 53.4342 166.777 51.6057 168.606C49.7772 170.434 48.75 172.914 48.75 175.5C48.75 178.086 49.7772 180.566 51.6057 182.394C53.4342 184.223 55.9141 185.25 58.5 185.25H87.75C90.3359 185.25 92.8158 184.223 94.6443 182.394C96.4728 180.566 97.5 178.086 97.5 175.5C97.5 172.914 96.4728 170.434 94.6443 168.606C92.8158 166.777 90.3359 165.75 87.75 165.75ZM175.5 165.75C173.572 165.75 171.687 166.322 170.083 167.393C168.48 168.465 167.23 169.987 166.492 171.769C165.754 173.55 165.561 175.511 165.937 177.402C166.314 179.293 167.242 181.031 168.606 182.394C169.969 183.758 171.707 184.686 173.598 185.063C175.489 185.439 177.45 185.246 179.231 184.508C181.013 183.77 182.535 182.52 183.607 180.917C184.678 179.313 185.25 177.428 185.25 175.5C185.25 172.914 184.223 170.434 182.394 168.606C180.566 166.777 178.086 165.75 175.5 165.75ZM146.25 107.25C144.322 107.25 142.437 107.822 140.833 108.893C139.23 109.965 137.98 111.487 137.242 113.269C136.504 115.05 136.311 117.011 136.687 118.902C137.064 120.793 137.992 122.531 139.356 123.894C140.719 125.258 142.457 126.186 144.348 126.563C146.239 126.939 148.2 126.746 149.981 126.008C151.763 125.27 153.285 124.02 154.357 122.417C155.428 120.813 156 118.928 156 117C156 114.414 154.973 111.934 153.144 110.106C151.316 108.277 148.836 107.25 146.25 107.25ZM87.75 107.25H58.5C55.9141 107.25 53.4342 108.277 51.6057 110.106C49.7772 111.934 48.75 114.414 48.75 117C48.75 119.586 49.7772 122.066 51.6057 123.894C53.4342 125.723 55.9141 126.75 58.5 126.75H87.75C90.3359 126.75 92.8158 125.723 94.6443 123.894C96.4728 122.066 97.5 119.586 97.5 117C97.5 114.414 96.4728 111.934 94.6443 110.106C92.8158 108.277 90.3359 107.25 87.75 107.25ZM175.5 48.75C173.572 48.75 171.687 49.3218 170.083 50.3932C168.48 51.4645 167.23 52.9873 166.492 54.7688C165.754 56.5504 165.561 58.5108 165.937 60.4021C166.314 62.2934 167.242 64.0307 168.606 65.3943C169.969 66.7579 171.707 67.6865 173.598 68.0627C175.489 68.4389 177.45 68.2458 179.231 67.5078C181.013 66.7699 182.535 65.5202 183.607 63.9168C184.678 62.3134 185.25 60.4284 185.25 58.5C185.25 55.9141 184.223 53.4342 182.394 51.6057C180.566 49.7772 178.086 48.75 175.5 48.75ZM175.5 107.25C173.572 107.25 171.687 107.822 170.083 108.893C168.48 109.965 167.23 111.487 166.492 113.269C165.754 115.05 165.561 117.011 165.937 118.902C166.314 120.793 167.242 122.531 168.606 123.894C169.969 125.258 171.707 126.186 173.598 126.563C175.489 126.939 177.45 126.746 179.231 126.008C181.013 125.27 182.535 124.02 183.607 122.417C184.678 120.813 185.25 118.928 185.25 117C185.25 114.414 184.223 111.934 182.394 110.106C180.566 108.277 178.086 107.25 175.5 107.25ZM214.5 48.75C214.5 40.9924 211.418 33.5526 205.933 28.0671C200.447 22.5817 193.008 19.5 185.25 19.5H48.75C40.9924 19.5 33.5526 22.5817 28.0671 28.0671C22.5817 33.5526 19.5 40.9924 19.5 48.75V68.25C19.543 75.4655 22.2516 82.4105 27.105 87.75C22.2516 93.0895 19.543 100.034 19.5 107.25V126.75C19.543 133.966 22.2516 140.911 27.105 146.25C22.2516 151.589 19.543 158.534 19.5 165.75V185.25C19.5 193.008 22.5817 200.447 28.0671 205.933C33.5526 211.418 40.9924 214.5 48.75 214.5H185.25C193.008 214.5 200.447 211.418 205.933 205.933C211.418 200.447 214.5 193.008 214.5 185.25V165.75C214.457 158.534 211.748 151.589 206.895 146.25C211.748 140.911 214.457 133.966 214.5 126.75V107.25C214.457 100.034 211.748 93.0895 206.895 87.75C211.748 82.4105 214.457 75.4655 214.5 68.25V48.75ZM195 185.25C195 187.836 193.973 190.316 192.144 192.144C190.316 193.973 187.836 195 185.25 195H48.75C46.1641 195 43.6842 193.973 41.8557 192.144C40.0272 190.316 39 187.836 39 185.25V165.75C39 163.164 40.0272 160.684 41.8557 158.856C43.6842 157.027 46.1641 156 48.75 156H185.25C187.836 156 190.316 157.027 192.144 158.856C193.973 160.684 195 163.164 195 165.75V185.25ZM195 126.75C195 129.336 193.973 131.816 192.144 133.644C190.316 135.473 187.836 136.5 185.25 136.5H48.75C46.1641 136.5 43.6842 135.473 41.8557 133.644C40.0272 131.816 39 129.336 39 126.75V107.25C39 104.664 40.0272 102.184 41.8557 100.356C43.6842 98.5272 46.1641 97.5 48.75 97.5H185.25C187.836 97.5 190.316 98.5272 192.144 100.356C193.973 102.184 195 104.664 195 107.25V126.75ZM195 68.25C195 70.8359 193.973 73.3158 192.144 75.1443C190.316 76.9728 187.836 78 185.25 78H48.75C46.1641 78 43.6842 76.9728 41.8557 75.1443C40.0272 73.3158 39 70.8359 39 68.25V48.75C39 46.1641 40.0272 43.6842 41.8557 41.8557C43.6842 40.0272 46.1641 39 48.75 39H185.25C187.836 39 190.316 40.0272 192.144 41.8557C193.973 43.6842 195 46.1641 195 48.75V68.25ZM146.25 48.75C144.322 48.75 142.437 49.3218 140.833 50.3932C139.23 51.4645 137.98 52.9873 137.242 54.7688C136.504 56.5504 136.311 58.5108 136.687 60.4021C137.064 62.2934 137.992 64.0307 139.356 65.3943C140.719 66.7579 142.457 67.6865 144.348 68.0627C146.239 68.4389 148.2 68.2458 149.981 67.5078C151.763 66.7699 153.285 65.5202 154.357 63.9168C155.428 62.3134 156 60.4284 156 58.5C156 55.9141 154.973 53.4342 153.144 51.6057C151.316 49.7772 148.836 48.75 146.25 48.75ZM87.75 48.75H58.5C55.9141 48.75 53.4342 49.7772 51.6057 51.6057C49.7772 53.4342 48.75 55.9141 48.75 58.5C48.75 61.0859 49.7772 63.5658 51.6057 65.3943C53.4342 67.2228 55.9141 68.25 58.5 68.25H87.75C90.3359 68.25 92.8158 67.2228 94.6443 65.3943C96.4728 63.5658 97.5 61.0859 97.5 58.5C97.5 55.9141 96.4728 53.4342 94.6443 51.6057C92.8158 49.7772 90.3359 48.75 87.75 48.75Z" fill="#A0B1BF"/>
</svg>
