<svg width="234" height="234" viewBox="0 0 234 234" fill="none" xmlns="http://www.w3.org/2000/svg">
<path d="M191.393 35.59C190.26 34.6737 188.936 34.0229 187.519 33.6855C186.102 33.348 184.627 33.3325 183.203 33.64C172.784 35.8235 162.029 35.8513 151.599 33.7218C141.17 31.5922 131.286 27.3504 122.558 21.2575C120.925 20.1253 118.986 19.5186 117 19.5186C115.014 19.5186 113.075 20.1253 111.443 21.2575C102.714 27.3504 92.8305 31.5922 82.4009 33.7218C71.9712 35.8513 61.2161 35.8235 50.7976 33.64C49.3735 33.3325 47.8985 33.348 46.4812 33.6855C45.0639 34.0229 43.7403 34.6737 42.6076 35.59C41.4764 36.5077 40.5651 37.6671 39.9409 38.9832C39.3166 40.2992 38.9951 41.7384 39.0001 43.195V115.833C38.9914 129.812 42.3226 143.59 48.7163 156.022C55.1099 168.453 64.3811 179.177 75.7576 187.3L111.345 212.65C112.996 213.826 114.973 214.458 117 214.458C119.027 214.458 121.004 213.826 122.655 212.65L158.243 187.3C169.619 179.177 178.89 168.453 185.284 156.022C191.678 143.59 195.009 129.812 195 115.833V43.195C195.005 41.7384 194.684 40.2992 194.059 38.9832C193.435 37.6671 192.524 36.5077 191.393 35.59ZM175.5 115.833C175.508 126.701 172.919 137.415 167.95 147.081C162.981 156.748 155.775 165.088 146.933 171.408L117 192.76L87.0676 171.408C78.2247 165.088 71.0189 156.748 66.05 147.081C61.081 137.415 58.4926 126.701 58.5001 115.833V54.4075C78.9402 56.157 99.4114 51.4145 117 40.855C134.589 51.4145 155.06 56.157 175.5 54.4075V115.833ZM132.015 93.505L105.788 119.83L97.1101 111.055C95.2741 109.219 92.784 108.188 90.1876 108.188C87.5911 108.188 85.101 109.219 83.2651 111.055C81.4291 112.891 80.3977 115.381 80.3977 117.978C80.3977 120.574 81.4291 123.064 83.2651 124.9L98.8651 140.5C99.7714 141.414 100.85 142.139 102.038 142.634C103.226 143.129 104.5 143.384 105.788 143.384C107.075 143.384 108.349 143.129 109.537 142.634C110.725 142.139 111.804 141.414 112.71 140.5L146.25 107.253C148.086 105.417 149.117 102.926 149.117 100.33C149.117 97.7336 148.086 95.2435 146.25 93.4075C144.414 91.5716 141.924 90.5401 139.328 90.5401C136.731 90.5401 134.241 91.5716 132.405 93.4075L132.015 93.505Z" fill="#A0B1BF"/>
</svg>
