<svg width="234" height="234" viewBox="0 0 234 234" fill="none" xmlns="http://www.w3.org/2000/svg">
<path d="M68.25 58.5H58.5V29.25C58.5 26.6641 57.4728 24.1842 55.6443 22.3557C53.8158 20.5272 51.3359 19.5 48.75 19.5C46.1641 19.5 43.6842 20.5272 41.8557 22.3557C40.0272 24.1842 39 26.6641 39 29.25V58.5H29.25C26.6641 58.5 24.1842 59.5272 22.3557 61.3557C20.5272 63.1842 19.5 65.6641 19.5 68.25C19.5 70.8359 20.5272 73.3158 22.3557 75.1443C24.1842 76.9728 26.6641 78 29.25 78H68.25C70.8359 78 73.3158 76.9728 75.1443 75.1443C76.9728 73.3158 78 70.8359 78 68.25C78 65.6641 76.9728 63.1842 75.1443 61.3557C73.3158 59.5272 70.8359 58.5 68.25 58.5ZM48.75 97.5C46.1641 97.5 43.6842 98.5272 41.8557 100.356C40.0272 102.184 39 104.664 39 107.25V204.75C39 207.336 40.0272 209.816 41.8557 211.644C43.6842 213.473 46.1641 214.5 48.75 214.5C51.3359 214.5 53.8158 213.473 55.6443 211.644C57.4728 209.816 58.5 207.336 58.5 204.75V107.25C58.5 104.664 57.4728 102.184 55.6443 100.356C53.8158 98.5272 51.3359 97.5 48.75 97.5ZM117 175.5C114.414 175.5 111.934 176.527 110.106 178.356C108.277 180.184 107.25 182.664 107.25 185.25V204.75C107.25 207.336 108.277 209.816 110.106 211.644C111.934 213.473 114.414 214.5 117 214.5C119.586 214.5 122.066 213.473 123.894 211.644C125.723 209.816 126.75 207.336 126.75 204.75V185.25C126.75 182.664 125.723 180.184 123.894 178.356C122.066 176.527 119.586 175.5 117 175.5ZM204.75 97.5H195V29.25C195 26.6641 193.973 24.1842 192.144 22.3557C190.316 20.5272 187.836 19.5 185.25 19.5C182.664 19.5 180.184 20.5272 178.356 22.3557C176.527 24.1842 175.5 26.6641 175.5 29.25V97.5H165.75C163.164 97.5 160.684 98.5272 158.856 100.356C157.027 102.184 156 104.664 156 107.25C156 109.836 157.027 112.316 158.856 114.144C160.684 115.973 163.164 117 165.75 117H204.75C207.336 117 209.816 115.973 211.644 114.144C213.473 112.316 214.5 109.836 214.5 107.25C214.5 104.664 213.473 102.184 211.644 100.356C209.816 98.5272 207.336 97.5 204.75 97.5ZM185.25 136.5C182.664 136.5 180.184 137.527 178.356 139.356C176.527 141.184 175.5 143.664 175.5 146.25V204.75C175.5 207.336 176.527 209.816 178.356 211.644C180.184 213.473 182.664 214.5 185.25 214.5C187.836 214.5 190.316 213.473 192.144 211.644C193.973 209.816 195 207.336 195 204.75V146.25C195 143.664 193.973 141.184 192.144 139.356C190.316 137.527 187.836 136.5 185.25 136.5ZM136.5 136.5H126.75V29.25C126.75 26.6641 125.723 24.1842 123.894 22.3557C122.066 20.5272 119.586 19.5 117 19.5C114.414 19.5 111.934 20.5272 110.106 22.3557C108.277 24.1842 107.25 26.6641 107.25 29.25V136.5H97.5C94.9141 136.5 92.4342 137.527 90.6057 139.356C88.7772 141.184 87.75 143.664 87.75 146.25C87.75 148.836 88.7772 151.316 90.6057 153.144C92.4342 154.973 94.9141 156 97.5 156H136.5C139.086 156 141.566 154.973 143.394 153.144C145.223 151.316 146.25 148.836 146.25 146.25C146.25 143.664 145.223 141.184 143.394 139.356C141.566 137.527 139.086 136.5 136.5 136.5Z" fill="#38C43D"/>
</svg>
