<svg width="216" height="216" viewBox="0 0 216 216" fill="none" xmlns="http://www.w3.org/2000/svg">
<path d="M107.934 215.868C167.544 215.868 215.868 167.544 215.868 107.934C215.868 48.3237 167.544 0 107.934 0C48.3237 0 0 48.3237 0 107.934C0 167.544 48.3237 215.868 107.934 215.868Z" fill="#3AC63F"/>
<mask id="mask0" mask-type="alpha" maskUnits="userSpaceOnUse" x="0" y="0" width="216" height="216">
<path d="M107.934 215.868C167.544 215.868 215.868 167.544 215.868 107.934C215.868 48.3237 167.544 0 107.934 0C48.3237 0 0 48.3237 0 107.934C0 167.544 48.3237 215.868 107.934 215.868Z" fill="white"/>
</mask>
<g mask="url(#mask0)">
<path d="M115.751 35.7657C112.873 23.1734 126.521 13.5104 140.576 20.1439C173.676 35.7657 154.469 59.1514 142.596 56.633C130.724 54.1145 118.63 48.358 115.751 35.7657Z" fill="url(#paint0_linear)"/>
<path d="M123.764 115.13C108.306 122.556 106.051 122.158 71.956 94.2624C20.5075 52.1681 69.0778 13.6716 121.246 34.1791C177.731 59.0039 158.807 98.2953 123.764 115.13Z" fill="url(#paint1_linear)"/>
<path fill-rule="evenodd" clip-rule="evenodd" d="M125.203 144.632C119.927 156.145 113.211 161.901 107.934 161.901C102.657 161.901 95.9413 156.145 90.6646 144.632V130.24C90.6646 130.24 88.3169 130.309 86.707 130.24C69.877 129.519 64.2528 102.446 66.894 75.3651C68.8282 55.5329 85.6276 82.7494 112.971 63.6811C111.892 84.5483 120.886 82.3897 124.844 79.8712C142.833 71.5963 143.192 105.416 125.413 102.795C125.42 103.155 125.35 117.1 125.203 144.632Z" fill="url(#paint2_linear)"/>
<path d="M90.6646 130.24C97.1406 129.761 105.208 126.139 114.866 119.375C111.907 129.567 103.839 135.587 90.6646 137.436L90.6646 130.24Z" fill="#FF9768"/>
<path fill-rule="evenodd" clip-rule="evenodd" d="M84.7154 148.817C84.7154 148.817 85.8011 141.322 88.3469 140.68C90.8927 140.037 105.772 139.96 105.785 142.838C105.788 143.367 106.297 149.029 107.994 149.029C109.691 149.029 110.127 143.366 110.129 142.838C110.143 139.96 124.936 140.071 127.568 140.68C130.2 141.288 131.188 148.827 131.188 148.827C131.188 148.827 170.043 167.123 174.134 174.933C177.651 181.649 180.29 197.239 182.049 221.704H33.8193C35.5783 197.239 38.2166 181.649 41.7345 174.933C45.8236 167.127 84.7154 148.817 84.7154 148.817Z" fill="url(#paint3_linear)"/>
<path fill-rule="evenodd" clip-rule="evenodd" d="M107.934 171.975C109.524 171.975 110.812 170.686 110.812 169.097C110.812 167.507 109.524 166.218 107.934 166.218C106.344 166.218 105.056 167.507 105.056 169.097C105.056 170.686 106.344 171.975 107.934 171.975ZM107.934 186.366C109.524 186.366 110.812 185.077 110.812 183.488C110.812 181.898 109.524 180.61 107.934 180.61C106.344 180.61 105.056 181.898 105.056 183.488C105.056 185.077 106.344 186.366 107.934 186.366ZM110.812 197.879C110.812 199.469 109.524 200.757 107.934 200.757C106.344 200.757 105.056 199.469 105.056 197.879C105.056 196.289 106.344 195.001 107.934 195.001C109.524 195.001 110.812 196.289 110.812 197.879Z" fill="#664F4D"/>
<path d="M115.554 57.1531C104.041 85.9355 110.517 99.9669 119.512 116.877C128.506 133.786 117.353 149.617 117.353 149.617C117.353 149.617 130.305 141.342 130.305 122.993C130.305 104.644 117.353 93.1311 128.147 78.0203C138.94 62.9096 127.067 28.3707 115.554 57.1531Z" fill="url(#paint4_linear)"/>
</g>
<defs>
<linearGradient id="paint0_linear" x1="159.023" y1="17.989" x2="159.023" y2="56.8207" gradientUnits="userSpaceOnUse">
<stop stop-color="#1D0024"/>
<stop offset="1" stop-color="#100014"/>
</linearGradient>
<linearGradient id="paint1_linear" x1="50.0539" y1="28.4998" x2="50.0539" y2="119.219" gradientUnits="userSpaceOnUse">
<stop stop-color="#1D0024"/>
<stop offset="1" stop-color="#100014"/>
</linearGradient>
<linearGradient id="paint2_linear" x1="66.2725" y1="63.6811" x2="66.2725" y2="161.901" gradientUnits="userSpaceOnUse">
<stop stop-color="#F7B186"/>
<stop offset="1" stop-color="#FFC299"/>
</linearGradient>
<linearGradient id="paint3_linear" x1="182.049" y1="221.704" x2="182.049" y2="140.314" gradientUnits="userSpaceOnUse">
<stop stop-color="#FCF2EB"/>
<stop offset="1" stop-color="#FFF9F5"/>
</linearGradient>
<linearGradient id="paint4_linear" x1="132.388" y1="46.0518" x2="132.388" y2="149.617" gradientUnits="userSpaceOnUse">
<stop stop-color="#1D0024"/>
<stop offset="1" stop-color="#100014"/>
</linearGradient>
</defs>
</svg>
