<svg width="234" height="234" viewBox="0 0 234 234" fill="none" xmlns="http://www.w3.org/2000/svg">
<path d="M97.5 48.75C95.5716 48.75 93.6866 49.3218 92.0832 50.3932C90.4798 51.4645 89.2301 52.9873 88.4922 54.7688C87.7542 56.5504 87.5611 58.5108 87.9373 60.4021C88.3135 62.2934 89.2421 64.0307 90.6057 65.3943C91.9693 66.7579 93.7066 67.6865 95.5979 68.0627C97.4892 68.4389 99.4496 68.2458 101.231 67.5078C103.013 66.7699 104.535 65.5202 105.607 63.9168C106.678 62.3134 107.25 60.4284 107.25 58.5C107.25 55.9141 106.223 53.4342 104.394 51.6057C102.566 49.7772 100.086 48.75 97.5 48.75ZM58.5 48.75C56.5716 48.75 54.6866 49.3218 53.0832 50.3932C51.4798 51.4645 50.2301 52.9873 49.4922 54.7688C48.7542 56.5504 48.5611 58.5108 48.9373 60.4021C49.3135 62.2934 50.2421 64.0307 51.6057 65.3943C52.9693 66.7579 54.7066 67.6865 56.5979 68.0627C58.4892 68.4389 60.4496 68.2458 62.2312 67.5078C64.0127 66.7699 65.5355 65.5202 66.6068 63.9168C67.6782 62.3134 68.25 60.4284 68.25 58.5C68.25 55.9141 67.2228 53.4342 65.3943 51.6057C63.5658 49.7772 61.0859 48.75 58.5 48.75ZM136.5 48.75C134.572 48.75 132.687 49.3218 131.083 50.3932C129.48 51.4645 128.23 52.9873 127.492 54.7688C126.754 56.5504 126.561 58.5108 126.937 60.4021C127.314 62.2934 128.242 64.0307 129.606 65.3943C130.969 66.7579 132.707 67.6865 134.598 68.0627C136.489 68.4389 138.45 68.2458 140.231 67.5078C142.013 66.7699 143.535 65.5202 144.607 63.9168C145.678 62.3134 146.25 60.4284 146.25 58.5C146.25 55.9141 145.223 53.4342 143.394 51.6057C141.566 49.7772 139.086 48.75 136.5 48.75ZM195 9.75H39C31.2424 9.75 23.8026 12.8317 18.3171 18.3171C12.8317 23.8026 9.75 31.2424 9.75 39V195C9.75 202.758 12.8317 210.197 18.3171 215.683C23.8026 221.168 31.2424 224.25 39 224.25H195C202.758 224.25 210.197 221.168 215.683 215.683C221.168 210.197 224.25 202.758 224.25 195V39C224.25 31.2424 221.168 23.8026 215.683 18.3171C210.197 12.8317 202.758 9.75 195 9.75V9.75ZM204.75 195C204.75 197.586 203.723 200.066 201.894 201.894C200.066 203.723 197.586 204.75 195 204.75H39C36.4141 204.75 33.9342 203.723 32.1057 201.894C30.2772 200.066 29.25 197.586 29.25 195V107.25H204.75V195ZM204.75 87.75H29.25V39C29.25 36.4141 30.2772 33.9342 32.1057 32.1057C33.9342 30.2772 36.4141 29.25 39 29.25H195C197.586 29.25 200.066 30.2772 201.894 32.1057C203.723 33.9342 204.75 36.4141 204.75 39V87.75Z" fill="#38C43D"/>
</svg>
